<?xml version="1.0" encoding="UTF-8" standalone="no"?>
<!DOCTYPE svg PUBLIC "-//W3C//DTD SVG 1.1//EN" "http://www.w3.org/Graphics/SVG/1.1/DTD/svg11.dtd">
<svg width="100%" height="100%" viewBox="0 0 425 425" version="1.1" xmlns="http://www.w3.org/2000/svg" xmlns:xlink="http://www.w3.org/1999/xlink" xml:space="preserve" xmlns:serif="http://www.serif.com/" style="fill-rule:evenodd;clip-rule:evenodd;stroke-linejoin:round;stroke-miterlimit:1.41421;">
    <g id="Background">
        <path d="M425,424.926L0,424.926L0,-0.074L425,-0.074L425,424.926ZM212.5,5.926L19.476,74.508L48.917,328.801L212.5,419.074L376.083,328.801L405.524,74.508L212.5,5.926Z" style="fill:rgb(236,240,241);"/>
    </g>
    <g transform="matrix(2.07329,0,0,2.06574,-46.6617,-56.0466)">
        <path d="M125,30L31.9,63.2L46.1,186.3L125,230L203.9,186.3L218.1,63.2L125,30Z" style="fill:rgb(221,0,49);fill-opacity:0;"/>
        <path d="M218.1,63.2L203.9,186.3L125,230L46.1,186.3L31.9,63.2L125,30L218.1,63.2ZM38.179,67.126L51.507,182.66L125,223.365L198.493,182.66L211.821,67.126L125,36.165L38.179,67.126Z" style="fill:url(#_Linear1);"/>
    </g>
    <defs>
        <linearGradient id="_Linear1" x1="0" y1="0" x2="1" y2="0" gradientUnits="userSpaceOnUse" gradientTransform="matrix(186.2,0,0,200,31.9,130)"><stop offset="0" style="stop-color:rgb(232,65,24);stop-opacity:1"/><stop offset="1" style="stop-color:rgb(230,126,34);stop-opacity:1"/></linearGradient>
    </defs>
</svg>
