<?xml version="1.0" standalone="no"?>
<!DOCTYPE svg PUBLIC "-//W3C//DTD SVG 20010904//EN"
 "http://www.w3.org/TR/2001/REC-SVG-20010904/DTD/svg10.dtd">
<svg version="1.0" xmlns="http://www.w3.org/2000/svg"
 width="922.000000pt" height="922.000000pt" viewBox="0 0 922.000000 922.000000"
 preserveAspectRatio="xMidYMid meet">
<metadata>
Created by potrace 1.11, written by Peter Selinger 2001-2013
</metadata>
<g transform="translate(0.000000,922.000000) scale(0.100000,-0.100000)"
fill="#000000" stroke="none">
<path d="M4435 9160 c-234 -84 -1528 -544 -1825 -649 -140 -49 -406 -144 -590
-211 -184 -66 -639 -229 -1010 -362 -371 -132 -678 -243 -682 -247 -7 -6 46
-512 101 -971 21 -175 56 -480 91 -795 11 -104 32 -284 46 -400 13 -115 26
-230 29 -255 2 -25 13 -121 24 -215 11 -93 32 -271 46 -395 34 -296 80 -694
110 -955 14 -115 36 -307 49 -425 40 -343 74 -644 91 -790 9 -74 25 -211 35
-304 11 -93 23 -172 27 -176 4 -4 186 -105 403 -225 217 -120 1023 -567 1790
-993 767 -426 1407 -780 1421 -785 23 -9 92 27 695 361 368 204 1178 652 1799
996 622 344 1139 633 1151 643 17 15 22 39 33 138 6 66 23 217 37 335 13 118
35 312 49 430 40 344 73 629 99 860 14 118 32 278 41 355 28 246 64 556 80
695 15 129 37 320 91 790 40 347 73 641 99 860 13 113 36 309 50 435 15 127
40 340 56 475 16 135 29 262 29 281 l0 36 -282 101 c-156 55 -589 209 -963
342 -374 133 -1058 376 -1520 540 -954 340 -1120 398 -1155 410 -14 4 -77 27
-140 50 -161 58 -228 80 -237 79 -4 -1 -80 -27 -168 -59z m1650 -2615 c303
-45 498 -173 614 -403 36 -71 76 -203 85 -285 l7 -57 -257 2 -258 3 -16 65
c-33 137 -98 217 -207 259 -146 56 -324 28 -427 -67 -140 -130 -205 -428 -177
-813 18 -241 68 -379 175 -477 85 -77 150 -97 316 -97 148 0 217 17 286 70
l34 26 -2 172 -3 172 -187 3 -188 2 0 180 0 180 455 0 455 0 0 -462 0 -461
-42 -36 c-135 -116 -286 -185 -506 -230 -427 -89 -795 -13 -1030 213 -129 123
-212 270 -263 463 -31 114 -32 126 -37 369 -6 330 12 460 92 663 120 304 371
498 716 554 62 10 274 6 365 -8z m-2741 -724 c220 -385 403 -698 408 -695 4 3
8 318 8 700 l0 694 265 0 265 0 0 -1125 0 -1125 -267 0 -268 0 -400 700 c-219
385 -403 700 -407 700 -4 0 -8 -315 -8 -700 l0 -700 -270 0 -270 0 0 1125 0
1125 273 0 272 0 399 -699z m1819 -2241 l187 0 0 -80 0 -80 -205 0 -205 0 0
-100 0 -100 175 0 175 0 0 -70 0 -70 -172 -2 -173 -3 -3 -112 -3 -113 206 0
205 0 0 -80 0 -80 -315 0 -315 0 0 445 0 444 108 4 c59 2 116 2 127 0 11 -1
104 -3 208 -3z m-921 -38 c130 -64 209 -176 229 -328 27 -207 -57 -395 -212
-473 -87 -43 -145 -52 -329 -49 l-165 3 -3 443 -2 443 208 -3 208 -3 66 -33z"/>
<path d="M3970 3135 l0 -285 68 0 c46 0 78 6 102 19 84 45 126 152 118 301
-11 174 -78 250 -223 250 l-65 0 0 -285z"/>
</g>
</svg>
