<?xml version="1.0" encoding="UTF-8" standalone="no"?><!DOCTYPE svg PUBLIC "-//W3C//DTD SVG 1.1//EN" "http://www.w3.org/Graphics/SVG/1.1/DTD/svg11.dtd"><svg width="100%" height="100%" viewBox="0 0 187 200" version="1.1" xmlns="http://www.w3.org/2000/svg" xmlns:xlink="http://www.w3.org/1999/xlink" xml:space="preserve" xmlns:serif="http://www.serif.com/" style="fill-rule:evenodd;clip-rule:evenodd;stroke-linecap:round;"><g><path d="M93.1,0l-93.1,33.2l14.2,123.1l78.9,43.7l78.9,-43.7l14.2,-123.1l-93.1,-33.2Z" style="fill:#dd0031;fill-rule:nonzero;"/><path d="M93.1,0l0,22.2l0,-0.1l0,177.9l78.9,-43.7l14.2,-123.1l-93.1,-33.2Z" style="fill:#c3002f;fill-rule:nonzero;"/><g id="Dresden_Stadtwappen-white" opacity="0.75"><clipPath id="_clip1"><rect x="46.953" y="34.856" width="92.294" height="95.6"/></clipPath><g clip-path="url(#_clip1)"><g><g><path d="M48.398,36.302l0,70.997c0,4.7 4.154,11.276 11.163,12.949l33.486,8.671l33.486,-8.671c7.009,-1.673 11.162,-8.249 11.162,-12.949l0,-70.997l-44.648,0l-44.649,0Z" style="fill:none;stroke:#fff;stroke-width:0.7px;"/><path d="M93.047,36.302l0,92.617" style="fill:#ffe000;stroke:#fff;stroke-width:0.7px;stroke-linecap:butt;"/></g><g><g><path d="M62.889,40.136c0,0 1.268,-1.153 1.845,-1.037c0.461,0.461 -0.231,2.075 -0.231,2.075" style="fill:none;stroke:#fff;stroke-width:0.37px;stroke-linejoin:round;"/><g><path d="M57.468,40.252c0,0 -1.383,-1.499 -1.96,-1.384c-0.346,0.461 0.115,2.537 0.115,2.537" style="fill:none;stroke:#fff;stroke-width:0.37px;stroke-linejoin:round;"/><g><path d="M52.279,46.71c0,0 -1.73,-0.807 -1.615,-1.499c0.231,-0.462 2.076,-0.231 2.076,-0.231" style="fill:none;stroke:#fff;stroke-width:0.37px;stroke-linejoin:round;"/><g><path d="M52.279,51.323c0,0 -1.384,1.384 -1.269,1.845c0.577,0.461 2.307,-0.115 2.307,-0.115" style="fill:none;stroke:#fff;stroke-width:0.37px;stroke-linejoin:round;"/><g><path d="M55.739,64.7c0,0 -0.231,-1.845 0.346,-2.191c0.576,0 1.499,1.5 1.499,1.5" style="fill:none;stroke:#fff;stroke-width:0.37px;stroke-linejoin:round;"/><g><path d="M52.74,69.083c0,0 -2.076,0.23 -2.306,0.692c0.23,0.461 2.191,1.384 2.191,1.384" style="fill:none;stroke:#fff;stroke-width:0.37px;stroke-linejoin:round;"/><g><path d="M54.355,77.271c0,0 -1.73,0.692 -2.191,0.23c-0.116,-0.461 1.153,-1.729 1.153,-1.729" style="fill:none;stroke:#fff;stroke-width:0.37px;stroke-linejoin:round;"/><g><path d="M58.391,80.038c0,0 0.231,2.076 0.692,2.307c0.692,-0.231 1.615,-2.307 1.615,-2.307" style="fill:none;stroke:#fff;stroke-width:0.37px;stroke-linejoin:round;"/><g><path d="M53.201,107.486c0,0 -1.614,-1.154 -1.614,-1.73c0.461,-0.462 2.191,-0.115 2.191,-0.115" style="fill:none;stroke:#fff;stroke-width:0.37px;stroke-linejoin:round;"/><g><path d="M54.47,112.675c0,0 -1.153,1.73 -0.922,2.191c0.461,0.231 2.421,-0.692 2.421,-0.692" style="fill:none;stroke:#fff;stroke-width:0.37px;stroke-linejoin:round;"/><g><path d="M61.851,116.827c0,0 -0.577,1.845 -1.384,1.845c-0.461,-0.231 -0.461,-2.076 -0.461,-2.076" style="fill:none;stroke:#fff;stroke-width:0.37px;stroke-linejoin:round;"/><g><path d="M66.464,115.674c0,0 1.499,1.153 1.96,0.922c0.346,-0.461 -0.23,-2.076 -0.23,-2.076" style="fill:none;stroke:#fff;stroke-width:0.37px;stroke-linejoin:round;"/><g><path d="M73.729,114.29c0,0 -1.614,-0.808 -1.73,-1.499c0.346,-0.462 2.076,-0.462 2.076,-0.462" style="fill:none;stroke:#fff;stroke-width:0.37px;stroke-linejoin:round;"/><g><path d="M75.69,119.479c0,0 -0.923,1.961 -0.577,2.307c0.461,0.23 2.307,-0.923 2.307,-0.923" style="fill:none;stroke:#fff;stroke-width:0.37px;stroke-linejoin:round;"/><g><path d="M83.762,122.362c0,0 -0.23,1.961 -1.153,2.192c-0.577,-0.116 -0.807,-2.192 -0.807,-2.192" style="fill:none;stroke:#fff;stroke-width:0.37px;stroke-linejoin:round;"/><path d="M88.145,120.748c0,0 1.96,0.922 2.421,0.692c0.231,-0.692 -1.037,-2.537 -1.037,-2.537" style="fill:none;stroke:#fff;stroke-width:0.37px;stroke-linejoin:round;"/></g></g></g></g></g></g></g></g></g></g></g></g></g></g></g><path d="M74.306,48.555c-0.692,-0.231 -1.038,-0.461 -1.961,-0.231c-1.038,0.116 -1.845,1.154 -3.921,1.384c-1.268,0.231 -3.805,-0.922 -3.575,-4.036c0.577,2.306 1.961,2.652 3.345,2.537c1.153,-0.115 1.729,-0.922 3.113,-1.038c1.615,-0.115 2.192,0.692 2.999,1.384Z" style="fill:none;stroke:#fff;stroke-width:0.37px;stroke-linejoin:round;"/></g><path d="M82.376,37.6c-1.615,0.346 -1.499,1.268 -2.422,1.499c-6.112,-0.577 -7.495,0.692 -7.61,2.076c-3.575,0.346 -3.459,0.461 -3.575,1.153c-0.115,1.268 0.116,2.652 0.116,2.652c0.23,0.577 0.461,1.499 0.922,2.306c1.269,-1.153 1.845,-1.499 2.652,-1.499c1.499,0 1.845,0.807 2.076,1.614c0.346,1.154 -0.461,2.076 -1.153,2.191c-1.269,0.577 -2.306,-1.153 -2.306,0.116c0,1.96 0.922,2.882 1.844,2.767c2.076,0 3.344,-2.883 4.152,-1.038c0.346,0.692 -4.613,6.919 -5.996,6.688c-0.462,0 -2.537,-2.536 -4.613,-5.189c-2.307,-2.767 -4.843,-5.65 -4.728,-6.342c0,-1.96 1.96,-1.845 2.883,-2.767c1.735,-2.901 -1.775,-5.112 -3.92,-2.652c-0.923,1.499 0.691,2.652 -0.577,3.113c-1.615,-0.346 -0.115,-1.614 -0.692,-2.998c-1.223,-2.765 -5.291,-0.632 -4.036,1.96c0.807,1.269 2.883,1.384 1.96,2.652c-1.268,0.808 -1.383,-1.729 -2.998,-1.845c-2.525,-0.123 -3.208,3.378 -0.922,4.267c1.499,0.231 2.537,-1.038 3.113,0.231c0,1.729 -2.191,-0.001 -3.459,0.922c-2.346,1.747 -0.094,5.123 2.421,4.151c1.269,-0.922 1.153,-3.113 3.114,-2.306c0.346,0.115 1.038,1.153 0.807,2.076c-0.461,1.499 -2.537,2.998 -2.421,4.727c0.115,1.5 1.268,3.921 1.96,4.497c-1.153,-3.344 2.883,-2.536 2.306,-5.765c0.692,1.268 2.883,8.418 2.883,8.418c-1.269,1.96 -3.344,4.151 -4.036,3.92c-1.845,-0.692 -0.231,-2.421 -0.461,-3.805c-1.203,-3.146 -5.137,-1.373 -4.382,1.614c0.692,1.73 2.537,1.038 1.96,2.422c-1.038,1.038 -1.153,-0.923 -2.767,-1.269c-3.025,-0.368 -3.354,3.636 -0.692,4.498c1.499,0 2.767,-1.5 3.229,0c-0.231,1.499 -2.191,-0.001 -3.229,1.268c-1.859,2.037 0.508,4.546 2.767,3.229c1.269,-1.038 0.692,-2.537 2.076,-2.191c1.384,0.922 -1.269,1.614 -1.384,3.113c-0.005,2.881 4.015,3.719 4.728,0.807c0.115,-1.614 -1.73,-2.421 -0.346,-3.69c0.577,-0.692 1.384,-0.692 1.96,-0.345c0.923,0.576 0.577,2.421 0.577,2.421c3.575,-1.73 4.036,-3.344 4.843,-3.344c0.576,0 5.765,5.534 8.418,11.646c0,0 0.807,2.191 0.576,2.307c-0.23,0 -0.461,0 -0.576,-0.116c-7.496,-4.267 -8.072,-4.497 -13.261,-5.189c-1.961,-0.346 -4.958,0.692 -6.227,2.422c-1.269,2.076 -0.692,4.728 -0.807,4.843c-0.807,1.269 -3.69,1.729 -3.69,4.382c0,0.922 0.461,1.856 1.499,3.586c-0.577,-2.307 3.229,-2.664 3.459,-4.624c0,0 0.577,0.692 0.577,1.73c0,1.614 -2.537,1.395 -2.652,4.162c0,1.269 0.922,2.191 1.96,3.229c-0.692,-2.768 3.459,-2.306 2.537,-5.42c1.73,1.384 3.228,1.499 3.228,2.191c0,0.692 -1.037,2.537 -2.075,4.267c-1.038,1.96 -1.96,3.92 -2.422,3.92c-1.96,0.346 -2.075,-1.499 -3.228,-2.191c-3.104,-1.266 -4.549,2.721 -1.845,4.267c1.729,0.692 2.767,-1.153 3.344,0.115c0,1.499 -1.384,0.346 -2.652,1.269c-2.318,1.868 0.333,5.082 2.767,3.459c1.038,-1.153 0.576,-2.998 2.076,-2.421c0.922,1.153 -1.384,1.729 -1.154,3.344c0.315,2.638 3.892,2.733 4.267,0.115c0,-1.615 -1.499,-2.306 -0.346,-2.998c1.615,-0.462 0.577,1.96 1.614,3.113c2.185,1.945 5.453,-0.807 3.575,-3.113c-1.038,-1.269 -3.575,-0.461 -3.229,-2.422c0,-0.922 0.807,-1.729 1.73,-2.767c1.038,-1.269 2.076,-2.537 2.422,-2.883c-0.923,2.768 2.421,3.344 1.499,5.074c1.845,-1.73 2.421,-3.344 2.421,-3.344c0,-2.076 -1.845,-2.422 -1.845,-3.575c0,-1.614 1.845,-2.191 1.845,-3.459c0,-1.615 -4.958,-2.202 -4.958,-5.662c0,-2.422 1.844,-3.344 4.728,-3.344c2.767,0 5.765,1.153 5.765,1.614c0,1.154 -4.497,5.662 -4.382,9.121c0,4.152 7.034,7.495 7.034,10.609c0,0.807 0,1.614 -0.922,2.306c-1.845,0.577 -2.076,-1.384 -3.229,-1.96c-3.376,-0.867 -4.576,3.444 -1.384,4.612c1.73,0.346 2.422,-1.499 3.229,-0.346c0.231,1.5 -1.499,0.577 -2.652,1.615c-2.116,2.144 1.147,5.123 3.229,2.998c0.922,-1.153 0.461,-2.998 2.075,-2.652c1.153,1.038 -1.268,2.075 -0.922,3.574c0.935,2.353 4.513,2 4.497,-0.691c-0.231,-1.615 -1.845,-1.845 -0.807,-2.883c1.499,-0.577 0.807,1.96 1.96,2.998c2.585,1.247 5.137,-1.579 3.113,-3.805c-1.268,-0.923 -3.344,0.23 -3.228,-1.73l0,-4.728c0.922,2.998 4.151,1.383 4.843,4.382c0,0 0.115,-1.384 0,-2.422c-0.346,-4.843 -4.613,-3.343 -4.728,-5.88c-0.115,-0.692 -0.115,-1.615 -0.115,-1.615c0.807,2.422 3.805,0.922 4.843,4.036c0,0 0.115,-1.729 0,-2.767c-0.577,-5.997 -7.611,-2.075 -7.611,-7.265c0,-1.499 0.346,-3.932 0.692,-4.97c0.807,0.923 1.73,1.395 2.537,1.395c2.537,0 3.344,-3.355 3.229,-5.546c0,-1.961 -0.462,-5.42 -0.462,-5.42c0,-2.076 2.191,-2.421 2.307,-5.189c0.115,-1.845 -0.462,-2.421 -0.808,-4.381c0.231,2.652 -2.767,2.536 -2.421,5.996c0,0 -0.577,-1.73 -0.577,-2.307c0,-3.344 3.921,-3.574 3.921,-7.841c0,-0.807 -0.461,-3.344 -1.038,-5.419c-0.231,2.652 -5.535,5.188 -5.535,8.763c0,4.037 3.113,12.108 3.229,14.299c0,0 0.346,1.614 0.115,2.883c-0.231,1.268 -1.153,2.537 -2.075,2.537c-1.154,0.115 -2.191,-2.307 -2.076,-3.345c0.115,-2.883 0.346,-5.534 0,-9.455c-0.692,-7.15 -1.384,-7.495 -1.384,-8.533c0,-1.384 1.268,-1.383 4.382,-6.342c2.076,-3.46 4.151,-7.726 4.151,-12.338l0,-2.999c0,-5.304 -3.343,-10.262 -7.264,-11.415c0,0 -0.692,-1.845 -1.73,-1.73Zm-7.611,3.344l1.845,0.115c0,0 -0.345,1.038 -1.268,1.384l-1.845,0c0,0 0.231,-1.499 1.268,-1.499Zm9.11,0.461c0.346,1.384 2.076,1.615 2.652,2.537c0.115,0.461 0.231,1.268 0.231,2.076c-0.346,-1.5 -1.73,-1.269 -2.422,-2.537c-0.346,-0.692 -0.461,-1.269 -0.461,-2.076Zm-0.577,3.575c0.231,1.499 1.961,2.191 2.422,3.344c0.231,0.461 0.115,1.384 0,2.306c-0.231,-1.73 -1.73,-1.729 -2.306,-3.229c-0.231,-0.807 -0.231,-1.383 -0.116,-2.421Zm4.843,1.96c0.231,1.269 1.845,1.73 2.307,2.768c0.115,0.346 0.115,1.153 0,1.96c-0.231,-1.499 -1.499,-1.384 -2.076,-2.768c-0.346,-0.576 -0.346,-1.153 -0.231,-1.96Zm-6.111,1.384c0,1.845 1.845,2.537 2.306,3.805c0.116,0.577 0,1.499 -0.23,2.422c0,-1.73 -1.615,-1.845 -2.076,-3.69c-0.346,-0.808 -0.231,-1.384 0,-2.537Zm5.304,2.306c0.116,1.499 1.845,2.306 2.191,3.459c0.231,0.462 0.116,1.384 0,2.307c-0.115,-1.73 -1.729,-1.73 -2.191,-3.344c-0.23,-0.808 -0.23,-1.384 0,-2.422Zm-7.38,0.461c-0.23,2.076 1.961,3.344 2.076,5.074c0.115,0.692 -0.23,1.96 -0.577,2.998c0.231,-2.306 -1.729,-2.767 -2.075,-4.958c-0.231,-1.154 0,-1.845 0.576,-3.114Zm5.997,3.114c0,1.614 1.729,2.421 2.075,3.805c0.231,0.461 -0.115,1.499 -0.115,2.422c-0.115,-1.846 -1.614,-1.961 -2.191,-3.69c-0.231,-0.923 -0.115,-1.499 0.231,-2.537Zm-8.764,0.346c-0.461,2.076 1.845,3.92 1.96,5.881c0,0.807 -0.576,2.306 -1.153,3.344c0.461,-2.422 -1.73,-3.114 -1.73,-5.766c-0.115,-1.269 0.116,-2.075 0.923,-3.459Zm-3.344,3.574c-0.577,2.192 1.845,4.036 1.845,6.112c0,0.807 -0.576,2.191 -1.269,3.344c0.577,-2.537 -1.614,-3.344 -1.729,-5.996c0,-1.269 0.346,-2.191 1.153,-3.46Zm10.032,0c-0.115,1.73 1.845,2.883 2.191,4.382c0,0.577 -0.115,1.73 -0.461,2.652c0,-1.96 -1.73,-2.306 -2.191,-4.266c-0.231,-1.038 0,-1.614 0.461,-2.768Zm-2.883,3.229c-0.346,2.076 1.845,3.69 2.076,5.65c0.115,0.692 -0.461,2.076 -0.923,3.229c0.346,-2.307 -1.845,-2.998 -1.96,-5.535c-0.115,-1.153 0.115,-1.96 0.807,-3.344Zm-3.228,4.151c-0.462,2.191 1.96,4.151 2.075,5.996c0,0.808 -0.461,2.191 -1.038,3.345c0.346,-2.422 -1.845,-3.114 -1.96,-5.766c-0.115,-1.269 0.115,-2.306 0.923,-3.575Z" style="fill:#fff;fill-rule:nonzero;stroke:#fff;stroke-width:0.18px;stroke-linecap:butt;stroke-linejoin:round;stroke-miterlimit:1.41421;"/><g><path d="M100.484,36.302l0,90.692l11.07,-2.872l0,-87.82l-11.07,0Z" style="fill:#fff;stroke:#fff;stroke-width:0.18px;stroke-linecap:butt;stroke-linejoin:round;stroke-miterlimit:1.41421;"/><path d="M119.188,36.302l0,85.849l7.345,-1.903c1.352,-0.323 2.595,-0.837 3.725,-1.476l0,-82.47l-11.07,0Z" style="fill:#fff;stroke:#fff;stroke-width:0.18px;stroke-linecap:butt;stroke-linejoin:round;stroke-miterlimit:1.41421;"/></g></g></g></g><text x="46.855px" y="157.224px" style="font-family:'OpenSans-Bold', 'Open Sans', sans-serif;font-weight:700;font-size:20px;fill:#fff;fill-opacity:0.75;">DRESDEN</text></g></svg>