<svg xmlns="http://www.w3.org/2000/svg" viewBox="0 0 188 201" data-v-401025e2="" class=""><title data-v-401025e2="">ng-cologne</title><g fill="none" fill-rule="evenodd" data-v-401025e2=""><path fill="#DD0031" fill-rule="nonzero" d="M94 .892L.9 34.092l14.2 123.1 78.9 43.7 78.9-43.7 14.2-123.1z" data-v-401025e2=""></path><path fill="#C3002F" fill-rule="nonzero" d="M94 .892v22.2-.1V200.892l78.9-43.7 14.2-123.1z" data-v-401025e2=""></path><path fill="#FFF" d="M63.764 165.397l-14.514.198 3.854-37.949 2.87-.002 1.948-40.986 2.892.226-.053-17.602 2.851.09 9.26-49.525 8.92 49.372 3.773.18-.028 17.148h2.47l1.304 12.178 4.895-1.87 5.424 2.043.712-11.845h2.414l.014-16.804 3.91-.182 7.965-49.46 9.604 48.953 3.016-.08 1.01 16.622h2.813l2.664 40.523h2.905l2.093 37.747-13.722.188v-27.758h-22.264v28.062l-16.736.229v-28.291H63.764v28.595zm39-34.473h22.264v-3.493c0-9.829-9-20.887-11.158-20.887-2.158 0-11.106 11.058-11.106 20.887v3.493zm-39 0h22.264v-3.493c0-9.829-9-20.887-11.158-20.887-2.158 0-11.106 11.058-11.106 20.887v3.493z" data-v-401025e2=""></path></g></svg>
