<?xml version="1.0" encoding="UTF-8"?>
<svg width="400px" height="400px" viewBox="0 0 400 400" version="1.1" xmlns="http://www.w3.org/2000/svg" xmlns:xlink="http://www.w3.org/1999/xlink">
    <!-- Generator: Sketch 49.1 (51147) - http://www.bohemiancoding.com/sketch -->
    <title>AngularJS.DE - Logo mit Domain</title>
    <desc>Created with Sketch.</desc>
    <defs></defs>
    <g id="AngularJS.DE---Logo-mit-Domain" stroke="none" stroke-width="1" fill="none" fill-rule="evenodd">
        <g id="angularjs-de-logo" transform="translate(59.000000, 26.000000)">
            <g id="Angular-Shield">
                <polygon id="Shape" fill="#A6120D" points="282.792246 49.6114858 139.812756 0.471074809 139.812756 296.29801 259.987031 233.326548"></polygon>
                <polygon id="Shape" fill="#DD1B16" points="0.0573516216 51.0071355 21.4909552 234.162868 139.810848 296.29801 139.810848 0.895613273"></polygon>
                <path d="M179.285153,163.353841 L139.812756,180.829858 L98.2093457,180.829858 L78.6524805,227.14356 L42.2764441,227.781186 L139.812756,22.3409001 L179.285153,163.353841 L179.285153,163.353841 Z M175.469552,154.555321 L140.074125,88.2114845 L111.041213,153.413736 L139.810848,153.413736 L175.469552,154.555321 L175.469552,154.555321 Z" id="Shape" fill="#F2F2F2"></path>
                <polygon id="Shape" fill="#B3B3B3" points="139.810848 22.3409001 140.072217 88.2114845 173.01612 153.464312 139.885253 153.464312 139.810848 180.788313 185.622867 180.829858 207.034115 227.788412 241.840031 228.398943"></polygon>
            </g>
            <g id="DE" transform="translate(99.000000, 219.000000)">
                <polygon id="E" fill="#C8C8C8" points="51.7885593 1.15124535 78.4763472 1.15124535 78.4763472 8.48854602 60.5464143 8.48854602 60.5464143 17.0675437 76.8194557 17.0675437 76.8194557 24.4048444 60.5464143 24.4048444 60.5464143 33.3224868 78.7722207 33.3224868 78.7722207 40.6597874 51.7885593 40.6597874"></polygon>
                <path d="M0.321845087,1.15124535 C1.11836962,1.03836324 2.03254883,0.944296222 3.06441015,0.86904148 C4.09627147,0.793786737 5.16432244,0.737346527 6.26859508,0.699719156 C7.37286772,0.662091785 8.44996996,0.63387168 9.49993412,0.615057995 C10.5498983,0.596244309 11.4912313,0.586837608 12.3239615,0.586837608 C15.9445276,0.586837608 19.0491164,1.0853928 21.6378211,2.08251813 C24.2265258,3.07964346 26.3445252,4.46242861 27.9918827,6.23091505 C29.6392403,7.99940149 30.8430604,10.1065027 31.6033793,12.5522818 C32.3636982,14.9980609 32.7438519,17.6695642 32.7438519,20.5668717 C32.7438519,23.2007877 32.3727494,25.7594106 31.6305334,28.2428171 C30.8883174,30.7262236 29.6844972,32.9367984 28.0190368,34.8746081 C26.3535765,36.8124177 24.1812694,38.3645234 21.5020505,39.5309719 C18.8228317,40.6974204 15.528166,41.2806359 11.6179547,41.2806359 C11.0024584,41.2806359 10.1606895,41.2618225 9.09262247,41.2241952 C8.02455549,41.1865678 6.92029941,41.1395343 5.77982111,41.0830932 C4.6393428,41.0266522 3.57129184,40.970212 2.57563618,40.9137709 C1.57998052,40.8573299 0.828724333,40.7914829 0.321845087,40.7162282 L0.321845087,1.15124535 Z M13.1498941,8.8071633 C12.3736854,8.8071633 11.5806144,8.81593152 10.7706575,8.83346823 C9.96070059,8.85100494 9.33636816,8.89484605 8.89764149,8.96499289 L8.89764149,32.8498708 C9.06638251,32.8849442 9.32792718,32.9112489 9.68228334,32.9287856 C10.0366395,32.9463223 10.4078642,32.9638588 10.7959685,32.9813955 C11.1840729,32.9989322 11.5552976,33.0164686 11.9096538,33.0340053 C12.2640099,33.051542 12.5255546,33.0603103 12.6942956,33.0603103 C14.8541807,33.0603103 16.6428088,32.7095813 18.0602334,32.008113 C19.4776581,31.3066446 20.599769,30.377213 21.4266001,29.2197902 C22.2534311,28.0623675 22.8355789,26.747134 23.173061,25.2740505 C23.510543,23.800967 23.6792815,22.2752962 23.6792815,20.6969924 C23.6792815,19.3992759 23.5274169,18.0489696 23.223683,16.6460329 C22.9199492,15.2430962 22.3715491,13.9629357 21.5784662,12.8055129 C20.7853834,11.6480901 19.713894,10.6923538 18.3639658,9.93827536 C17.0140375,9.18419688 15.276031,8.8071633 13.1498941,8.8071633 L13.1498941,8.8071633 Z" id="D" fill="#F2F2F2"></path>
            </g>
        </g>
        <text id="AngularJS.DE" font-family="Arial-BoldMT, Arial" font-size="46" font-weight="bold" fill="#000000">
            <tspan x="47" y="365">AngularJS.DE</tspan>
        </text>
    </g>
</svg>