<svg id="Warstwa_1" data-name="Warstwa 1" xmlns="http://www.w3.org/2000/svg" viewBox="0 0 129.16 133.3"><defs><style>.cls-1{fill:#c3002f;}.cls-2{fill:#dd0031;}</style></defs><title>angular.love - heart only</title><g id="Layer_1" data-name="Layer 1"><g id="Layer_4" data-name="Layer 4"><path class="cls-1" d="M100.3,87.7l2.3-6.3h0L88.2,76.2l-.2-.1c-9.6,10.3-25.2,24.6-25.2,24.6v28.9L112.7,102l1.9-16.8Z"/><path class="cls-1" d="M94.5,38.1c12.3,12.2,1.6,28.6-1.1,32.2a10.47,10.47,0,0,0-.8,1.1l12.1,4.4h0l2.3-6.3,8.4,9.9,6.4-55.3L62.9,3.1V39.7C64.8,36,81.6,25.3,94.5,38.1Z"/></g><g id="Layer_5" data-name="Layer 5"><path class="cls-2" d="M25.6,47l.2.1a19.94,19.94,0,0,1,5.2-9c12.9-12.8,29.7-2,31.7,1.6V3L3.8,24,5.6,39.6Z"/><path class="cls-2" d="M32,70.2c-1.6-2.2-6.3-9.1-6.9-16.9L6.4,46.5,12.8,102l49.9,27.6V100.7C62.8,100.7,39,79.5,32,70.2Z"/></g></g></svg>