<?xml version="1.0" encoding="UTF-8" standalone="no"?><!DOCTYPE svg PUBLIC "-//W3C//DTD SVG 1.1//EN" "http://www.w3.org/Graphics/SVG/1.1/DTD/svg11.dtd"><svg width="100%" height="100%" viewBox="0 0 149 160" version="1.1" xmlns="http://www.w3.org/2000/svg" xmlns:xlink="http://www.w3.org/1999/xlink" xml:space="preserve" xmlns:serif="http://www.serif.com/" style="fill-rule:evenodd;clip-rule:evenodd;stroke-miterlimit:3.8637;"><g id="Layer_1"><path d="M74.52,0l-74.48,26.56l11.36,98.48l63.12,34.96l63.12,-34.96l11.36,-98.48l-74.48,-26.56Z" style="fill:#dd0031;fill-rule:nonzero;"/><path d="M74.52,0l0,17.76l0,-0.08l0,142.32l63.12,-34.96l11.36,-98.48l-74.48,-26.56Z" style="fill:#c3002f;fill-rule:nonzero;"/></g><g id="Ebene_1"><path d="M75.64,18.48l-0.72,0l0,1.84l-2.24,0l0,1.44l2.24,0l0,3.44c-2.8,0.48 -2.64,3.68 -2.64,3.68l3.36,-0.16l3.36,0.16c0,0 0.16,-3.2 -2.64,-3.68l0,-3.44l2.24,0l0,-1.44l-2.24,0l0,-1.84l-0.72,0Z" style="fill:#fff;fill-rule:nonzero;stroke:#000;stroke-width:0.96px;"/><path d="M46.44,31.44l3.12,0l0,4l2.32,0l0,-4l3.04,0l0,4l1.92,0l0,-4l3.12,0l0,4l2.08,0l0,-4l2.96,0l0,7.92l-0.96,0.4l-16.4,0l-1.2,-0.4l0,-7.92Z" style="fill:#fff;fill-rule:nonzero;stroke:#000;stroke-width:0.96px;"/><path d="M104.92,31.44l-3.12,0l0,4l-2.32,0l0,-4l-3.04,0l0,4l-1.92,0l0,-4l-3.12,0l0,4l-2.08,0l0,-4l-2.96,0l0,7.92l0.96,0.4l16.4,0l1.2,-0.4l0,-7.92Z" style="fill:#fff;fill-rule:nonzero;stroke:#000;stroke-width:0.96px;"/><path d="M47.64,39.76l16.32,0l0,34.72l-16.32,0l0,-34.72Z" style="fill:#fff;fill-rule:nonzero;stroke:#000;stroke-width:0.96px;"/><path d="M103.72,39.76l-16.32,0l0,34.72l16.32,0l0,-34.72Z" style="fill:#fff;fill-rule:nonzero;stroke:#000;stroke-width:0.96px;"/><path d="M60.36,26.72l-3.04,0l-1.44,2.64l-1.52,-2.64l-2.96,0l1.52,-2.56l-1.52,-2.56l2.96,0l1.52,-2.56l1.44,2.56l3.04,0l-1.52,2.56l1.52,2.56Z" style="fill:#fff;fill-rule:nonzero;stroke:#000;stroke-width:0.96px;"/><path d="M91,26.72l3.04,0l1.44,2.64l1.52,-2.64l2.96,0l-1.52,-2.56l1.52,-2.56l-2.96,0l-1.52,-2.56l-1.44,2.56l-3.04,0l1.52,2.56l-1.52,2.56Z" style="fill:#fff;fill-rule:nonzero;stroke:#000;stroke-width:0.96px;"/><path d="M75.64,28.24c-3.92,0 -7.92,3.44 -7.92,7.76l15.84,0c0.08,-4.32 -3.92,-7.76 -7.92,-7.76Z" style="fill:#fff;fill-rule:nonzero;stroke:#000;stroke-width:0.96px;"/><path d="M75.64,36l-9.12,0l0,3.44l0.96,0.32l16.4,0l0.96,-0.32l0,-3.44l-9.2,0Z" style="fill:#fff;fill-rule:nonzero;stroke:#000;stroke-width:0.96px;"/><path d="M75.64,39.76l-8,0l0,34.24l16.08,0l0,-34.24l-8.08,0Z" style="fill:#fff;fill-rule:nonzero;stroke:#000;stroke-width:0.96px;"/><path d="M75.64,68.56l-2.48,0l0,4.72l-4.72,0l0,-4.72l-5.12,0l0,4.72l-4.32,0l0,-4.72l-5.04,0l0,4.72l-4.24,0l0,-4.72l-5.84,0l0,8.88l1.36,0.4l60.88,0l0.64,-0.4l0,-8.88l-5.12,0l0,4.72l-4.24,0l0,-4.72l-5.04,0l0,4.72l-4.32,0l0,-4.72l-5.12,0l0,4.72l-4.72,0l0,-4.72l-2.56,0Z" style="fill:#fff;fill-rule:nonzero;stroke:#000;stroke-width:0.96px;"/><path d="M36.68,118.96l77.2,0c0,0 -2.56,-4.48 -5.44,-17.6c-2.64,-12 -1.68,-23.92 -1.68,-23.92l-62.88,0c0,0 0.96,11.92 -1.68,23.92c-2.88,13.12 -5.52,17.6 -5.52,17.6Z" style="fill:#fff;fill-rule:nonzero;stroke:#000;stroke-width:0.8px;"/><path d="M36.68,118.96l77.28,0l0,5.28l-77.28,0l0,-5.28Z" style="fill:#fff;fill-rule:nonzero;stroke:#000;stroke-width:0.8px;"/><path d="M36.92,118.96l76.8,0" style="fill:none;stroke:#000;stroke-width:1.6px;"/><path d="M47.88,40l15.84,0m24,0l15.84,0m-35.76,0l15.6,0" style="fill:none;stroke:#000;stroke-width:1.6px;stroke-linecap:square;"/><path d="M63.08,82.64l25.2,-0.32l0,41.76l-25.2,0l0,-41.44Z" style="fill:#fff;fill-rule:nonzero;"/><g><clipPath id="_clip1"><path d="M63.08,82.64l25.2,-0.32l0,41.76l-25.2,0l0,-41.44Z"/></clipPath><g clip-path="url(#_clip1)"><path d="M83.96,99.36l-2.32,0" style="fill:none;stroke:#000;stroke-width:0.8px;"/></g><clipPath id="_clip2"><path d="M63.08,82.64l25.2,-0.32l0,41.76l-25.2,0l0,-41.44Z"/></clipPath><g clip-path="url(#_clip2)"><path d="M81.48,99.44c0,-1.12 -0.4,-1.12 -0.72,-1.12c-0.32,0 0.08,0.48 0.08,1.12c0,0.64 -0.4,1.2 -0.08,1.2c0.32,0 0.72,-0.16 0.72,-1.2Z" style="fill-rule:nonzero;stroke:#000;stroke-width:0.73px;"/></g><clipPath id="_clip3"><path d="M63.08,82.64l25.2,-0.32l0,41.76l-25.2,0l0,-41.44Z"/></clipPath><g clip-path="url(#_clip3)"><path d="M83.96,117.44l-2.32,0" style="fill:none;stroke:#000;stroke-width:0.8px;"/></g><clipPath id="_clip4"><path d="M63.08,82.64l25.2,-0.32l0,41.76l-25.2,0l0,-41.44Z"/></clipPath><g clip-path="url(#_clip4)"><path d="M81.48,117.52c0,-1.12 -0.4,-1.12 -0.72,-1.12c-0.32,0 0.08,0.48 0.08,1.12c0,0.64 -0.4,1.2 -0.08,1.2c0.32,0 0.72,-0.24 0.72,-1.2Z" style="fill-rule:nonzero;stroke:#000;stroke-width:0.73px;"/></g><clipPath id="_clip5"><path d="M63.08,82.64l25.2,-0.32l0,41.76l-25.2,0l0,-41.44Z"/></clipPath><g clip-path="url(#_clip5)"><path d="M63.56,128.64l0,-30.96c0,-2.4 3.28,-11.12 12.08,-11.12c8.8,0 12.08,8.72 12.08,11.12l0,30.96" style="fill:none;stroke:#000;stroke-width:2px;"/></g><clipPath id="_clip6"><path d="M63.08,82.64l25.2,-0.32l0,41.76l-25.2,0l0,-41.44Z"/></clipPath><g clip-path="url(#_clip6)"><path d="M67.4,128.96l0,-29.84c0,-4.08 3.28,-8.8 8.24,-8.8l0,38.8l0,-38.8c5.04,0 8.24,4.72 8.24,8.8l0,29.84" style="fill:none;stroke:#000;stroke-width:0.96px;"/></g><clipPath id="_clip7"><path d="M63.08,82.64l25.2,-0.32l0,41.76l-25.2,0l0,-41.44Z"/></clipPath><g clip-path="url(#_clip7)"><path d="M67.4,99.36l2.32,0" style="fill:none;stroke:#000;stroke-width:0.8px;"/></g><clipPath id="_clip8"><path d="M63.08,82.64l25.2,-0.32l0,41.76l-25.2,0l0,-41.44Z"/></clipPath><g clip-path="url(#_clip8)"><path d="M69.88,99.44c0,-1.12 0.4,-1.12 0.72,-1.12c0.32,0 -0.08,0.48 -0.08,1.12c0,0.64 0.4,1.2 0.08,1.2c-0.32,-0.08 -0.72,-0.16 -0.72,-1.2Z" style="fill-rule:nonzero;stroke:#000;stroke-width:0.73px;"/></g><clipPath id="_clip9"><path d="M63.08,82.64l25.2,-0.32l0,41.76l-25.2,0l0,-41.44Z"/></clipPath><g clip-path="url(#_clip9)"><path d="M67.4,117.44l2.32,0" style="fill:none;stroke:#000;stroke-width:0.8px;"/></g><clipPath id="_clip10"><path d="M63.08,82.64l25.2,-0.32l0,41.76l-25.2,0l0,-41.44Z"/></clipPath><g clip-path="url(#_clip10)"><path d="M69.88,117.52c0,-1.12 0.4,-1.12 0.72,-1.12c0.32,0 -0.08,0.48 -0.08,1.12c0,0.64 0.4,1.2 0.08,1.2c-0.32,-0.08 -0.72,-0.24 -0.72,-1.2Z" style="fill-rule:nonzero;stroke:#000;stroke-width:0.73px;"/></g></g></g></svg>