<?xml version="1.0" encoding="UTF-8"?>
<svg width="1024px" height="1024px" viewBox="0 0 1024 1024" version="1.1" xmlns="http://www.w3.org/2000/svg" xmlns:xlink="http://www.w3.org/1999/xlink">
    <!-- Generator: Sketch 54.1 (76490) - https://sketchapp.com -->
    <title>angular-de-logo-name-color</title>
    <desc>Created with Sketch.</desc>
    <g id="angular-de-logo-name-color" stroke="none" stroke-width="1" fill="none" fill-rule="evenodd">
        <path d="M195.416,873.68 L235.88,873.68 L216.008,820.976 L195.416,873.68 Z M210.968,811.184 L221.912,811.184 L262.232,914 L251.72,914 L239.192,882.032 L192.392,882.032 L180.008,914 L169.64,914 L210.968,811.184 Z M269.72,839.696 L278.792,839.696 L278.792,852.512 L279.08,852.512 C280.808009,847.999977 283.879978,844.376014 288.296,841.64 C292.712022,838.903986 297.559974,837.536 302.84,837.536 C308.024026,837.536 312.367982,838.207993 315.872,839.552 C319.376018,840.896007 322.183989,842.791988 324.296,845.24 C326.408011,847.688012 327.895996,850.687982 328.76,854.24 C329.624004,857.792018 330.056,861.775978 330.056,866.192 L330.056,914 L320.984,914 L320.984,867.632 C320.984,864.463984 320.696003,861.512014 320.12,858.776 C319.543997,856.039986 318.536007,853.66401 317.096,851.648 C315.655993,849.63199 313.712012,848.048006 311.264,846.896 C308.815988,845.743994 305.768018,845.168 302.12,845.168 C298.471982,845.168 295.232014,845.815994 292.4,847.112 C289.567986,848.408006 287.16801,850.183989 285.2,852.44 C283.23199,854.696011 281.696006,857.383984 280.592,860.504 C279.487994,863.624016 278.888,867.007982 278.792,870.656 L278.792,914 L269.72,914 L269.72,839.696 Z M409.976,907.952 C409.976,913.424027 409.376006,918.367978 408.176,922.784 C406.975994,927.200022 405.080013,930.943985 402.488,934.016 C399.895987,937.088015 396.512021,939.439992 392.336,941.072 C388.159979,942.704008 383.04803,943.52 377,943.52 C373.255981,943.52 369.608018,943.088004 366.056,942.224 C362.503982,941.359996 359.312014,940.016009 356.48,938.192 C353.647986,936.367991 351.296009,934.040014 349.424,931.208 C347.551991,928.375986 346.472001,924.99202 346.184,921.056 L355.256,921.056 C355.736002,923.840014 356.671993,926.167991 358.064,928.04 C359.456007,929.912009 361.13599,931.423994 363.104,932.576 C365.07201,933.728006 367.255988,934.567997 369.656,935.096 C372.056012,935.624003 374.503988,935.888 377,935.888 C385.448042,935.888 391.543981,933.488024 395.288,928.688 C399.032019,923.887976 400.904,916.976045 400.904,907.952 L400.904,897.872 L400.616,897.872 C398.503989,902.480023 395.40802,906.175986 391.328,908.96 C387.24798,911.744014 382.472027,913.136 377,913.136 C371.04797,913.136 365.960021,912.15201 361.736,910.184 C357.511979,908.21599 354.032014,905.504017 351.296,902.048 C348.559986,898.591983 346.568006,894.536023 345.32,889.88 C344.071994,885.223977 343.448,880.256026 343.448,874.976 C343.448,869.887975 344.191993,865.064023 345.68,860.504 C347.168007,855.943977 349.327986,851.960017 352.16,848.552 C354.992014,845.143983 358.495979,842.45601 362.672,840.488 C366.848021,838.51999 371.623973,837.536 377,837.536 C379.784014,837.536 382.399988,837.919996 384.848,838.688 C387.296012,839.456004 389.52799,840.535993 391.544,841.928 C393.56001,843.320007 395.359992,844.927991 396.944,846.752 C398.528008,848.576009 399.751996,850.49599 400.616,852.512 L400.904,852.512 L400.904,839.696 L409.976,839.696 L409.976,907.952 Z M377,905.504 C380.93602,905.504 384.391985,904.664008 387.368,902.984 C390.344015,901.303992 392.83999,899.096014 394.856,896.36 C396.87201,893.623986 398.383995,890.480018 399.392,886.928 C400.400005,883.375982 400.904,879.728019 400.904,875.984 C400.904,872.335982 400.472004,868.688018 399.608,865.04 C398.743996,861.391982 397.35201,858.080015 395.432,855.104 C393.51199,852.127985 391.040015,849.728009 388.016,847.904 C384.991985,846.079991 381.320022,845.168 377,845.168 C372.679978,845.168 368.984015,846.055991 365.912,847.832 C362.839985,849.608009 360.29601,851.935986 358.28,854.816 C356.26399,857.696014 354.800005,860.983982 353.888,864.68 C352.975995,868.376018 352.52,872.143981 352.52,875.984 C352.52,879.728019 352.999995,883.375982 353.96,886.928 C354.920005,890.480018 356.40799,893.623986 358.424,896.36 C360.44001,899.096014 362.983985,901.303992 366.056,902.984 C369.128015,904.664008 372.775979,905.504 377,905.504 Z M487.448,914 L479.096,914 L479.096,900.608 L478.808,900.608 C476.407988,905.600025 472.928023,909.415987 468.368,912.056 C463.807977,914.696013 458.744028,916.016 453.176,916.016 C448.471976,916.016 444.464017,915.368006 441.152,914.072 C437.839983,912.775994 435.15201,910.928012 433.088,908.528 C431.02399,906.127988 429.512005,903.200017 428.552,899.744 C427.591995,896.287983 427.112,892.352022 427.112,887.936 L427.112,839.696 L436.184,839.696 L436.184,888.08 C436.376001,894.800034 437.935985,899.887983 440.864,903.344 C443.792015,906.800017 448.855964,908.528 456.056,908.528 C459.99202,908.528 463.351986,907.688008 466.136,906.008 C468.920014,904.327992 471.223991,902.096014 473.048,899.312 C474.872009,896.527986 476.215996,893.336018 477.08,889.736 C477.944004,886.135982 478.376,882.464019 478.376,878.72 L478.376,839.696 L487.448,839.696 L487.448,914 Z M504.728,811.184 L513.8,811.184 L513.8,914 L504.728,914 L504.728,811.184 Z M530.36,862.448 C530.648001,858.127978 531.559992,854.384016 533.096,851.216 C534.632008,848.047984 536.719987,845.45601 539.36,843.44 C542.000013,841.42399 545.095982,839.936005 548.648,838.976 C552.200018,838.015995 556.135978,837.536 560.456,837.536 C563.720016,837.536 566.983984,837.847997 570.248,838.472 C573.512016,839.096003 576.439987,840.271991 579.032,842 C581.624013,843.728009 583.735992,846.151984 585.368,849.272 C587.000008,852.392016 587.816,856.447975 587.816,861.44 L587.816,900.896 C587.816,904.544018 589.591982,906.368 593.144,906.368 C594.200005,906.368 595.159996,906.176002 596.024,905.792 L596.024,913.424 C594.967995,913.616001 594.032004,913.76 593.216,913.856 C592.399996,913.952 591.368006,914 590.12,914 C587.815988,914 585.968007,913.688003 584.576,913.064 C583.183993,912.439997 582.104004,911.552006 581.336,910.4 C580.567996,909.247994 580.064001,907.880008 579.824,906.296 C579.583999,904.711992 579.464,902.96001 579.464,901.04 L579.176,901.04 C577.543992,903.440012 575.888008,905.575991 574.208,907.448 C572.527992,909.320009 570.65601,910.879994 568.592,912.128 C566.52799,913.376006 564.176013,914.335997 561.536,915.008 C558.895987,915.680003 555.752018,916.016 552.104,916.016 C548.647983,916.016 545.408015,915.608004 542.384,914.792 C539.359985,913.975996 536.720011,912.680009 534.464,910.904 C532.207989,909.127991 530.432006,906.872014 529.136,904.136 C527.839994,901.399986 527.192,898.160019 527.192,894.416 C527.192,889.231974 528.343988,885.176015 530.648,882.248 C532.952012,879.319985 535.999981,877.088008 539.792,875.552 C543.584019,874.015992 547.855976,872.936003 552.608,872.312 C557.360024,871.687997 562.183976,871.088003 567.08,870.512 C569.00001,870.319999 570.679993,870.080001 572.12,869.792 C573.560007,869.503999 574.759995,869.000004 575.72,868.28 C576.680005,867.559996 577.423997,866.576006 577.952,865.328 C578.480003,864.079994 578.744,862.44801 578.744,860.432 C578.744,857.359985 578.240005,854.84001 577.232,852.872 C576.223995,850.90399 574.832009,849.344006 573.056,848.192 C571.279991,847.039994 569.216012,846.248002 566.864,845.816 C564.511988,845.383998 561.992013,845.168 559.304,845.168 C553.543971,845.168 548.840018,846.535986 545.192,849.272 C541.543982,852.008014 539.624001,856.39997 539.432,862.448 L530.36,862.448 Z M578.744,873.392 L578.456,873.392 C577.879997,874.448005 576.776008,875.215998 575.144,875.696 C573.511992,876.176002 572.072006,876.511999 570.824,876.704 C566.983981,877.376003 563.02402,877.975997 558.944,878.504 C554.86398,879.032003 551.144017,879.823995 547.784,880.88 C544.423983,881.936005 541.664011,883.44799 539.504,885.416 C537.343989,887.38401 536.264,890.191982 536.264,893.84 C536.264,896.144012 536.719995,898.183991 537.632,899.96 C538.544005,901.736009 539.767992,903.271994 541.304,904.568 C542.840008,905.864006 544.61599,906.847997 546.632,907.52 C548.64801,908.192003 550.711989,908.528 552.824,908.528 C556.280017,908.528 559.591984,908.000005 562.76,906.944 C565.928016,905.887995 568.687988,904.35201 571.04,902.336 C573.392012,900.31999 575.263993,897.872014 576.656,894.992 C578.048007,892.111986 578.744,888.848018 578.744,885.2 L578.744,873.392 Z M605.96,839.696 L614.312,839.696 L614.312,857.12 L614.6,857.12 C616.904012,851.07197 620.479976,846.416016 625.328,843.152 C630.176024,839.887984 635.959966,838.399999 642.68,838.688 L642.68,847.76 C638.551979,847.567999 634.808017,848.119994 631.448,849.416 C628.087983,850.712006 625.184012,852.559988 622.736,854.96 C620.287988,857.360012 618.392007,860.215983 617.048,863.528 C615.703993,866.840017 615.032,870.46398 615.032,874.4 L615.032,914 L605.96,914 L605.96,839.696 Z M643.4,914 L643.4,898.736 L655.496,898.736 L655.496,914 L643.4,914 Z M679.832,811.184 L715.4,811.184 C731.048078,811.568002 742.83196,815.959958 750.752,824.36 C758.67204,832.760042 762.632,845.503915 762.632,862.592 C762.632,879.680085 758.67204,892.423958 750.752,900.824 C742.83196,909.224042 731.048078,913.615998 715.4,914 L679.832,914 L679.832,811.184 Z M689.624,905.648 L710.504,905.648 C717.896037,905.648 724.255973,904.856008 729.584,903.272 C734.912027,901.687992 739.303983,899.168017 742.76,895.712 C746.216017,892.255983 748.759992,887.792027 750.392,882.32 C752.024008,876.847973 752.84,870.272038 752.84,862.592 C752.84,854.911962 752.024008,848.336027 750.392,842.864 C748.759992,837.391973 746.216017,832.928017 742.76,829.472 C739.303983,826.015983 734.912027,823.496008 729.584,821.912 C724.255973,820.327992 717.896037,819.536 710.504,819.536 L689.624,819.536 L689.624,905.648 Z M778.472,811.184 L849.464,811.184 L849.464,819.536 L788.264,819.536 L788.264,856.688 L845.576,856.688 L845.576,865.04 L788.264,865.04 L788.264,905.648 L850.184,905.648 L850.184,914 L778.472,914 L778.472,811.184 Z" id="Angular.DE-as-Outlines" fill="#000000" fill-rule="nonzero"></path>
        <g id="Angular-Logo" transform="translate(190.000000, 76.000000)">
            <polygon id="Shield-Left" fill="#DD1B16" points="322.046484 0 322.046484 0 322.046484 0 21.7989844 111.884 67.5939844 526.731 322.046484 674 322.046484 674 322.046484 674 576.498984 526.731 622.293984 111.884"></polygon>
            <polygon id="Shield-Right" fill="#A6120D" points="322.046484 0 322.046484 74.814 322.046484 74.477 322.046484 415.858 322.046484 415.858 322.046484 674 322.046484 674 576.498984 526.731 622.293984 111.884"></polygon>
            <path d="M322.820796,50.7816875 L99.4584961,516.7895 L99.4584961,516.7895 L182.739628,516.7895 L182.739628,516.7895 L227.642359,412.51802 L417.231665,412.51802 L462.134395,516.7895 L462.134395,516.7895 L545.415527,516.7895 L545.415527,516.7895 L322.820796,50.7816875 L322.820796,50.7816875 L322.820796,50.7816875 L322.820796,50.7816875 L322.820796,50.7816875 Z M388.064079,348.24108 L257.577512,348.24108 L322.820796,202.18959 L388.064079,348.24108 Z" id="A-Left" fill="#333333" transform="translate(322.437012, 283.785594) scale(-1, 1) translate(-322.437012, -283.785594) "></path>
            <path d="M322.053228,516.7895 L405.33436,516.7895 L450.23709,412.51802 L545.409673,412.51802 L545.415527,50.7816875 L322.053228,516.7895 Z M545.409673,348.24108 L480.172244,348.24108 L545.415527,202.18959 L545.409673,348.24108 Z" id="A-Right" fill="#1A1A1A" transform="translate(433.734378, 283.785594) scale(-1, 1) translate(-433.734378, -283.785594) "></path>
            <path d="M520.326576,282.252074 C515.162049,271.235376 508.060824,262.422017 499.345684,255.811998 C490.630545,249.20198 480.947056,245.642739 470.456611,244.964788 C459.966165,244.286837 449.637111,246.659664 439.308056,251.913782 L401.865234,271.235376 L458.836424,393.605469 L497.086204,373.9449 C507.092475,368.690782 515.162049,361.572301 520.972142,352.250479 C526.782235,343.098146 530.010064,332.759398 530.332847,321.573212 C530.65563,310.387026 528.234758,299.20084 523.070231,288.014655 L520.326576,282.252074 Z M500.921975,332.914991 C499.466352,341.255877 494.614276,347.383875 486.527483,351.639429 L476.823331,356.746094 L440.917969,279.465232 L450.298649,274.528789 C458.547178,270.273235 466.3105,270.103013 473.426878,273.847901 C480.543256,277.592788 486.850955,285.423008 492.349974,297.338559 L494.776012,302.615446 C500.436768,314.530997 502.377598,324.744327 500.921975,332.914991 Z M559.75586,276.126101 L573.484075,305.220725 L612.246094,285.429615 L608.692909,315.200858 L555.879658,342.265625 L498.867188,220.135865 L579.298378,179.03125 L589.957932,201.697992 L537.629207,228.593604 L549.58083,254.305133 L593.834135,231.63839 L604.009165,253.459359 L559.75586,276.126101 Z" id="DE" fill="#FFFFFF"></path>
        </g>
    </g>
</svg>