<?xml version="1.0" encoding="UTF-8"?>
<svg width="344px" height="431px" viewBox="0 0 344 431" version="1.1" xmlns="http://www.w3.org/2000/svg" xmlns:xlink="http://www.w3.org/1999/xlink">
    <!-- Generator: Sketch 51.1 (57501) - http://www.bohemiancoding.com/sketch -->
    <title>with-texticon</title>
    <desc>Created with Sketch.</desc>
    <defs></defs>
    <g id="Page-1" stroke="none" stroke-width="1" fill="none" fill-rule="evenodd">
        <g id="Angular.DE---Logo-mit-Domain" transform="translate(-133.000000, -84.000000)">
            <g id="with-text" transform="translate(133.000000, 84.000000)">
                <path d="M80.187,413.117 C80.187,413.78567 79.4888403,414.48383 78.0925,415.2115 C76.6961597,415.93917 75.3490065,416.303 74.051,416.303 C71.3369864,416.303 69.9210006,414.906681 69.803,412.114 C68.3083259,415.024681 65.9876824,416.48 62.841,416.48 C61.1496582,416.48 59.7533388,415.978505 58.652,414.9755 C57.5506612,413.972495 57,412.684341 57,411.111 C57,407.885651 58.9469805,405.329009 62.841,403.441 C64.17834,402.811664 66.4989835,402.182336 69.803,401.553 L69.803,400.078 C69.803,396.616649 69.6260018,394.335339 69.272,393.234 C68.6426635,391.22799 67.2266777,390.225 65.024,390.225 C63.6473265,390.225 62.496838,390.598663 61.5725,391.346 C60.648162,392.093337 60.186,393.037328 60.186,394.178 C60.186,394.492668 60.4318309,394.65 60.9235,394.65 C61.4151691,394.65 61.8576647,394.885998 62.251,395.358 C62.6443353,395.830002 62.841,396.360997 62.841,396.951 C62.841,398.681675 61.9756753,399.547 60.245,399.547 C59.3403288,399.547 58.593003,399.24217 58.003,398.6325 C57.4129971,398.02283 57.118,397.246005 57.118,396.302 C57.118,394.453324 57.8456594,392.86034 59.301,391.523 C60.9136747,390.067659 63.1556523,389.34 66.027,389.34 C70.3536883,389.34 73.0086618,390.519988 73.992,392.88 C74.3460018,393.784671 74.523,395.57432 74.523,398.249 L74.523,409.282 C74.523,411.091342 74.5426665,412.153332 74.582,412.468 C74.7786677,413.884007 75.3489953,414.592 76.293,414.592 C77.3943388,414.592 78.2989965,414.198671 79.007,413.412 C79.4003353,412.979331 79.6953324,412.763 79.892,412.763 C80.0886677,412.763 80.187,412.880999 80.187,413.117 Z M69.803,406.863 L69.803,402.556 C66.8529853,403.22467 64.7388397,404.099828 63.4605,405.1815 C62.1821603,406.263172 61.543,407.708658 61.543,409.518 C61.543,410.776673 61.9068297,411.809163 62.6345,412.6155 C63.3621703,413.421837 64.2766612,413.825 65.378,413.825 C67.0693418,413.825 68.4263282,412.881009 69.449,410.993 C69.6850012,410.560331 69.803,409.183678 69.803,406.863 Z M106.914,415.418 C106.914,415.732668 106.619003,415.89 106.029,415.89 L105.321,415.89 C104.612996,415.811333 103.649339,415.772 102.43,415.772 C98.5753141,415.772 96.2940035,415.811333 95.586,415.89 L95.173,415.89 C94.6616641,415.89 94.406,415.752335 94.406,415.477 C94.406,415.280332 94.5141656,415.162334 94.7305,415.123 C94.9468344,415.083666 95.7039935,415.044334 97.002,415.005 C97.7493371,414.965666 98.1819994,414.857501 98.3,414.6805 C98.4180006,414.503499 98.477,413.864339 98.477,412.763 L98.477,401.435 C98.477,397.147645 98.3196682,394.591004 98.005,393.765 C97.33633,391.994991 95.99901,391.11 93.993,391.11 C92.0263235,391.11 90.37434,391.975325 89.037,393.706 C88.6436647,394.217336 88.447,394.925329 88.447,395.83 L88.506,414.238 C88.506,414.710002 88.9189959,414.965666 89.745,415.005 L91.515,415.064 C91.9083353,415.064 92.105,415.201665 92.105,415.477 C92.105,415.752335 91.8690024,415.89 91.397,415.89 L90.453,415.89 C89.5876623,415.811333 88.2110094,415.772 86.323,415.772 C85.8903312,415.772 84.9561738,415.791666 83.5205,415.831 C82.0848262,415.870334 81.2490012,415.89 81.013,415.89 L80.659,415.89 C80.0689971,415.89 79.774,415.752335 79.774,415.477 C79.774,415.201665 80.1279965,415.024667 80.836,414.946 L82.311,414.946 C82.9010029,414.946 83.2549994,414.808335 83.373,414.533 L83.55,413.648 L83.55,400.786 C83.55,396.301978 83.5106671,393.824002 83.432,393.352 C83.3533329,392.879998 82.8616712,392.644 81.957,392.644 C81.6816653,392.644 81.20967,392.683333 80.541,392.762 L80.246,392.762 C79.4593294,392.762 79.066,392.624335 79.066,392.349 C79.066,391.994998 79.4789959,391.818 80.305,391.818 C81.4850059,391.778666 82.7633264,391.562335 84.14,391.169 C85.5166736,390.775665 86.4803306,390.323336 87.031,389.812 C87.3850018,389.497332 87.6603324,389.34 87.857,389.34 C88.1323347,389.34 88.27,389.713663 88.27,390.461 L88.27,393.293 C90.3153436,390.657653 92.9506505,389.34 96.176,389.34 C99.0080142,389.34 101.053327,390.382323 102.312,392.467 C103.020004,393.647006 103.374,395.888983 103.374,399.193 L103.374,412.645 C103.374,413.903673 103.432999,414.591999 103.551,414.71 C103.787001,414.946001 104.357329,415.064 105.262,415.064 C105.380001,415.064 105.596332,415.044334 105.911,415.005 L106.324,415.005 C106.717335,415.005 106.914,415.142665 106.914,415.418 Z M136.178,392.821 C136.178,394.630342 135.371675,395.535 133.759,395.535 C133.208331,395.535 132.706836,395.348169 132.2545,394.9745 C131.802164,394.600831 131.576,394.178002 131.576,393.706 C131.576,393.548666 131.634999,393.302835 131.753,392.9685 C131.871001,392.634165 131.93,392.368668 131.93,392.172 C131.93,391.660664 131.654669,391.405 131.104,391.405 C130.631998,391.405 130.179669,391.650831 129.747,392.1425 C129.314331,392.634169 129.098,393.135664 129.098,393.647 C129.098,393.765001 129.196332,394.433661 129.393,395.653 C129.589668,396.872339 129.688,397.796664 129.688,398.426 C129.688,401.10068 128.763676,403.342658 126.915,405.152 C125.066324,406.961342 122.765347,407.866 120.012,407.866 C119.303996,407.866 118.006009,407.571003 116.118,406.981 C115.606664,406.823666 115.272334,406.745 115.115,406.745 C114.288996,406.745 113.54167,407.07933 112.873,407.748 C112.20433,408.41667 111.87,409.144329 111.87,409.931 C111.87,411.976344 113.108988,412.999 115.587,412.999 C116.531005,412.999 118.045323,412.822002 120.13,412.468 C121.742675,412.192665 123.21766,412.055 124.555,412.055 C126.954345,412.055 128.832493,412.684327 130.1895,413.943 C131.546507,415.201673 132.225,416.951989 132.225,419.194 C132.225,422.576684 130.779514,425.388989 127.8885,427.631 C124.997486,429.873011 121.349355,430.994 116.944,430.994 C113.679317,430.994 111.112843,430.335173 109.2445,429.0175 C107.376157,427.699827 106.442,425.880678 106.442,423.56 C106.442,421.317989 107.307325,419.626672 109.038,418.486 C109.903338,417.935331 111.279991,417.443669 113.168,417.011 C110.375319,415.909661 108.979,414.218345 108.979,411.937 C108.979,409.104986 110.788315,407.138339 114.407,406.037 C112.046988,404.188324 110.867,401.749682 110.867,398.721 C110.867,395.888986 111.771658,393.617509 113.581,391.9065 C115.390342,390.195491 117.769985,389.34 120.72,389.34 C122.332675,389.34 123.640495,389.556331 124.6435,389.989 C125.646505,390.421669 126.81666,391.286994 128.154,392.585 C129.412673,390.736324 130.966324,389.812 132.815,389.812 C135.057011,389.812 136.178,390.81499 136.178,392.821 Z M125.204,398.662 C125.204,392.958638 123.630682,390.107 120.484,390.107 C117.415985,390.107 115.882,392.761973 115.882,398.072 C115.882,404.050697 117.514317,407.04 120.779,407.04 C123.729015,407.04 125.204,404.247361 125.204,398.662 Z M129.747,421.259 C129.747,417.994317 127.819686,416.362 123.965,416.362 C122.863661,416.362 121.241177,416.538998 119.0975,416.893 C116.953823,417.247002 115.351005,417.424 114.289,417.424 C112.28299,418.486005 111.28,420.35432 111.28,423.029 C111.28,425.03501 111.997826,426.647661 113.4335,427.867 C114.869174,429.086339 116.766988,429.696 119.127,429.696 C122.116348,429.696 124.633656,428.879841 126.679,427.2475 C128.724344,425.615159 129.747,423.619012 129.747,421.259 Z M164.203,413.766 C164.203,414.041335 163.770338,414.198666 162.905,414.238 C159.836985,414.434668 157.142678,415.103328 154.822,416.244 C154.664666,416.322667 154.527001,416.362 154.409,416.362 C154.172999,416.362 154.055,416.204668 154.055,415.89 L154.114,412.586 C152.304658,415.182013 149.767683,416.48 146.503,416.48 C143.592319,416.48 141.507673,415.634342 140.249,413.943 C139.737664,413.234996 139.432834,412.586003 139.3345,411.996 C139.236166,411.405997 139.187,409.813013 139.187,407.217 L139.187,393.706 C139.187,392.329326 139.108334,391.523001 138.951,391.287 C138.793666,391.050999 138.262671,390.913334 137.358,390.874 L136.591,390.933 C135.528995,391.011667 134.998,390.854335 134.998,390.461 C134.998,390.185665 135.33233,390.048 136.001,390.048 C136.709004,390.048 137.73166,390.087333 139.069,390.166 C139.73767,390.205334 140.130999,390.225 140.249,390.225 C141.625674,390.225 142.903994,390.166001 144.084,390.048 L144.084,406.509 C144.084,409.537682 144.280665,411.543662 144.674,412.527 C145.303336,414.061008 146.581657,414.828 148.509,414.828 C150.593677,414.828 152.127662,413.962675 153.111,412.232 C153.819004,410.973327 154.173,408.967347 154.173,406.214 L154.173,397.069 C154.173,395.73166 154.153334,394.72867 154.114,394.06 L153.996,392.113 C153.956666,391.522997 153.828834,391.178834 153.6125,391.0805 C153.396166,390.982166 152.95367,390.933 152.285,390.933 C150.632992,390.972334 149.807,390.795335 149.807,390.402 C149.807,390.165999 150.219996,390.048 151.046,390.048 L151.577,390.048 C151.891668,390.087334 152.933991,390.107 154.704,390.107 C157.064012,390.107 158.519331,390.087334 159.07,390.048 L159.07,406.509 C159.07,409.341014 159.128999,411.130663 159.247,411.878 C159.365001,412.625337 159.669831,413.057999 160.1615,413.176 C160.653169,413.294001 161.764325,413.353 163.495,413.353 C163.967002,413.353 164.203,413.490665 164.203,413.766 Z M176.947,415.359 C176.947,415.713002 176.691336,415.89 176.18,415.89 L175.472,415.89 C175.393333,415.89 174.35101,415.850667 172.345,415.772 L170.516,415.713 C170.201332,415.713 168.628014,415.771999 165.796,415.89 C165.559999,415.929334 165.324001,415.949 165.088,415.949 C164.497997,415.988334 164.203,415.811335 164.203,415.418 C164.203,415.142665 164.419331,415.005 164.852,415.005 L166.386,415.005 C167.487339,415.005 168.038,414.769002 168.038,414.297 C168.077334,414.060999 168.097,412.527014 168.097,409.695 L168.097,379.664 C168.097,378.365994 168.057667,377.658001 167.979,377.54 C167.860999,377.225332 167.546336,377.068 167.035,377.068 L166.563,377.068 L164.911,377.127 C164.360331,377.127 164.085,376.950002 164.085,376.596 C164.085,376.281332 164.576662,376.104334 165.56,376.065 C167.448009,375.946999 169.198325,375.514337 170.811,374.767 L172.05,374.177 L172.522,374 C172.836668,375.140672 172.974334,376.871322 172.935,379.192 L172.876,383.381 L172.935,412.291 C172.935,413.471006 172.954666,414.169166 172.994,414.3855 C173.033334,414.601834 173.170999,414.749333 173.407,414.828 C173.446334,414.867334 174.173993,414.906666 175.59,414.946 C176.494671,414.946 176.947,415.083665 176.947,415.359 Z M202.789,413.117 C202.789,413.78567 202.09084,414.48383 200.6945,415.2115 C199.29816,415.93917 197.951006,416.303 196.653,416.303 C193.938986,416.303 192.523001,414.906681 192.405,412.114 C190.910326,415.024681 188.589682,416.48 185.443,416.48 C183.751658,416.48 182.355339,415.978505 181.254,414.9755 C180.152661,413.972495 179.602,412.684341 179.602,411.111 C179.602,407.885651 181.548981,405.329009 185.443,403.441 C186.78034,402.811664 189.100983,402.182336 192.405,401.553 L192.405,400.078 C192.405,396.616649 192.228002,394.335339 191.874,393.234 C191.244664,391.22799 189.828678,390.225 187.626,390.225 C186.249326,390.225 185.098838,390.598663 184.1745,391.346 C183.250162,392.093337 182.788,393.037328 182.788,394.178 C182.788,394.492668 183.033831,394.65 183.5255,394.65 C184.017169,394.65 184.459665,394.885998 184.853,395.358 C185.246335,395.830002 185.443,396.360997 185.443,396.951 C185.443,398.681675 184.577675,399.547 182.847,399.547 C181.942329,399.547 181.195003,399.24217 180.605,398.6325 C180.014997,398.02283 179.72,397.246005 179.72,396.302 C179.72,394.453324 180.447659,392.86034 181.903,391.523 C183.515675,390.067659 185.757652,389.34 188.629,389.34 C192.955688,389.34 195.610662,390.519988 196.594,392.88 C196.948002,393.784671 197.125,395.57432 197.125,398.249 L197.125,409.282 C197.125,411.091342 197.144666,412.153332 197.184,412.468 C197.380668,413.884007 197.950995,414.592 198.895,414.592 C199.996339,414.592 200.900996,414.198671 201.609,413.412 C202.002335,412.979331 202.297332,412.763 202.494,412.763 C202.690668,412.763 202.789,412.880999 202.789,413.117 Z M192.405,406.863 L192.405,402.556 C189.454985,403.22467 187.34084,404.099828 186.0625,405.1815 C184.78416,406.263172 184.145,407.708658 184.145,409.518 C184.145,410.776673 184.50883,411.809163 185.2365,412.6155 C185.96417,413.421837 186.878661,413.825 187.98,413.825 C189.671342,413.825 191.028328,412.881009 192.051,410.993 C192.287001,410.560331 192.405,409.183678 192.405,406.863 Z M220.784,393.352 C220.784,394.256671 220.508669,395.003997 219.958,395.594 C219.407331,396.184003 218.699338,396.479 217.834,396.479 C217.125996,396.479 216.536002,396.272502 216.064,395.8595 C215.591998,395.446498 215.356,394.925336 215.356,394.296 C215.356,393.745331 215.532998,393.273335 215.887,392.88 C216.241002,392.486665 216.418,392.211334 216.418,392.054 C216.418,391.463997 215.985338,391.169 215.12,391.169 C214.018661,391.169 213.074671,391.857326 212.288,393.234 C211.383329,394.846675 210.931,397.835978 210.931,402.202 L210.931,413.884 C210.931,414.356002 211.098165,414.650999 211.4325,414.769 C211.766835,414.887001 212.779658,414.965666 214.471,415.005 C214.903669,415.083667 215.12,415.240999 215.12,415.477 C215.12,415.752335 214.864336,415.89 214.353,415.89 C213.448329,415.89 212.602671,415.870334 211.816,415.831 C211.029329,415.791666 209.534678,415.772 207.332,415.772 C206.191328,415.772 205.365336,415.791666 204.854,415.831 C204.342664,415.870334 203.693671,415.89 202.907,415.89 C202.277664,415.89 201.963,415.752335 201.963,415.477 C201.963,415.201665 202.218664,415.064 202.73,415.064 L203.556,415.064 C204.89334,415.064 205.679999,414.906668 205.916,414.592 C205.994667,414.434666 206.034,413.707006 206.034,412.409 L206.034,396.184 C206.034,394.020656 205.709503,392.771835 205.0605,392.4375 C204.411497,392.103165 203.379007,391.916334 201.963,391.877 C201.490998,391.877 201.255,391.739335 201.255,391.464 C201.255,391.188665 201.451665,391.051 201.845,391.051 L202.258,391.051 C202.848003,391.051 203.437997,391.0805 204.028,391.1395 C204.618003,391.1985 204.873667,391.228 204.795,391.228 C206.250341,391.228 207.862991,390.815004 209.633,389.989 L210.4,389.635 L210.872,389.458 C211.029334,390.402005 211.108,391.345995 211.108,392.29 L211.108,393.47 C212.366673,390.716653 214.136655,389.34 216.418,389.34 C217.676673,389.34 218.718996,389.723496 219.545,390.4905 C220.371004,391.257504 220.784,392.211328 220.784,393.352 Z M231.581,412.999 C231.581,413.864338 231.27617,414.60183 230.6665,415.2115 C230.05683,415.82117 229.319338,416.126 228.454,416.126 C227.549329,416.126 226.79217,415.82117 226.1825,415.2115 C225.57283,414.60183 225.268,413.844671 225.268,412.94 C225.268,412.074662 225.57283,411.33717 226.1825,410.7275 C226.79217,410.11783 227.549329,409.813 228.454,409.813 C229.319338,409.813 230.05683,410.11783 230.6665,410.7275 C231.27617,411.33717 231.581,412.094329 231.581,412.999 Z M264.326,414.592 C264.326,414.867335 264.050669,415.005 263.5,415.005 L263.205,415.005 C262.890332,415.005 262.556002,414.985334 262.202,414.946 L261.73,414.946 C259.802657,414.946 258.17034,415.339329 256.833,416.126 C256.282331,416.440668 255.948001,416.598 255.83,416.598 C255.475998,416.598 255.299,416.362002 255.299,415.89 L255.358,414.061 C253.666658,415.673675 251.660678,416.48 249.34,416.48 C246.035983,416.48 243.312177,415.211513 241.1685,412.6745 C239.024823,410.137487 237.953,406.902353 237.953,402.969 C237.953,398.917646 239.024823,395.633346 241.1685,393.116 C243.312177,390.598654 246.114649,389.34 249.576,389.34 C252.25068,389.34 254.25666,390.303657 255.594,392.231 L255.594,383.027 C255.594,380.037652 255.456335,378.189004 255.181,377.481 C254.944999,376.890997 254.591002,376.615666 254.119,376.655 C252.978328,376.773001 252.290001,376.832 252.054,376.832 C251.542664,376.832 251.287,376.655002 251.287,376.301 C251.287,375.946998 251.503331,375.77 251.936,375.77 L254.06,375.829 C255.240006,375.868334 257.049321,375.317672 259.488,374.177 C259.645334,374.098333 259.782999,374.059 259.901,374.059 C260.294335,374.059 260.491,374.530995 260.491,375.475 L260.491,376.714 C260.451666,377.343336 260.432,377.893998 260.432,378.366 L260.432,398.721 C260.432,408.043047 260.530332,413.03833 260.727,413.707 C260.805667,413.982335 261.729991,414.12 263.5,414.12 C264.050669,414.12 264.326,414.277332 264.326,414.592 Z M255.594,399.783 C255.594,396.006981 255.181004,393.588005 254.355,392.526 C253.292995,391.18866 251.936008,390.52 250.284,390.52 C248.159989,390.52 246.468673,391.621322 245.21,393.824 C243.951327,396.026678 243.322,398.976648 243.322,402.674 C243.322,406.214018 243.872661,409.242654 244.974,411.76 C245.446002,412.822005 246.144162,413.697163 247.0685,414.3855 C247.992838,415.073837 248.946662,415.418 249.93,415.418 C251.149339,415.418 252.250662,415.05417 253.234,414.3265 C254.217338,413.59883 254.856499,412.723672 255.1515,411.701 C255.446501,410.678328 255.594,406.705701 255.594,399.783 Z M288.044,409.341 C288.044,409.734335 287.73917,410.432495 287.1295,411.4355 C286.51983,412.438505 285.900336,413.254664 285.271,413.884 C283.579658,415.614675 281.318014,416.48 278.486,416.48 C274.945982,416.48 271.986179,415.201679 269.6065,412.645 C267.226821,410.088321 266.037,406.922019 266.037,403.146 C266.037,399.212647 267.167822,395.928347 269.4295,393.293 C271.691178,390.657653 274.513316,389.34 277.896,389.34 C280.688681,389.34 283.028991,390.156159 284.917,391.7885 C286.805009,393.420841 287.807999,395.515321 287.926,398.072 C286.667327,398.268668 284.995677,398.347334 282.911,398.308 L278.781,398.249 C278.505665,398.249 276.145689,398.307999 271.701,398.426 C271.504332,399.724006 271.406,400.962994 271.406,402.143 C271.406,406.115687 272.163159,409.173823 273.6775,411.3175 C275.191841,413.461177 277.325653,414.533 280.079,414.533 C281.652341,414.533 282.910995,414.179004 283.855,413.471 C284.799005,412.762996 285.821661,411.40601 286.923,409.4 C287.080334,409.085332 287.296665,408.928 287.572,408.928 C287.886668,408.928 288.044,409.065665 288.044,409.341 Z M282.911,397.305 C282.753666,392.584976 281.062349,390.225 277.837,390.225 C274.650984,390.225 272.664671,392.584976 271.878,397.305 L282.911,397.305 Z" id="angular.de" fill="#000000"></path>
                <g id="angularjs-de-logo" fill-rule="nonzero">
                    <g id="Layer_1">
                        <g id="AngularJS.DE">
                            <g id="angularjs-de-logo" transform="translate(0.122693, 0.061421)">
                                <polygon id="Shape" fill="#A6120D" points="343.181954 59.5660843 169.645747 0.359915917 169.645747 359.556001 315.502435 282.98389"></polygon>
                                <polygon id="Shape_1_" fill="#DD1B16" points="0.0637573174 61.2756849 26.0357738 283.973659 169.645747 359.556001 169.645747 0.359915917"></polygon>
                            </g>
                        </g>
                    </g>
                    <g id="Layer_2" transform="translate(51.000000, 26.000000)">
                        <path d="M166.685146,171.825101 L118.687749,193.055847 L68.0788604,193.055847 L44.2152387,249.371299 L0,250.180946 L118.597697,0.44980393 L166.685146,171.825101 Z M162.002473,161.119768 L118.957903,80.5149034 L83.6577531,159.770356 L118.687749,159.770356 L162.002473,161.119768 Z" id="Shape_2_" fill="#333333"></path>
                        <polygon id="Shape_3_" fill="#1A1A1A" points="118.597697 0.44980393 118.957903 80.5149034 159.030777 159.860317 118.687749 159.860317 118.597697 193.055847 174.339516 193.145807 200.364371 250.180946 242.68853 250.900632"></polygon>
                    </g>
                    <g id="Layer_3" transform="translate(214.000000, 96.000000)" fill="#FFFFFF">
                        <path d="M66.2946895,54.6356159 C63.4201231,48.7671227 59.4675941,44.0723281 54.6167632,40.5512322 C49.7659323,37.0301363 44.3761201,35.1341616 38.5371569,34.7730235 C32.6981938,34.4118855 26.9490608,35.6758686 21.1999278,38.4746885 L0.35932081,48.7671227 L32.0693823,113.952539 L53.3591404,103.479536 C58.9286129,100.680716 63.4201231,96.8887669 66.6540103,91.9231188 C69.8878976,87.0477552 71.6845017,81.5404 71.8641621,75.5816223 C72.0438225,69.6228446 70.6963695,63.6640669 67.821803,57.7052892 L66.2946895,54.6356159 Z M55.1557444,81.5404 C54.3472726,85.9643411 51.6523665,89.2145835 47.1608564,91.4716962 L41.7710442,94.1802315 L21.8287392,53.1910637 L27.038891,50.5728129 C31.6202313,48.3157001 35.932081,48.2254156 39.88461,50.2116749 C43.8371389,52.1979341 47.3405168,56.3510216 50.3947437,62.6709373 L51.7421967,65.4697572 C54.8862538,71.7896729 55.9642162,77.2067435 55.1557444,81.5404 Z" id="Shape"></path>
                        <polygon id="Shape" points="88.4827496 51.836796 113.096225 39.7386716 107.436922 28.0919697 82.8234468 40.1900942 76.1760118 26.4668486 105.280997 12.1116114 99.3522041 0.0134869332 54.6167632 21.952623 86.3268247 87.1380397 115.701301 72.692518 117.677565 56.8024441 96.1183168 67.3657319"></polygon>
                    </g>
                </g>
            </g>
        </g>
    </g>
</svg>