<?xml version="1.0" encoding="utf-8"?>
<!-- Generator: Adobe Illustrator 22.1.0, SVG Export Plug-In . SVG Version: 6.00 Build 0)  -->
<svg version="1.1" id="Livello_1" xmlns="http://www.w3.org/2000/svg" xmlns:xlink="http://www.w3.org/1999/xlink" x="0px" y="0px"
	 viewBox="0 0 403 220" style="enable-background:new 0 0 403 220;" xml:space="preserve">
<style type="text/css">
	.st0{fill:#DD0031;}
	.st1{fill:#F9F9F9;}
	.st2{fill:none;stroke:#DD0031;stroke-width:5;stroke-miterlimit:10;}
</style>
<path class="st0" d="M0.8,108.2l43.6,40.2v-37.1h12.2v64.6l-43.5-40.2v37.2H0.8V108.2z M100,149.9v-10h30.4
	c0.2,4.7-0.4,9.1-1.7,13.2c-1.3,4.2-3.2,7.8-5.9,11c-2.6,3.2-5.9,5.6-9.8,7.5c-3.9,1.8-8.4,2.7-13.5,2.7c-6.4,0-12.1-1.4-17-4.1
	c-5-2.7-8.8-6.5-11.7-11.4c-2.8-4.9-4.2-10.5-4.2-16.8c0-6.4,1.4-12,4.3-16.8c2.9-4.8,6.8-8.5,11.8-11.2c5-2.7,10.7-4,17.1-4
	c6.3,0,11.7,1.3,16.2,3.8c4.5,2.6,8.2,6,11,10.2l-10.8,6.3c-1.6-2.6-3.7-4.8-6.4-6.5c-2.7-1.7-6-2.6-10-2.6c-3.7,0-7.1,0.8-10.1,2.5
	c-3,1.7-5.5,4-7.3,7.1c-1.8,3.1-2.7,6.7-2.7,11c0,4.3,0.9,8,2.6,11.1c1.8,3.2,4.1,5.6,7.2,7.3c3,1.7,6.4,2.6,10.3,2.6
	c5,0,9-1.3,11.8-3.8c2.8-2.5,4.8-5.7,5.9-9.4L100,149.9L100,149.9z M177.9,150.4v22.3h-12.7v-61.4h7.7h4.9h8.1c4.9,0,9,0.8,12.5,2.5
	c3.4,1.6,6.1,3.9,7.9,6.9c1.8,3,2.7,6.4,2.7,10.3c0,4.3-1.1,8.1-3.4,11.2c-2.2,3.1-5.5,5.4-9.6,6.8l16.7,23.8h-15l-14.4-22.3H177.9z
	 M177.9,140.4h7.3c3.3,0,5.9-0.8,7.8-2.4c1.9-1.6,2.9-3.9,2.9-6.7c0-2.9-1-5.2-2.9-6.8s-4.6-2.4-7.8-2.4h-7.3V140.4z M216.3,142
	c0-4.7,0.8-9,2.5-12.9s3.9-7.3,6.9-10.1c2.9-2.8,6.4-5,10.3-6.6c4-1.6,8.3-2.4,12.9-2.4c4.7,0,9,0.8,12.9,2.4s7.4,3.8,10.3,6.6
	c3,2.8,5.2,6.2,6.9,10.1c1.6,3.9,2.4,8.2,2.4,12.9c0,4.6-0.8,8.9-2.4,12.9c-1.6,4-3.9,7.4-6.8,10.3c-2.9,2.9-6.3,5.1-10.3,6.7
	c-4,1.6-8.3,2.4-13.1,2.4c-4.8,0-9.1-0.8-13.1-2.4c-4-1.6-7.4-3.9-10.3-6.7c-2.9-2.9-5.2-6.3-6.8-10.3
	C217.1,150.9,216.3,146.6,216.3,142z M229.6,142c0,3.9,0.8,7.4,2.5,10.5c1.6,3,3.9,5.4,6.8,7.2c2.9,1.7,6.2,2.6,9.9,2.6
	c3.8,0,7.1-0.9,9.9-2.6c2.9-1.7,5.1-4.1,6.8-7.2c1.6-3,2.5-6.5,2.5-10.5c0-3.9-0.8-7.4-2.4-10.5c-1.6-3-3.8-5.4-6.7-7.2
	c-2.9-1.7-6.2-2.6-10.1-2.6c-3.8,0-7.1,0.9-9.9,2.6c-2.9,1.7-5.1,4.1-6.8,7.2C230.5,134.6,229.6,138.1,229.6,142z M303,138.8
	l-4,33.9h-13.2l9.2-64.5l25.8,39.6l25.7-39.6l9.3,64.5h-13.4l-4-33.9L320.8,167L303,138.8z M376.1,145.3V162H403v10.7h-26.9h-4.2
	h-8.1v-61.4h8.1h4.2H403V122h-26.9v12.9h25.2v10.5L376.1,145.3L376.1,145.3z"/>
<path class="st0" d="M202.1,0l-0.7,0.2l-40.8,14.5l-1.5,0.5l0.2,1.6l6.2,53.8l0.1,1l0.9,0.5l34.5,19.1l0.9,0.5l1-0.5l34.5-19.1
	l0.9-0.5l0.1-1l6.2-53.8l0.2-1.6l-1.5-0.5L202.8,0.2L202.1,0z"/>
<path class="st1" d="M209.2,49.9c0.3,0,0.5,0.1,0.7,0.3c0.2,0.2,0.3,0.4,0.3,0.7h1.9c0-0.8-0.3-1.5-0.8-2c-0.5-0.5-1.3-0.8-2-0.8
	c-1.6,0-2.8,1.3-2.8,2.8v1.9h1.9v-1.9C208.2,50.3,208.7,49.9,209.2,49.9z"/>
<path class="st1" d="M187.7,18.6h-13.9v1.9h15L187.7,18.6z"/>
<path class="st1" d="M206.5,35.7h-5.1l0.1-0.1l-2.7-4.7h-2.2l2.7,4.7h-8.6v-1.8c0-0.3,0.1-0.5,0.3-0.7c0.2-0.2,0.4-0.3,0.7-0.3
	c0.3,0,0.5,0.1,0.7,0.3c0.2,0.2,0.3,0.4,0.3,0.7h1.9c0-0.8-0.3-1.5-0.8-2c-0.5-0.5-1.3-0.8-2-0.8c-0.8,0-1.5,0.3-2,0.8
	c-0.5,0.5-0.8,1.3-0.8,2v1.8H182v-1.8c0-0.5,0.4-0.9,0.9-0.9c0.5,0,0.9,0.4,0.9,0.9h1.9c0-1.6-1.3-2.8-2.8-2.8
	c-1.6,0-2.8,1.3-2.8,2.8v1.8h-2.6v-4.7h-1.9v4.7h-1.8v1.9h33.9L206.5,35.7z"/>
<path class="st1" d="M197.2,27.1h-5l-2.7-4.6h-2.2l2.7,4.6h-12.5v-4.6h-1.9v4.6h-1.8v1.9h24.5L197.2,27.1z"/>
<path class="st1" d="M215.1,44.2h-4.3l0.1,0l-2.7-4.7h-2.2l2.7,4.7h-9.2v-1.9c0-0.3,0.1-0.5,0.3-0.7c0.2-0.2,0.4-0.3,0.7-0.3
	c0.3,0,0.5,0.1,0.7,0.3c0.2,0.2,0.3,0.4,0.3,0.7h1.9c0-0.8-0.3-1.5-0.8-2c-0.5-0.5-1.3-0.8-2-0.8c-0.8,0-1.5,0.3-2,0.8
	c-0.5,0.5-0.8,1.3-0.8,2v1.9h-6.8v-1.9c0-0.3,0.1-0.5,0.3-0.7c0.2-0.2,0.4-0.3,0.7-0.3c0.5,0,0.9,0.4,0.9,0.9h1.9
	c0-1.6-1.3-2.8-2.8-2.8c-0.8,0-1.5,0.3-2,0.8c-0.5,0.5-0.8,1.3-0.8,2v1.9H182v-1.9c0-0.5,0.4-0.9,0.9-0.9c0.5,0,0.9,0.4,0.9,0.9h1.9
	c0-1.6-1.3-2.8-2.8-2.8c-1.6,0-2.8,1.3-2.8,2.8v1.9h-2.6v-4.6h-1.9v4.6h-1.8v1.9h42.5L215.1,44.2z"/>
<path class="st1" d="M231.2,37.6v-1.9h-22.4l1.1,1.9H231.2z"/>
<path class="st1" d="M227.4,39.5v4.6h-10.1l1.1,1.9h12.7v-1.9h-1.8v-4.6H227.4z"/>
<path class="st1" d="M229.4,52.7V48h-1.9v4.6h-7.8l-2.6-4.5h-2.2l2.6,4.5h-18v-1.9c0-0.3,0.1-0.5,0.3-0.7c0.2-0.2,0.4-0.3,0.7-0.3
	c0.3,0,0.5,0.1,0.7,0.3c0.2,0.2,0.3,0.4,0.3,0.7h1.9c0-0.8-0.3-1.5-0.8-2c-0.5-0.5-1.3-0.8-2-0.8c-0.8,0-1.5,0.3-2,0.8
	c-0.5,0.5-0.8,1.3-0.8,2v1.9h-6.8v-1.9c0-0.3,0.1-0.5,0.3-0.7c0.2-0.2,0.4-0.3,0.7-0.3c0.5,0,0.9,0.4,0.9,0.9h1.9
	c0-1.6-1.3-2.8-2.8-2.8c-0.8,0-1.5,0.3-2,0.8c-0.5,0.5-0.8,1.3-0.8,2v1.9H182v-1.9c0-0.5,0.4-0.9,0.9-0.9c0.3,0,0.5,0.1,0.7,0.3
	c0.2,0.2,0.3,0.4,0.3,0.7h1.9c0-0.8-0.3-1.5-0.8-2c-0.5-0.5-1.3-0.8-2-0.8c-1.6,0-2.8,1.3-2.8,2.8v1.9h-2.6v-4.5h-1.9v4.5h-8
	l0.2,1.9h68.8l0.2-1.9H229.4z"/>
<path class="st1" d="M186.9,57.5v21.4l1.9,1.1V57.5H186.9z"/>
<path class="st1" d="M191.7,57.5v24l1.9,1.1V57.5H191.7z"/>
<path class="st1" d="M182.2,57.5v18.8l1.9,1.1V57.5H182.2z"/>
<path class="st1" d="M177.5,57.5v16.2l1.9,1.1V57.5H177.5z"/>
<path class="st1" d="M168.1,57.5l1.4,11.7l0.5,0.3v-12H168.1z"/>
<path class="st1" d="M201.2,57.5v29.3l1,0.5l0.9-0.5V57.5H201.2z"/>
<path class="st1" d="M172.7,57.5V71l1.9,1.1V57.5H172.7z"/>
<path class="st1" d="M196.4,57.5v26.6l1.9,1.1V57.5H196.4z"/>
<path class="st1" d="M229.6,57.5v14.6l1.9-1.1V57.5H229.6z"/>
<path class="st1" d="M205.9,57.5v27.7l1.9-1.1V57.5H205.9z"/>
<path class="st1" d="M224.9,57.5v17.2l1.9-1.1V57.5H224.9z"/>
<path class="st1" d="M234.4,57.5v12l0.5-0.3l1.4-11.7H234.4z"/>
<path class="st1" d="M220.1,57.5v19.8l1.9-1.1V57.5H220.1z"/>
<path class="st1" d="M210.7,57.5v25.1l1.9-1.1v-24H210.7z"/>
<path class="st1" d="M215.4,57.5v22.5l1.9-1.1V57.5H215.4z"/>
<path class="st0" d="M147.4,203.8l-1.8,15.9H141l3.6-27.4l10.7,17.7l10.7-17.7l3.6,27.4H165l-1.8-15.8l-8,13.4L147.4,203.8z"/>
<path class="st0" d="M183.9,203.8l-1.8,15.9h-4.6l3.6-27.4l10.7,17.7l10.7-17.7l3.6,27.4h-4.6l-1.8-15.8l-7.9,13.4L183.9,203.8z"/>
<path class="st0" d="M229.2,193.6h5.4l-7.9,12.5l8.5,13.5h-5.4l-5.6-10l-5.8,10h-5.3l8.7-13.5l-7.8-12.5h5.4l4.9,8.8L229.2,193.6z"
	/>
<path class="st0" d="M256.9,193.6h5.4l-7.9,12.5l8.5,13.5h-5.4l-5.6-10l-5.8,10h-5.3l8.7-13.5l-7.8-12.5h5.4l4.9,8.8L256.9,193.6z"
	/>
<line class="st2" x1="270.4" y1="193.6" x2="270.4" y2="219.6"/>
</svg>
