<?xml version="1.0" encoding="UTF-8"?>
<svg width="114px" height="24px" viewBox="0 0 114 24" version="1.1" xmlns="http://www.w3.org/2000/svg" xmlns:xlink="http://www.w3.org/1999/xlink">
    <!-- Generator: Sketch 55.1 (78136) - https://sketchapp.com -->
    <title>bIT-Logo_mit_Claim_Sonderfarben</title>
    <desc>Created with Sketch.</desc>
    <defs>
        <polygon id="path-1" points="0.731 0.43 5.724 0.43 5.724 3.94 0.731 3.94"></polygon>
    </defs>
    <g id="bIT-Logo_mit_Claim_Sonderfarben" stroke="none" stroke-width="1" fill="none" fill-rule="evenodd">
        <path d="M36.653,1.247 L38.08,1.247 L38.08,5.73 L38.114,5.73 C38.584,4.773 39.692,4.354 40.884,4.354 C43.554,4.354 44.88,6.469 44.88,8.92 C44.88,11.371 43.57,13.437 40.918,13.437 C40.028,13.437 38.752,13.102 38.114,12.076 L38.08,12.076 L38.08,13.235 L36.653,13.235 L36.653,1.247 Z M40.683,5.612 C38.769,5.612 38.03,7.258 38.03,8.887 C38.03,10.6 38.802,12.178 40.767,12.178 C42.714,12.178 43.369,10.516 43.369,8.819 C43.369,7.191 42.53,5.612 40.683,5.612 L40.683,5.612 Z" id="Fill-1" fill="#006095"></path>
        <path d="M46.509,4.555 L47.852,4.555 L47.852,6.385 L47.886,6.385 C48.574,4.991 49.531,4.303 51.076,4.354 L51.076,5.864 C48.775,5.864 47.936,7.174 47.936,9.373 L47.936,13.235 L46.509,13.235 L46.509,4.555" id="Fill-2" fill="#006095"></path>
        <path d="M52.234,2.993 L53.661,2.993 L53.661,1.247 L52.234,1.247 L52.234,2.993 Z M52.234,13.236 L53.66,13.236 L53.66,4.555 L52.234,4.555 L52.234,13.236 Z" id="Fill-3" fill="#006095"></path>
        <path d="M63.636,13.235 L62.208,13.235 L62.208,12.061 L62.175,12.061 C61.704,13.018 60.597,13.437 59.403,13.437 C56.735,13.437 55.407,11.321 55.407,8.87 C55.407,6.418 56.718,4.354 59.37,4.354 C60.261,4.354 61.536,4.689 62.175,5.713 L62.208,5.713 L62.208,1.246 L63.636,1.246 L63.636,13.235 Z M59.606,12.178 C61.521,12.178 62.259,10.532 62.259,8.903 C62.259,7.191 61.485,5.612 59.523,5.612 C57.573,5.612 56.919,7.275 56.919,8.971 C56.919,10.6 57.759,12.178 59.606,12.178 L59.606,12.178 Z" id="Fill-4" fill="#006095"></path>
        <path d="M73.323,12.497 C73.323,15.318 72.03,16.762 69.294,16.762 C67.665,16.762 65.784,16.108 65.7,14.209 L67.128,14.209 C67.194,15.25 68.437,15.62 69.378,15.62 C71.241,15.62 71.98,14.276 71.98,12.328 L71.98,11.758 L71.946,11.758 C71.476,12.816 70.335,13.336 69.243,13.336 C66.657,13.336 65.364,11.305 65.364,8.937 C65.364,6.889 66.372,4.354 69.378,4.354 C70.47,4.354 71.442,4.84 71.964,5.797 L71.946,5.797 L71.98,5.797 L71.98,4.555 L73.323,4.555 L73.323,12.497 Z M71.913,8.719 C71.913,7.191 71.241,5.612 69.444,5.612 C67.614,5.612 66.876,7.106 66.876,8.77 C66.876,10.33 67.446,12.076 69.327,12.076 C71.208,12.076 71.913,10.348 71.913,8.719 L71.913,8.719 Z" id="Fill-5" fill="#006095"></path>
        <path d="M75.556,2.993 L76.984,2.993 L76.984,1.247 L75.556,1.247 L75.556,2.993 Z M75.556,13.236 L76.984,13.236 L76.984,4.555 L75.556,4.555 L75.556,13.236 Z" id="Fill-6" fill="#006095"></path>
        <path d="M79.2,4.555 L80.544,4.555 L80.544,5.932 L80.577,5.932 C81.181,4.857 82.155,4.354 83.397,4.354 C85.681,4.354 86.386,5.662 86.386,7.526 L86.386,13.235 L84.958,13.235 L84.958,7.358 C84.958,6.301 84.288,5.612 83.196,5.612 C81.466,5.612 80.626,6.772 80.626,8.332 L80.626,13.235 L79.2,13.235 L79.2,4.555" id="Fill-7" fill="#006095"></path>
        <path d="M96.024,12.497 C96.024,15.318 94.731,16.762 91.993,16.762 C90.366,16.762 88.485,16.108 88.401,14.209 L89.829,14.209 C89.896,15.25 91.138,15.62 92.079,15.62 C93.942,15.62 94.681,14.276 94.681,12.328 L94.681,11.758 L94.647,11.758 C94.177,12.816 93.036,13.336 91.944,13.336 C89.358,13.336 88.065,11.305 88.065,8.937 C88.065,6.889 89.073,4.354 92.079,4.354 C93.169,4.354 94.144,4.84 94.663,5.797 L94.647,5.797 L94.681,5.797 L94.681,4.555 L96.024,4.555 L96.024,12.497 Z M94.614,8.719 C94.614,7.191 93.942,5.612 92.146,5.612 C90.315,5.612 89.577,7.106 89.577,8.77 C89.577,10.33 90.147,12.076 92.028,12.076 C93.909,12.076 94.614,10.348 94.614,8.719 L94.614,8.719 Z" id="Fill-8" fill="#006095"></path>
        <polygon id="Fill-9" fill="#D02139" points="100.794 13.235 102.39 13.235 102.39 1.246 100.794 1.246"></polygon>
        <polyline id="Fill-10" fill="#D02139" points="107.796 2.59 103.8 2.59 103.8 1.246 113.386 1.246 113.386 2.59 109.39 2.59 109.39 13.235 107.796 13.235 107.796 2.59"></polyline>
        <polyline id="Fill-11" fill="#6F8F9D" points="36.647 19.544 37.132 19.544 38.328 22.576 39.52 19.544 40.004 19.544 40.004 23.002 39.674 23.002 39.674 20.014 39.665 20.014 38.483 23.002 38.173 23.002 36.986 20.014 36.977 20.014 36.977 23.002 36.647 23.002 36.647 19.544"></polyline>
        <path d="M41.089,21.835 C41.093,22.28 41.326,22.818 41.912,22.818 C42.358,22.818 42.6,22.557 42.696,22.179 L43.002,22.179 C42.871,22.745 42.542,23.074 41.912,23.074 C41.118,23.074 40.784,22.465 40.784,21.752 C40.784,21.094 41.118,20.43 41.912,20.43 C42.716,20.43 43.036,21.133 43.011,21.835 L41.089,21.835 Z M42.706,21.578 C42.692,21.118 42.406,20.687 41.912,20.687 C41.413,20.687 41.137,21.123 41.089,21.578 L42.706,21.578 L42.706,21.578 Z" id="Fill-12" fill="#6F8F9D"></path>
        <path d="M43.694,20.503 L44,20.503 L44,20.934 L44.009,20.934 C44.121,20.634 44.455,20.43 44.808,20.43 C45.51,20.43 45.723,20.799 45.723,21.395 L45.723,23.002 L45.419,23.002 L45.419,21.442 C45.419,21.012 45.278,20.687 44.784,20.687 C44.3,20.687 44.009,21.055 44,21.545 L44,23.002 L43.694,23.002 L43.694,20.503" id="Fill-13" fill="#6F8F9D"></path>
        <path d="M48.072,21.234 C48.058,20.857 47.768,20.687 47.419,20.687 C47.147,20.687 46.828,20.793 46.828,21.118 C46.828,21.389 47.138,21.486 47.346,21.539 L47.753,21.631 C48.102,21.685 48.465,21.889 48.465,22.324 C48.465,22.866 47.927,23.074 47.462,23.074 C46.881,23.074 46.484,22.803 46.436,22.193 L46.741,22.193 C46.765,22.606 47.07,22.818 47.477,22.818 C47.763,22.818 48.16,22.692 48.16,22.344 C48.16,22.053 47.889,21.956 47.612,21.889 L47.22,21.801 C46.823,21.694 46.522,21.559 46.522,21.133 C46.522,20.624 47.022,20.43 47.462,20.43 C47.961,20.43 48.358,20.691 48.377,21.234 L48.072,21.234" id="Fill-14" fill="#6F8F9D"></path>
        <path d="M50.944,21.287 C50.862,20.914 50.634,20.687 50.237,20.687 C49.651,20.687 49.36,21.22 49.36,21.752 C49.36,22.285 49.651,22.818 50.237,22.818 C50.615,22.818 50.925,22.523 50.964,22.105 L51.269,22.105 C51.186,22.706 50.794,23.074 50.237,23.074 C49.472,23.074 49.055,22.469 49.055,21.752 C49.055,21.035 49.472,20.43 50.237,20.43 C50.77,20.43 51.182,20.716 51.25,21.287 L50.944,21.287" id="Fill-15" fill="#6F8F9D"></path>
        <path d="M51.966,19.544 L52.272,19.544 L52.272,20.934 L52.281,20.934 C52.393,20.634 52.726,20.43 53.081,20.43 C53.782,20.43 53.995,20.799 53.995,21.395 L53.995,23.002 L53.69,23.002 L53.69,21.442 C53.69,21.012 53.549,20.687 53.056,20.687 C52.572,20.687 52.281,21.055 52.272,21.545 L52.272,23.002 L51.966,23.002 L51.966,19.544" id="Fill-16" fill="#6F8F9D"></path>
        <path d="M55.027,21.835 C55.032,22.28 55.264,22.818 55.851,22.818 C56.296,22.818 56.538,22.557 56.636,22.179 L56.94,22.179 C56.81,22.745 56.479,23.074 55.851,23.074 C55.055,23.074 54.721,22.465 54.721,21.752 C54.721,21.094 55.055,20.43 55.851,20.43 C56.655,20.43 56.974,21.133 56.95,21.835 L55.027,21.835 Z M56.646,21.578 C56.63,21.118 56.345,20.687 55.851,20.687 C55.352,20.687 55.075,21.123 55.027,21.578 L56.646,21.578 L56.646,21.578 Z" id="Fill-17" fill="#6F8F9D"></path>
        <path d="M57.634,20.503 L57.938,20.503 L57.938,20.934 L57.948,20.934 C58.06,20.634 58.394,20.43 58.747,20.43 C59.45,20.43 59.663,20.799 59.663,21.395 L59.663,23.002 L59.356,23.002 L59.356,21.442 C59.356,21.012 59.218,20.687 58.724,20.687 C58.239,20.687 57.948,21.055 57.938,21.545 L57.938,23.002 L57.634,23.002 L57.634,20.503" id="Fill-18" fill="#6F8F9D"></path>
        <polyline id="Fill-19" fill="#6F8F9D" points="62.321 19.544 62.806 19.544 64.001 22.576 65.192 19.544 65.677 19.544 65.677 23.002 65.349 23.002 65.349 20.014 65.339 20.014 64.157 23.002 63.847 23.002 62.659 20.014 62.649 20.014 62.649 23.002 62.321 23.002 62.321 19.544"></polyline>
        <path d="M66.763,21.835 C66.767,22.28 66.999,22.818 67.585,22.818 C68.03,22.818 68.273,22.557 68.37,22.179 L68.675,22.179 C68.544,22.745 68.216,23.074 67.585,23.074 C66.792,23.074 66.456,22.465 66.456,21.752 C66.456,21.094 66.792,20.43 67.585,20.43 C68.39,20.43 68.708,21.133 68.685,21.835 L66.763,21.835 Z M68.38,21.578 C68.366,21.118 68.079,20.687 67.585,20.687 C67.087,20.687 66.81,21.123 66.763,21.578 L68.38,21.578 L68.38,21.578 Z" id="Fill-20" fill="#6F8F9D"></path>
        <path d="M69.856,20.503 L70.366,20.503 L70.366,20.76 L69.856,20.76 L69.856,22.445 C69.856,22.643 69.886,22.76 70.105,22.774 C70.19,22.774 70.278,22.77 70.366,22.76 L70.366,23.021 C70.274,23.021 70.187,23.031 70.095,23.031 C69.689,23.031 69.548,22.896 69.552,22.469 L69.552,20.76 L69.116,20.76 L69.116,20.503 L69.552,20.503 L69.552,19.752 L69.856,19.752 L69.856,20.503" id="Fill-21" fill="#6F8F9D"></path>
        <path d="M71.077,19.544 L71.382,19.544 L71.382,20.934 L71.392,20.934 C71.503,20.634 71.837,20.43 72.19,20.43 C72.894,20.43 73.106,20.799 73.106,21.395 L73.106,23.002 L72.802,23.002 L72.802,21.442 C72.802,21.012 72.661,20.687 72.167,20.687 C71.683,20.687 71.392,21.055 71.382,21.545 L71.382,23.002 L71.077,23.002 L71.077,19.544" id="Fill-22" fill="#6F8F9D"></path>
        <path d="M76.196,21.752 C76.196,22.469 75.78,23.074 75.015,23.074 C74.249,23.074 73.833,22.469 73.833,21.752 C73.833,21.035 74.249,20.43 75.015,20.43 C75.78,20.43 76.196,21.035 76.196,21.752 M74.138,21.752 C74.138,22.285 74.429,22.818 75.015,22.818 C75.601,22.818 75.892,22.285 75.892,21.752 C75.892,21.22 75.601,20.687 75.015,20.687 C74.429,20.687 74.138,21.22 74.138,21.752" id="Fill-23" fill="#6F8F9D"></path>
        <path d="M79.126,23.002 L78.845,23.002 L78.845,22.527 L78.835,22.527 C78.704,22.852 78.308,23.074 77.944,23.074 C77.185,23.074 76.821,22.46 76.821,21.752 C76.821,21.045 77.185,20.43 77.944,20.43 C78.317,20.43 78.681,20.619 78.812,20.978 L78.821,20.978 L78.821,19.544 L79.126,19.544 L79.126,23.002 Z M77.944,22.818 C78.593,22.818 78.821,22.271 78.821,21.752 C78.821,21.234 78.593,20.687 77.944,20.687 C77.362,20.687 77.126,21.234 77.126,21.752 C77.126,22.271 77.362,22.818 77.944,22.818 L77.944,22.818 Z" id="Fill-24" fill="#6F8F9D"></path>
        <path d="M80.163,21.835 C80.167,22.28 80.399,22.818 80.985,22.818 C81.433,22.818 81.673,22.557 81.771,22.179 L82.075,22.179 C81.944,22.745 81.616,23.074 80.985,23.074 C80.192,23.074 79.858,22.465 79.858,21.752 C79.858,21.094 80.192,20.43 80.985,20.43 C81.79,20.43 82.11,21.133 82.085,21.835 L80.163,21.835 Z M81.78,21.578 C81.767,21.118 81.479,20.687 80.985,20.687 C80.487,20.687 80.212,21.123 80.163,21.578 L81.78,21.578 L81.78,21.578 Z" id="Fill-25" fill="#6F8F9D"></path>
        <path d="M82.769,20.503 L83.073,20.503 L83.073,20.934 L83.083,20.934 C83.194,20.634 83.528,20.43 83.882,20.43 C84.585,20.43 84.798,20.799 84.798,21.395 L84.798,23.002 L84.493,23.002 L84.493,21.442 C84.493,21.012 84.353,20.687 83.858,20.687 C83.374,20.687 83.083,21.055 83.073,21.545 L83.073,23.002 L82.769,23.002 L82.769,20.503" id="Fill-26" fill="#6F8F9D"></path>
        <polyline id="Fill-27" fill="#6F8F9D" points="87.466 19.544 87.796 19.544 87.796 22.721 89.731 22.721 89.731 23.002 87.466 23.002 87.466 19.544"></polyline>
        <path d="M92.523,21.752 C92.523,22.469 92.106,23.074 91.341,23.074 C90.575,23.074 90.159,22.469 90.159,21.752 C90.159,21.035 90.575,20.43 91.341,20.43 C92.106,20.43 92.523,21.035 92.523,21.752 L92.523,21.752 Z M90.464,21.752 C90.464,22.285 90.755,22.818 91.341,22.818 C91.927,22.818 92.218,22.285 92.218,21.752 C92.218,21.22 91.927,20.687 91.341,20.687 C90.755,20.687 90.464,21.22 90.464,21.752 L90.464,21.752 Z M90.749,20.072 L91.079,20.072 L91.079,19.582 L90.749,19.582 L90.749,20.072 Z M91.606,20.072 L91.936,20.072 L91.936,19.582 L91.606,19.582 L91.606,20.072 Z" id="Fill-28" fill="#6F8F9D"></path>
        <path d="M94.749,21.234 C94.735,20.857 94.444,20.687 94.097,20.687 C93.825,20.687 93.505,20.793 93.505,21.118 C93.505,21.389 93.815,21.486 94.024,21.539 L94.431,21.631 C94.778,21.685 95.142,21.889 95.142,22.324 C95.142,22.866 94.604,23.074 94.14,23.074 C93.56,23.074 93.161,22.803 93.112,22.193 L93.419,22.193 C93.442,22.606 93.747,22.818 94.155,22.818 C94.44,22.818 94.837,22.692 94.837,22.344 C94.837,22.053 94.565,21.956 94.29,21.889 L93.897,21.801 C93.501,21.694 93.2,21.559 93.2,21.133 C93.2,20.624 93.698,20.43 94.14,20.43 C94.638,20.43 95.036,20.691 95.056,21.234 L94.749,21.234" id="Fill-29" fill="#6F8F9D"></path>
        <path d="M97.884,23.002 L97.603,23.002 L97.603,22.551 L97.593,22.551 C97.433,22.886 97.103,23.074 96.731,23.074 C96.101,23.074 95.855,22.706 95.855,22.125 L95.855,20.503 L96.159,20.503 L96.159,22.13 C96.173,22.58 96.343,22.818 96.827,22.818 C97.351,22.818 97.577,22.324 97.577,21.815 L97.577,20.503 L97.884,20.503 L97.884,23.002" id="Fill-30" fill="#6F8F9D"></path>
        <g id="Group-34" transform="translate(98.000000, 20.000000)">
            <mask id="mask-2" fill="white">
                <use xlink:href="#path-1"></use>
            </mask>
            <g id="Clip-32"></g>
            <path d="M0.731,0.503 L1.036,0.503 L1.036,0.934 L1.046,0.934 C1.157,0.634 1.491,0.43 1.845,0.43 C2.548,0.43 2.761,0.799 2.761,1.395 L2.761,3.002 L2.456,3.002 L2.456,1.442 C2.456,1.012 2.315,0.687 1.821,0.687 C1.337,0.687 1.046,1.055 1.036,1.545 L1.036,3.002 L0.731,3.002 L0.731,0.503" id="Fill-31" fill="#6F8F9D" mask="url(#mask-2)"></path>
            <path d="M5.724,2.799 C5.72,3.544 5.433,4 4.614,4 C4.116,4 3.622,3.777 3.579,3.244 L3.884,3.244 C3.952,3.612 4.276,3.742 4.614,3.742 C5.177,3.742 5.419,3.408 5.419,2.799 L5.419,2.46 L5.409,2.46 C5.269,2.764 4.974,2.973 4.614,2.973 C3.815,2.973 3.487,2.402 3.487,1.69 C3.487,1.002 3.894,0.43 4.614,0.43 C4.978,0.43 5.288,0.658 5.409,0.934 L5.419,0.934 L5.419,0.503 L5.724,0.503 L5.724,2.799 Z M5.419,1.723 C5.419,1.234 5.19,0.687 4.614,0.687 C4.034,0.687 3.792,1.205 3.792,1.723 C3.792,2.227 4.054,2.716 4.614,2.716 C5.144,2.716 5.419,2.233 5.419,1.723 L5.419,1.723 Z" id="Fill-33" fill="#6F8F9D" mask="url(#mask-2)"></path>
        </g>
        <path d="M104.761,21.835 C104.765,22.28 104.997,22.818 105.583,22.818 C106.03,22.818 106.272,22.557 106.368,22.179 L106.673,22.179 C106.542,22.745 106.214,23.074 105.583,23.074 C104.79,23.074 104.456,22.465 104.456,21.752 C104.456,21.094 104.79,20.43 105.583,20.43 C106.388,20.43 106.708,21.133 106.683,21.835 L104.761,21.835 Z M106.378,21.578 C106.364,21.118 106.077,20.687 105.583,20.687 C105.085,20.687 104.81,21.123 104.761,21.578 L106.378,21.578 L106.378,21.578 Z" id="Fill-35" fill="#6F8F9D"></path>
        <path d="M107.366,20.503 L107.671,20.503 L107.671,20.934 L107.681,20.934 C107.792,20.634 108.126,20.43 108.479,20.43 C109.183,20.43 109.396,20.799 109.396,21.395 L109.396,23.002 L109.091,23.002 L109.091,21.442 C109.091,21.012 108.95,20.687 108.456,20.687 C107.972,20.687 107.681,21.055 107.671,21.545 L107.671,23.002 L107.366,23.002 L107.366,20.503" id="Fill-36" fill="#6F8F9D"></path>
        <polygon id="Fill-37" fill="#ABD0E4" points="0 4.401 3.155 4.401 3.155 1.246 0 1.246"></polygon>
        <polygon id="Fill-38" fill="#ABD0E4" points="28.813 4.401 31.968 4.401 31.968 1.246 28.813 1.246"></polygon>
        <polygon id="Fill-39" fill="#ABD0E4" points="4.669 4.401 7.823 4.401 7.823 1.246 4.669 1.246"></polygon>
        <polygon id="Fill-40" fill="#ABD0E4" points="24.144 4.401 27.299 4.401 27.299 1.246 24.144 1.246"></polygon>
        <polygon id="Fill-41" fill="#ABD0E4" points="9.338 4.401 12.493 4.401 12.493 1.246 9.338 1.246"></polygon>
        <polygon id="Fill-42" fill="#ABD0E4" points="19.475 4.401 22.63 4.401 22.63 1.246 19.475 1.246"></polygon>
        <polyline id="Fill-43" fill="#D02139" points="14.007 1.391 14.95 4.401 17.96 3.458 17.017 0.447 14.007 1.391"></polyline>
        <polygon id="Fill-44" fill="#ABD0E4" points="0 8.818 3.155 8.818 3.155 5.664 0 5.664"></polygon>
        <polygon id="Fill-45" fill="#ABD0E4" points="28.813 8.818 31.968 8.818 31.968 5.664 28.813 5.664"></polygon>
        <polygon id="Fill-46" fill="#ABD0E4" points="4.669 8.818 7.823 8.818 7.823 5.664 4.669 5.664"></polygon>
        <polygon id="Fill-47" fill="#ABD0E4" points="24.144 8.818 27.299 8.818 27.299 5.664 24.144 5.664"></polygon>
        <polygon id="Fill-48" fill="#ABD0E4" points="9.338 8.818 12.493 8.818 12.493 5.664 9.338 5.664"></polygon>
        <polygon id="Fill-49" fill="#ABD0E4" points="19.475 8.818 22.63 8.818 22.63 5.664 19.475 5.664"></polygon>
        <polygon id="Fill-50" fill="#ABD0E4" points="0 13.234 3.155 13.234 3.155 10.08 0 10.08"></polygon>
        <polygon id="Fill-51" fill="#ABD0E4" points="28.813 13.234 31.968 13.234 31.968 10.08 28.813 10.08"></polygon>
        <polygon id="Fill-52" fill="#ABD0E4" points="4.669 13.234 7.823 13.234 7.823 10.08 4.669 10.08"></polygon>
        <polygon id="Fill-53" fill="#ABD0E4" points="24.144 13.234 27.299 13.234 27.299 10.08 24.144 10.08"></polygon>
    </g>
</svg>