<?xml version="1.0" encoding="UTF-8" standalone="no"?>
<!DOCTYPE svg PUBLIC "-//W3C//DTD SVG 1.1//EN" "http://www.w3.org/Graphics/SVG/1.1/DTD/svg11.dtd">
<svg width="100%" height="100%" viewBox="0 0 1850 630" version="1.1" xmlns="http://www.w3.org/2000/svg" xmlns:xlink="http://www.w3.org/1999/xlink" xml:space="preserve" xmlns:serif="http://www.serif.com/" style="fill-rule:evenodd;clip-rule:evenodd;stroke-linecap:round;stroke-linejoin:round;stroke-miterlimit:1.41421;">
    <g transform="matrix(4.16667,0,0,4.16667,0,0)">
        <path d="M201.2,81.102C202.3,82.702 202.8,85.302 202.8,89.001L202.8,126.601L220.6,126.601L220.6,88.501C220.6,73.401 212.8,65.802 197.3,65.802C195.7,65.802 194.3,66.001 192.8,66.302C191.3,66.401 189.8,66.802 188.3,67.302C186.8,67.802 185.3,68.602 183.6,69.602C181.9,70.702 180.1,72.102 178.1,73.802C176.3,71.202 173.8,69.302 170.6,67.901C167.3,66.602 163.4,65.802 158.8,65.802C155.9,65.802 153.3,66.302 150.8,67.102C148.2,67.802 145.6,69.102 143.2,70.702L143.2,67.302L125.6,67.302L125.6,126.601L143.2,126.601L143.2,85.802C148,81.102 152.6,78.802 156.9,78.802C159.5,78.802 161.4,79.602 162.6,81.102C163.7,82.702 164.2,85.302 164.2,89.001L164.2,126.601L181.8,126.601L181.8,85.802C186.6,81.102 191.3,78.802 195.6,78.802C198.2,78.802 200.1,79.602 201.2,81.102Z" style="fill:rgb(88,89,91);fill-rule:nonzero;"/>
        <path d="M250.7,86.102C255.499,80.901 260.4,78.302 265.6,78.302C269.6,78.302 272.799,79.802 275.1,82.901C277.4,85.901 278.6,90.401 278.6,96.401C278.6,102.701 277.4,107.501 274.999,110.701C272.6,114.001 269.299,115.601 265.1,115.601C262.499,115.601 259.9,115.101 257.6,114.201C255.2,113.401 252.9,112.101 250.7,110.301L250.7,86.102ZM266.6,65.802C260.7,65.802 255.4,67.302 250.7,70.302L250.7,44.702L233.1,44.702L233.1,126.601L250.7,126.601L250.7,124.702C252.9,125.801 255.299,126.601 257.799,127.202C260.1,127.702 262.799,128.001 265.799,128.001C270.2,128.001 274.299,127.202 278.1,125.702C278.999,125.401 279.9,125.001 280.799,124.501C283.4,123.101 285.799,121.501 287.9,119.401C290.6,116.601 292.799,113.301 294.4,109.401C295.9,105.601 296.799,101.201 296.799,96.401C296.799,91.802 296.1,87.702 294.799,83.901C293.4,80.202 291.4,77.001 288.9,74.401C286.299,71.702 283.1,69.602 279.4,68.102C275.6,66.602 271.4,65.802 266.6,65.802Z" style="fill:rgb(88,89,91);fill-rule:nonzero;"/>
        <path d="M362.6,79.602L373.2,79.602L373.2,67.302L362.6,67.302L362.6,52.602L344.6,52.602L344.6,67.302L336.6,67.302L336.6,79.602L344.6,79.602L344.6,108.801C344.6,112.001 344.9,114.801 345.299,117.101C345.6,119.601 346.4,121.601 347.799,123.202C348.1,123.601 348.6,124.101 349.1,124.501C350.299,125.501 351.7,126.202 353.4,126.801C355.9,127.601 359.2,128.001 363.4,128.001C364.9,128.001 366.7,127.901 368.6,127.702C370.4,127.501 372.4,127.101 374.7,126.702L374.7,114.701C372.9,115.101 371.299,115.201 369.799,115.401C368.299,115.601 366.9,115.601 365.9,115.601C365.299,115.601 364.9,115.601 364.499,115.401C363.999,115.201 363.6,115.001 363.4,114.501C363.1,114.001 362.9,113.401 362.799,112.601C362.6,111.701 362.6,110.601 362.6,109.201L362.6,79.602Z" style="fill:rgb(245,130,31);fill-rule:nonzero;"/>
        <rect x="308.043" y="67.302" width="18.013" height="12.099" style="fill:rgb(245,130,31);fill-rule:nonzero;"/>
        <rect x="308.042" y="81.402" width="18.013" height="45.2" style="fill:rgb(245,130,31);fill-rule:nonzero;"/>
        <path d="M90.299,100.202L95.5,100.202L95.5,109.201C93.7,111.201 91.2,112.801 88.2,114.001C85.2,115.101 82,115.601 78.7,115.601C75.299,115.601 72.799,115.101 70.799,113.901C68.899,112.701 67.899,111.201 67.899,109.201C67.899,103.201 75.399,100.202 90.299,100.202ZM69.899,84.802C70.7,82.302 72,80.602 74.2,79.602C76.299,78.802 79,78.302 82.6,78.302C85.5,78.302 87.7,78.602 89.399,79.001C91.1,79.401 92.399,80.102 93.299,80.901C94.2,81.802 94.799,82.802 95,84.001C95.299,85.202 95.5,86.602 95.5,88.202L92.7,88.202C64.2,88.202 49.899,95.302 49.899,109.701C49.899,112.501 50.5,114.901 51.899,117.101C53.1,119.301 55,121.202 57.299,122.901C58.1,123.501 59,124.001 59.899,124.501C61.5,125.301 63.299,126.101 65.299,126.702C68.299,127.601 71.7,128.001 75.299,128.001C79.2,128.001 82.799,127.601 86.2,126.801C88.7,126.202 91,125.501 93.2,124.501C94,124.101 94.799,123.801 95.5,123.401L95.5,126.601L113.1,126.601L113.1,89.001C113.1,84.401 112.4,80.602 111.1,77.602C109.7,74.602 107.7,72.302 105.1,70.602C102.5,68.802 99.399,67.602 95.799,66.901C92,66.202 87.799,65.802 83.299,65.802C64.5,65.802 54,72.202 51.899,84.802L69.899,84.802Z" style="fill:rgb(88,89,91);fill-rule:nonzero;"/>
        <rect x="19.1" y="67.202" width="19.5" height="12.199" style="fill:rgb(88,89,91);fill-rule:nonzero;"/>
        <path d="M13.299,141.702C11.899,142 10.1,142.202 8,142.202C6.1,142.202 4.299,142.101 2.5,142C2.2,142 1.399,142 0,142L0,150.702C3,150.901 6.399,151 10.399,151C14.7,151 18.6,150.702 22.1,150.202C24.899,149.702 27.399,148.901 29.6,147.801C30.1,147.601 30.6,147.301 31,147.101C33.5,145.601 35.399,143.5 36.6,140.702C38,138 38.6,134.5 38.6,130.202L38.6,81.401L19.1,81.401L19.1,129.801C19.1,132.301 18.899,134.301 18.6,135.901C18.299,137.5 17.6,138.702 16.799,139.702C16,140.702 14.899,141.301 13.299,141.702Z" style="fill:rgb(88,89,91);fill-rule:nonzero;"/>
        <path d="M392.999,11.702C387.6,17.001 384.9,23.602 384.9,31.302C384.9,38.901 387.6,45.401 392.999,50.802C398.4,56.302 404.999,59.001 412.6,59.001C420.299,59.001 426.9,56.302 432.299,50.802C437.6,45.401 440.4,38.901 440.4,31.302C440.4,23.602 437.6,17.001 432.299,11.702C426.9,6.302 420.299,3.501 412.6,3.501C404.999,3.501 398.4,6.302 392.999,11.702Z" style="fill:none;stroke:rgb(245,130,31);stroke-width:5.9px;"/>
        <path d="M422.842,13.671C424.472,15.301 419.577,22.84 411.908,30.509C404.238,38.179 396.699,43.074 395.069,41.444C393.439,39.813 394.537,28.477 402.206,20.808C409.875,13.138 421.211,12.04 422.842,13.671Z" style="fill:rgb(88,89,91);fill-rule:nonzero;"/>
        <path d="M402.162,48.832C400.531,47.202 405.427,39.663 413.096,31.994C420.765,24.324 428.304,19.429 429.935,21.059C431.565,22.69 430.467,34.026 422.798,41.695C415.128,49.365 403.792,50.463 402.162,48.832Z" style="fill:rgb(88,89,91);fill-rule:nonzero;"/>
    </g>
</svg>
