<?xml version="1.0" encoding="UTF-8" standalone="no"?><!DOCTYPE svg PUBLIC "-//W3C//DTD SVG 1.1//EN" "http://www.w3.org/Graphics/SVG/1.1/DTD/svg11.dtd"><svg width="100%" height="100%" viewBox="0 0 3125 3075" version="1.1" xmlns="http://www.w3.org/2000/svg" xmlns:xlink="http://www.w3.org/1999/xlink" xml:space="preserve" xmlns:serif="http://www.serif.com/" style="fill-rule:evenodd;clip-rule:evenodd;stroke-linejoin:round;stroke-miterlimit:2;"><g id="Logo-Primary" serif:id="Logo Primary"><path d="M212.652,2842.94c17.697,0 32.455,-6.388 44.268,-19.187c11.802,-12.769 17.703,-28.756 17.703,-47.931l0,-1.374c0,-9.118 -1.588,-17.807 -4.765,-26.026c-3.176,-8.214 -7.495,-15.402 -12.938,-21.569c-5.454,-6.168 -12.039,-10.956 -19.754,-14.382c-7.727,-3.425 -15.894,-5.135 -24.514,-5.135c-17.714,-0 -32.472,6.399 -44.274,19.175c-11.813,12.787 -17.708,28.762 -17.708,47.937l-0,1.374c-0,19.175 5.895,35.162 17.708,47.931c11.802,12.799 26.56,19.187 44.274,19.187m58.551,73.274c-6.376,6.852 -13.1,13.587 -20.16,20.207c-7.06,6.631 -14.921,12.445 -23.563,17.465c-8.654,5.031 -18.451,9.13 -29.377,12.323c-10.932,3.189 -23.453,4.8 -37.568,4.8c-22.768,-0 -43.845,-4.689 -63.194,-14.039c-19.354,-9.362 -36.321,-22.613 -50.887,-39.718c-14.579,-17.129 -25.963,-37.446 -34.154,-60.968c-8.202,-23.494 -12.3,-49.636 -12.3,-78.416l0,-1.362c0,-29.679 4.202,-56.615 12.636,-80.816c8.423,-24.194 19.807,-44.964 34.16,-62.318c14.334,-17.344 31.191,-30.705 50.545,-40.06c19.349,-9.362 39.956,-14.04 61.821,-14.04c28.229,0 51.003,5.252 68.318,15.744c17.302,10.509 31.881,22.375 43.723,35.614l0,-42.466l156.148,0l-0,483.514l-156.148,-0l0,-155.464Z" style="fill:#fc0054;fill-rule:nonzero;"/><path d="M701.62,2971.01c-39.614,-0 -70.799,-12.092 -93.562,-36.298c-22.769,-24.207 -34.142,-57.537 -34.142,-100.002l0,-246.545l156.142,0l-0,196.555c-0,15.987 4.046,28.421 12.138,37.33c8.092,8.898 17.981,13.355 29.661,13.355c11.674,0 21.899,-4.457 30.658,-13.355c8.77,-8.909 13.152,-21.343 13.152,-37.33l0,-196.555l156.148,0l-0,373.935l-156.148,0l0,-49.995c-11.836,15.529 -27.197,29.226 -46.094,41.098c-18.903,11.859 -41.544,17.807 -67.953,17.807" style="fill:#fc0054;fill-rule:nonzero;"/><path d="M1335.81,2842.94c17.697,0 32.455,-6.388 44.262,-19.187c11.808,-12.769 17.715,-28.756 17.715,-47.931l-0,-1.374c-0,-19.175 -5.907,-35.15 -17.715,-47.937c-11.807,-12.776 -26.565,-19.175 -44.262,-19.175c-17.709,-0 -32.472,6.399 -44.274,19.175c-11.808,12.787 -17.709,28.762 -17.709,47.937l0,1.374c0,9.141 1.589,17.807 4.759,26.021c3.183,8.231 7.495,15.418 12.95,21.574c5.449,6.168 11.918,10.956 19.413,14.382c7.489,3.425 15.772,5.141 24.861,5.141m-214.71,-254.776l156.153,0l0,45.892c6.376,-6.852 13.089,-13.576 20.149,-20.207c7.06,-6.608 14.915,-12.434 23.575,-17.471c8.648,-5.002 18.438,-9.124 29.371,-12.318c10.926,-3.194 23.452,-4.788 37.579,-4.788c22.305,0 43.259,4.678 62.846,14.04c19.575,9.355 36.657,22.595 51.236,39.718c14.572,17.123 25.957,37.44 34.153,60.95c8.202,23.523 12.294,49.654 12.294,78.416l0,1.368c0,29.69 -4.214,56.621 -12.636,80.816c-8.434,24.206 -19.824,44.975 -34.159,62.33c-14.347,17.355 -31.203,30.698 -50.546,40.06c-19.366,9.35 -39.973,14.039 -61.826,14.039c-28.241,-0 -51.01,-5.252 -68.312,-15.761c-17.315,-10.492 -31.893,-22.363 -43.724,-35.608l0,152.038l-156.153,-0l-0,-483.514Z" style="fill:#fc0054;fill-rule:nonzero;"/><path d="M1856.65,2881.29c13.692,0 25.099,-5.141 34.24,-15.419c9.13,-10.271 13.703,-24.31 13.703,-42.117l0,-15.75c-4.573,-1.814 -10.051,-3.298 -16.439,-4.446c-6.405,-1.13 -12.787,-1.721 -19.175,-1.721c-15.528,-0 -27.4,4.011 -35.614,11.993c-8.225,7.987 -12.329,17.917 -12.329,29.788l0,1.368c0,10.956 3.42,19.755 10.272,26.375c6.851,6.613 15.297,9.929 25.342,9.929m-61.64,89.719c-17.807,0 -34.24,-2.527 -49.312,-7.535c-15.059,-5.02 -28.078,-12.446 -39.033,-22.271c-10.962,-9.808 -19.413,-21.789 -25.343,-35.95c-5.941,-14.138 -8.903,-30.583 -8.903,-49.311l-0,-1.368c-0,-37.429 12.781,-66.191 38.355,-86.288c25.563,-20.085 60.261,-30.142 104.095,-30.142c7.761,0 15.981,0.342 24.658,1.038c8.666,0.684 17.001,1.704 24.995,3.072c7.982,1.374 15.419,2.864 22.264,4.458c6.846,1.599 12.318,3.315 16.434,5.13l-0,-6.168c-0,-17.337 -5.478,-30.699 -16.434,-40.06c-10.961,-9.344 -28.548,-14.039 -52.737,-14.039c-19.18,-0 -37.103,1.947 -53.763,5.825c-16.67,3.89 -33.214,9.02 -49.647,15.408l-27.4,-103.417c21.917,-8.213 45.427,-14.827 70.538,-19.864c25.111,-5.009 54.105,-7.53 86.983,-7.53c38.344,-0 70.19,4.011 95.539,11.993c25.336,7.993 46.227,20.195 62.66,36.634c14.144,14.161 24.195,30.594 30.137,49.311c5.93,18.723 8.903,41.782 8.903,69.165l0,212.994l-155.469,-0l-0,-37.66c-13.245,14.155 -28.652,25.447 -46.228,33.898c-17.581,8.446 -38.008,12.677 -61.292,12.677" style="fill:#fc0054;fill-rule:nonzero;"/><path d="M2335.36,3073.74c-27.4,-0 -53.079,-3.548 -77.054,-10.62c-23.968,-7.089 -46.459,-16.56 -67.46,-28.414l45.208,-106.158c14.143,7.761 27.272,13.807 39.375,18.149c12.092,4.336 21.801,6.509 29.111,6.509c9.587,0 18.027,-1.832 25.342,-5.489l-146.56,-359.554l160.941,-0l65.061,197.251l59.583,-197.251l158.205,-0l-129.443,347.914c-9.141,24.659 -18.607,45.654 -28.42,63.015c-9.825,17.343 -21.123,31.504 -33.899,42.459c-12.793,10.956 -27.29,19.048 -43.497,24.305c-16.207,5.252 -35.046,7.884 -56.493,7.884" style="fill:#fc0054;fill-rule:nonzero;"/><path d="M2923.66,2881.29c13.691,0 25.099,-5.141 34.24,-15.419c9.13,-10.271 13.703,-24.31 13.703,-42.117l0,-15.75c-4.573,-1.814 -10.051,-3.298 -16.445,-4.446c-6.399,-1.13 -12.781,-1.721 -19.169,-1.721c-15.529,-0 -27.4,4.011 -35.62,11.993c-8.219,7.987 -12.323,17.917 -12.323,29.788l-0,1.368c-0,10.956 3.42,19.755 10.271,26.375c6.852,6.613 15.297,9.929 25.343,9.929m-61.641,89.719c-17.807,0 -34.24,-2.527 -49.311,-7.535c-15.065,-5.02 -28.078,-12.446 -39.04,-22.271c-10.955,-9.808 -19.406,-21.789 -25.336,-35.95c-5.942,-14.138 -8.904,-30.583 -8.904,-49.311l0,-1.368c0,-37.429 12.782,-66.191 38.356,-86.288c25.563,-20.085 60.261,-30.142 104.094,-30.142c7.762,0 15.981,0.342 24.659,1.038c8.666,0.684 17.001,1.704 24.995,3.072c7.981,1.374 15.413,2.864 22.258,4.458c6.846,1.599 12.324,3.315 16.439,5.13l0,-6.168c0,-17.337 -5.477,-30.699 -16.439,-40.06c-10.955,-9.344 -28.542,-14.039 -52.731,-14.039c-19.181,-0 -37.104,1.947 -53.763,5.825c-16.677,3.89 -33.214,9.02 -49.653,15.408l-27.4,-103.417c21.922,-8.213 45.433,-14.827 70.544,-19.864c25.104,-5.009 54.105,-7.53 86.977,-7.53c38.35,-0 70.196,4.011 95.539,11.993c25.342,7.993 46.233,20.195 62.666,36.634c14.144,14.161 24.195,30.594 30.136,49.311c5.93,18.723 8.898,41.782 8.898,69.165l-0,212.994l-155.463,-0l-0,-37.66c-13.246,14.155 -28.653,25.447 -46.234,33.898c-17.575,8.446 -38.002,12.677 -61.287,12.677" style="fill:#fc0054;fill-rule:nonzero;"/><path d="M2209.33,1753.11l331.656,331.69l-1033.82,0c-215.347,0 -422.075,-64.608 -598.702,-189.541c-133.552,-94.762 -245.513,-219.66 -323.024,-366.127c-77.581,-150.745 -120.65,-318.747 -120.65,-486.748c0,-258.422 94.768,-508.282 271.395,-702.096c60.255,-64.608 129.211,-120.62 202.444,-168.001c172.279,-111.989 370.44,-172.285 572.885,-172.285c279.956,0 542.725,107.677 740.891,305.809c198.092,198.16 305.838,460.895 305.838,740.885c-0,202.445 -60.325,400.606 -172.349,568.578l-30.09,43.103l-374.799,-374.758l12.909,-25.853c30.165,-68.915 47.422,-142.149 47.422,-215.382c-0,-142.12 -55.983,-275.678 -155.093,-374.724c-99.051,-99.08 -232.609,-155.092 -374.729,-155.092c-73.234,-0 -146.462,17.256 -215.348,47.381c-60.325,25.852 -112.024,60.324 -159.376,107.711c-8.625,8.596 -17.256,17.222 -25.882,30.131c-81.858,94.767 -124.927,215.382 -124.927,340.315c0,142.114 56.041,275.672 155.093,374.724c99.045,99.08 228.256,155.092 366.092,155.092l521.261,0l12.909,12.909l167.995,172.279Z" style="fill:#fc0054;fill-rule:nonzero;"/><path d="M1817.66,1006.95c-0,168.476 -136.578,305.055 -305.055,305.055c-168.477,-0 -305.055,-136.579 -305.055,-305.055c0,-168.477 136.578,-305.055 305.055,-305.055c168.477,-0 305.055,136.578 305.055,305.055" style="fill:#fc0054;fill-rule:nonzero;"/></g></svg>