<?xml version="1.0" encoding="utf-8"?>
<!-- Generator: Adobe Illustrator 16.0.4, SVG Export Plug-In . SVG Version: 6.00 Build 0)  -->
<!DOCTYPE svg PUBLIC "-//W3C//DTD SVG 1.1//EN" "http://www.w3.org/Graphics/SVG/1.1/DTD/svg11.dtd">
<svg version="1.1" id="Ebene_1" xmlns="http://www.w3.org/2000/svg" xmlns:xlink="http://www.w3.org/1999/xlink" x="0px" y="0px"
	 width="462.592px" height="389.042px" viewBox="335.634 369.746 462.592 389.042"
	 enable-background="new 335.634 369.746 462.592 389.042" xml:space="preserve">
<g>
	<path fill="#1D1D1B" d="M346.634,626.139v73.357c0,3.037-2.463,5.5-5.5,5.5c-3.037,0-5.5-2.463-5.5-5.5v-73.357
		c0-3.037,2.463-5.5,5.5-5.5C344.171,620.639,346.634,623.102,346.634,626.139z M357.259,631.639h12.087
		c7.427,0,12.992,4.029,14.89,10.779c1.553,5.525,0.284,12.83-6.05,16.695c-2.593,1.583-3.412,4.968-1.83,7.561
		c1.037,1.698,2.847,2.636,4.7,2.636c0.977,0,1.966-0.261,2.86-0.806c9.739-5.944,14.124-17.623,10.909-29.062
		c-3.21-11.422-13.212-18.803-25.479-18.803h-12.087c-3.037,0-5.5,2.463-5.5,5.5S354.222,631.639,357.259,631.639z M374.68,672.417
		c-6.644-6.774-10.89-10.091-17.047-10.61c-3.019-0.265-5.688,1.991-5.943,5.019c-0.256,3.026,1.991,5.688,5.018,5.942
		c1.857,0.157,3.671,0.776,10.118,7.352c7.979,8.139,21.866,22.984,22.005,23.135c1.083,1.158,2.549,1.743,4.019,1.743
		c1.346,0,2.695-0.491,3.756-1.482c2.219-2.074,2.335-5.556,0.261-7.773C396.725,695.59,382.751,680.649,374.68,672.417z
		 M605.794,620.639c-3.037,0-5.5,2.463-5.5,5.5v73.357c0,3.037,2.463,5.5,5.5,5.5s5.5-2.463,5.5-5.5v-73.357
		C611.294,623.102,608.832,620.639,605.794,620.639z M621.919,631.639h12.086c7.426,0,12.992,4.029,14.889,10.779
		c1.555,5.525,0.285,12.831-6.049,16.696c-2.592,1.582-3.412,4.967-1.828,7.56c1.035,1.698,2.846,2.636,4.699,2.636
		c0.977,0,1.965-0.261,2.859-0.807c9.738-5.943,14.123-17.622,10.908-29.062c-3.211-11.423-13.211-18.804-25.479-18.804h-12.088
		c-3.037,0-5.5,2.463-5.5,5.5S618.882,631.639,621.919,631.639z M639.339,672.417c-6.645-6.774-10.891-10.091-17.047-10.61
		c-3.02-0.265-5.689,1.991-5.943,5.019c-0.256,3.026,1.99,5.688,5.018,5.942c1.857,0.157,3.672,0.776,10.119,7.352
		c7.979,8.139,21.863,22.984,22.004,23.134c1.082,1.158,2.549,1.744,4.018,1.744c1.346,0,2.695-0.491,3.756-1.482
		c2.219-2.073,2.336-5.555,0.262-7.772C661.382,695.59,647.412,680.649,639.339,672.417z M474.844,620.52
		c-3.037,0-5.5,2.464-5.5,5.5v48.013c0,11.035-8.447,20.014-18.83,20.014c-5.823,0-11.229-2.8-14.83-7.683
		c-1.804-2.443-5.244-2.963-7.69-1.162c-2.444,1.804-2.965,5.247-1.162,7.69c5.697,7.725,14.329,12.153,23.684,12.153
		c16.448,0,29.83-13.913,29.83-31.014V626.02C480.344,622.982,477.881,620.52,474.844,620.52z M709.566,620.52
		c-3.037,0-5.5,2.464-5.5,5.5v48.013c0,11.035-8.447,20.014-18.83,20.014c-3.037,0-5.5,2.463-5.5,5.5s2.463,5.5,5.5,5.5
		c16.447,0,29.83-13.913,29.83-31.014V626.02C715.066,622.982,712.603,620.52,709.566,620.52z M431.682,674.031v-47.808
		c0-3.036-2.463-5.5-5.5-5.5s-5.5,2.464-5.5,5.5v47.808c0,3.037,2.462,5.5,5.5,5.5S431.682,677.068,431.682,674.031z
		 M565.507,620.725c-3.037,0-5.5,2.463-5.5,5.5v73.062c0,3.037,2.463,5.5,5.5,5.5c3.038,0,5.5-2.463,5.5-5.5v-73.062
		C571.007,623.188,568.544,620.725,565.507,620.725z M548.893,657.256h-28.219v-31.031c0-3.037-2.463-5.5-5.5-5.5
		s-5.5,2.463-5.5,5.5v73.062c0,3.037,2.463,5.5,5.5,5.5s5.5-2.463,5.5-5.5v-31.031h28.219c3.037,0,5.5-2.463,5.5-5.5
		S551.93,657.256,548.893,657.256z M771.035,693.577c-4.945,0.385-14.34-0.465-21.9-10.485c-1.828-2.426-5.277-2.906-7.703-1.078
		c-2.424,1.83-2.906,5.278-1.078,7.703c7.238,9.592,17.607,14.936,28.781,14.936c0.912,0,1.832-0.035,2.756-0.107
		c3.027-0.236,5.291-2.883,5.057-5.911C776.708,695.604,774.066,693.341,771.035,693.577z M771.242,654.79
		c-0.598-0.108-1.133-0.205-1.506-0.281c-0.586-0.129-1.309-0.264-2.133-0.415c-9.996-1.834-15.676-4.377-15.113-11.896
		c0.225-2.708,1.705-5.026,4.404-6.893c2.498-1.727,3.125-5.151,1.396-7.65c-1.727-2.499-5.152-3.128-7.65-1.397
		c-5.383,3.719-8.617,9.058-9.117,15.076c-1.41,18.9,17.787,22.423,24.096,23.58c0.672,0.124,1.262,0.229,1.818,0.354
		c0.527,0.108,1.146,0.222,1.84,0.348c11.461,2.081,18.455,5.424,17.918,15.675c-0.16,3.465-2.33,6.031-4.123,7.573
		c-2.305,1.979-2.564,5.453-0.584,7.756c1.088,1.266,2.625,1.914,4.172,1.914c1.27,0,2.545-0.438,3.584-1.33
		c4.854-4.175,7.674-9.646,7.938-15.372C799.332,659.892,778.189,656.052,771.242,654.79z M768.988,631.865c0.018,0,0.033,0,0.051,0
		c6.771-0.067,12.992,2.396,17.008,6.742c1.084,1.173,2.561,1.768,4.041,1.768c1.334,0,2.674-0.483,3.73-1.46
		c2.23-2.062,2.369-5.541,0.309-7.772c-6.117-6.619-15.283-10.364-25.188-10.276c-3.037,0.026-5.479,2.512-5.449,5.55
		C763.517,629.436,765.974,631.865,768.988,631.865z"/>
	<path fill="#1D1D1B" d="M633.818,747.287H500.04c-1.657,0-3-1.343-3-3s1.343-3,3-3h133.778c1.656,0,3,1.343,3,3
		S635.476,747.287,633.818,747.287z M598.464,757.288c0-0.828-0.672-1.5-1.5-1.5h-60.07c-0.827,0-1.5,0.672-1.5,1.5
		s0.673,1.5,1.5,1.5h60.07C597.792,758.788,598.464,758.116,598.464,757.288z"/>
	<path fill="#1D1D1B" d="M638.916,575.649c1.143,2.813-0.213,6.021-3.027,7.165c-2.812,1.143-6.021-0.213-7.164-3.026
		l-39.889-98.218h-12.906v21.424c0,1.657-1.342,3-3,3c-1.656,0-3-1.343-3-3V481.57h-6v21.424c0,1.657-1.343,3-3,3
		c-1.656,0-3-1.343-3-3V481.57h-12.903l-39.89,98.22c-0.867,2.137-2.926,3.432-5.098,3.432c-0.689,0-1.39-0.13-2.067-0.404
		c-2.813-1.144-4.169-4.352-3.025-7.165l40.856-100.605c-0.039-0.265-0.064-0.533-0.064-0.809v-21.811
		c-6.571,2.286-11.309,8.526-11.309,15.866c0,3.325,0.971,6.542,2.806,9.301c0.918,1.379,0.543,3.242-0.837,4.159
		c-0.512,0.34-1.088,0.502-1.658,0.502c-0.971,0-1.923-0.47-2.501-1.339c-2.491-3.747-3.81-8.112-3.81-12.623
		c0-10.681,7.381-19.666,17.309-22.134v-6.366c0-3.038,2.463-5.5,5.5-5.5s5.5,2.462,5.5,5.5v6.373
		c7.724,1.942,14.106,7.873,16.397,15.731c0.464,1.591-0.448,3.256-2.04,3.72c-1.593,0.467-3.256-0.45-3.72-2.04
		c-1.543-5.291-5.605-9.393-10.639-11.151v18.146h40.186v-18.146c-5.031,1.759-9.096,5.86-10.639,11.152
		c-0.465,1.589-2.133,2.504-3.721,2.04c-1.592-0.464-2.504-2.129-2.039-3.72c2.293-7.859,8.676-13.79,16.398-15.731v-6.373
		c0-3.038,2.463-5.5,5.5-5.5s5.5,2.462,5.5,5.5v6.366c9.928,2.469,17.307,11.454,17.307,22.134c0,4.511-1.316,8.876-3.811,12.624
		c-0.578,0.869-1.531,1.339-2.502,1.339c-0.568,0-1.146-0.163-1.658-0.503c-1.379-0.917-1.754-2.78-0.836-4.159
		c1.836-2.76,2.807-5.976,2.807-9.3c0-7.339-4.736-13.579-11.307-15.865v21.811c0,0.144-0.012,0.286-0.021,0.427L638.916,575.649z
		 M592.818,511.338h-51.776c-1.657,0-3,1.343-3,3s1.343,3,3,3h16.888v40.18c0,1.657,1.344,3,3,3c1.657,0,3-1.343,3-3v-40.18h6v40.18
		c0,1.657,1.344,3,3,3c1.658,0,3-1.343,3-3v-40.18h16.889c1.656,0,3-1.343,3-3S594.474,511.338,592.818,511.338z M513.299,421.851
		c0,3.038,2.463,5.5,5.5,5.5h96.261c3.037,0,5.5-2.462,5.5-5.5c0-3.037-2.463-5.5-5.5-5.5h-96.261
		C515.762,416.351,513.299,418.812,513.299,421.851z M596.964,410.226c0.828,0,1.5-0.671,1.5-1.5c0-0.828-0.672-1.5-1.5-1.5h-60.07
		c-0.827,0-1.5,0.672-1.5,1.5c0,0.829,0.673,1.5,1.5,1.5H596.964z M566.93,369.746c-61.895,0-112.25,50.354-112.25,112.25
		c0,28.613,10.768,55.861,30.315,76.725c2.077,2.217,5.557,2.329,7.773,0.253c2.218-2.077,2.33-5.558,0.253-7.773
		c-17.633-18.817-27.343-43.395-27.343-69.203c0-55.83,45.421-101.25,101.25-101.25c55.829,0,101.25,45.42,101.25,101.25
		c0,25.804-9.711,50.381-27.342,69.205c-2.076,2.217-1.963,5.697,0.254,7.773c1.062,0.994,2.412,1.486,3.76,1.486
		c1.469,0,2.934-0.584,4.016-1.74c19.547-20.868,30.312-48.116,30.312-76.725C679.179,420.101,628.824,369.746,566.93,369.746z"/>
</g>
</svg>
