<?xml version="1.0" encoding="UTF-8"?><svg id="Layout" xmlns="http://www.w3.org/2000/svg" xmlns:xlink="http://www.w3.org/1999/xlink" viewBox="0 0 954.26 200"><defs><style>.cls-1{fill:url(#linear-gradient);}.cls-1,.cls-2{fill-rule:evenodd;}.cls-1,.cls-2,.cls-3{stroke-width:0px;}.cls-2{fill:#fff;}.cls-3{fill:#002a86;}</style><linearGradient id="linear-gradient" x1="202.14" y1="0" x2="202.14" y2="200" gradientUnits="userSpaceOnUse"><stop offset="0" stop-color="#00b8f1"/><stop offset=".02" stop-color="#00b5ef"/><stop offset=".31" stop-color="#0d90d8"/><stop offset=".58" stop-color="#1675c8"/><stop offset=".82" stop-color="#1c64be"/><stop offset="1" stop-color="#1e5fbb"/></linearGradient></defs><polyline class="cls-1" points="0 200 204.32 200 404.29 0 0 0 0 200"/><path class="cls-2" d="M239.92,37.61l-39.79-.03v94.62l-34.76-94.62h-34.47l-29.68,79.13c-3.16-19.95-23.8-26.84-40.04-32.01-10.72-3.44-22.1-8.51-21.99-14.1.09-4.59,6.1-8.86,18.02-8.22,8.01.42,15.07,1.07,29.13,7.85l13.83-24.08c-12.83-6.53-30.56-10.65-45.08-10.67h-.08c-16.94,0-31.05,5.49-39.81,14.53-6.1,6.32-9.38,14.34-9.52,23.21-.22,12.21,4.26,20.87,13.66,27.78,7.95,5.83,18.11,9.6,27.06,12.38,11.05,3.42,20.07,6.4,19.96,12.75-.08,2.3-.96,4.46-2.62,6.21-2.75,2.84-6.98,3.91-12.83,4.01-11.27.24-19.63-1.52-32.95-9.39l-12.29,24.41c13.28,7.56,29,11.99,45.05,11.99l2.07-.03c13.97-.25,25.24-4.23,34.24-11.48.52-.41.98-.83,1.46-1.26l-3.99,10.66h36.15l6.07-18.45c6.35,2.17,13.58,3.37,21.25,3.37s14.51-1.15,20.74-3.19l5.85,18.26h58.96v-38.19h12.86c31.07,0,49.46-15.84,49.46-42.36,0-29.55-17.86-43.11-55.89-43.11ZM147.95,118.57c-4.64,0-9-.8-12.75-2.22l12.61-39.8h.24l12.39,39.91c-3.72,1.32-7.98,2.11-12.49,2.11ZM242.26,95.7h-8.77v-32.07h8.77c11.69,0,21.01,3.88,21.01,15.82s-9.32,16.25-21.01,16.25"/><path class="cls-3" d="M402.78,37.15h23.5v103.9h55.75v20.59h-79.25V37.15Z"/><path class="cls-3" d="M490.37,113.3c0-33.66,22.17-50.18,48.51-50.18,32.33,0,43.82,23.68,43.82,47.18,0,2.83-.18,5.74-.35,8.48h-68.38c1.59,18.38,11.13,27.13,27.92,27.13,10.87,0,18.11-3.18,24.65-10.78l12.99,12.99c-9.01,10.16-20.05,15.29-38.7,15.29-31.01,0-50.45-17.76-50.45-50.09ZM560.43,104.91c-1.24-17.05-9.54-24.56-22.09-24.56s-21.82,7.51-24.03,24.56h46.12Z"/><path class="cls-3" d="M593.15,135.3c0-20.76,16.96-30.48,42.05-30.48h17.49v-5.57c0-11.66-5.65-18.02-17.41-18.02-10.95,0-18.64,4.68-24.65,12.28l-13.34-13.25c8.92-9.72,21.03-17.14,40.38-17.14,24.56,0,37.28,12.81,37.28,36.22v62.29h-21.56v-17.94h-.53c-5.92,13.52-15.64,19.7-30.84,19.7-16.87,0-28.89-10.07-28.89-28.09ZM629.99,146.17c14.4,0,22.71-10.87,22.71-22.26v-6.27h-13.7c-12.81,0-23.59,3.44-23.59,15.55,0,8.04,5.48,12.99,14.58,12.99Z"/><path class="cls-3" d="M697.18,64.98h21.64v20.32h.35c4.42-11.04,13.25-22.17,31.72-22.17,20.76,0,30.04,14.14,30.04,34.72v63.79h-22.35v-58.4c0-12.99-4.5-20.85-17.49-20.85s-21.55,8.84-21.55,25.09v54.16h-22.35v-96.65Z"/><path class="cls-3" d="M804.9,37.15h23.5v124.49h-23.5V37.15Z"/><path class="cls-3" d="M883.93,96.7l-39.58-59.55h27.21l26.15,43.03,26.06-43.03h27.21l-39.58,59.55,42.85,64.94h-27.04l-29.51-49.65-29.6,49.65h-27.04l42.85-64.94Z"/></svg>