<?xml version="1.0" encoding="UTF-8" standalone="no"?>
<!DOCTYPE svg PUBLIC "-//W3C//DTD SVG 1.1//EN" "http://www.w3.org/Graphics/SVG/1.1/DTD/svg11.dtd">
<svg width="100%" height="100%" viewBox="0 0 3854 928" version="1.1" xmlns="http://www.w3.org/2000/svg" xmlns:xlink="http://www.w3.org/1999/xlink" xml:space="preserve" xmlns:serif="http://www.serif.com/" style="fill-rule:evenodd;clip-rule:evenodd;stroke-linejoin:round;stroke-miterlimit:2;">
    <g transform="matrix(4.16667,0,0,4.16667,0,-104.637)">
        <rect x="37.097" y="112.57" width="132.545" height="22.458" style="fill:rgb(254,193,20);"/>
    </g>
    <g transform="matrix(4.16667,0,0,4.16667,434.928,439.129)">
        <path d="M0,-95.769C-36.591,-95.769 -66.262,-66.091 -66.262,-29.5L-62.574,-14.647L66.283,0L66.283,-29.5C66.283,-66.091 36.619,-95.769 0,-95.769" style="fill:rgb(246,163,27);fill-rule:nonzero;"/>
    </g>
    <g transform="matrix(-3.44114,-2.3494,-2.3494,3.44114,64.5972,331.433)">
        <path d="M-33.131,-107.284C-2.911,-86.652 4.859,-45.412 -15.773,-15.192L-33.131,10.231L-83.358,-33.718L-33.131,-107.284Z" style="fill:rgb(252,226,7);fill-rule:nonzero;"/>
    </g>
    <g transform="matrix(4.16667,0,0,4.16667,430.835,411.131)">
        <path d="M0,-91.767C-0.357,-91.767 -0.706,-91.781 -1.056,-91.781C-8.361,-91.781 -15.381,-90.554 -21.959,-88.314L-21.959,0.014L21.887,0.014L21.887,-76.899L21.887,-87.586L21.887,-91.767L0,-91.767Z" style="fill:rgb(246,163,27);fill-rule:nonzero;"/>
    </g>
    <g transform="matrix(4.16667,0,0,4.16667,430.66,35.8492)">
        <path d="M0,88.885L0,12.528L0,-1.697C-0.335,-1.697 -0.671,-1.726 -1.02,-1.726C-1.206,-1.726 -1.384,-1.697 -1.591,-1.697L-21.916,-1.697L-21.916,90.611L0,88.885Z" style="fill:rgb(254,193,20);fill-rule:nonzero;"/>
    </g>
    <g transform="matrix(4.16667,0,0,4.16667,719.99,427.308)">
        <path d="M0,0.62C-22.308,-4.552 -45.559,-7.277 -69.437,-7.277C-93.322,-7.277 -116.558,-4.552 -138.873,0.62C-140.892,0.62 -142.519,2.254 -142.519,4.258C-142.519,6.277 -140.892,7.897 -138.873,7.897L-137.988,7.897C-115.973,2.767 -93.015,0.064 -69.437,0.064C-45.851,0.064 -22.901,2.767 -0.885,7.897L0,7.897C2.012,7.897 3.645,6.277 3.645,4.258C3.645,2.254 2.012,0.62 0,0.62" style="fill:rgb(254,193,20);fill-rule:nonzero;"/>
    </g>
    <g transform="matrix(2.94428,2.94827,2.94827,-2.94428,412.368,269.499)">
        <path d="M-2.212,-10.924L20.766,-10.924L17.482,3.517L14.842,6.154L-2.212,-10.924Z" style="fill:rgb(246,163,27);fill-rule:nonzero;"/>
    </g>
    <g transform="matrix(4.16667,0,0,4.16667,944.24,348.565)">
        <path d="M0,77.163L-26.111,0.221L-8.097,0.221L7.733,51.958L24.891,0L39.273,0L56.438,51.958L72.262,0.221L89.79,0.221L63.743,77.163L49.133,77.163L31.875,27.181L14.604,77.163L0,77.163Z" style="fill:rgb(37,44,54);fill-rule:nonzero;"/>
    </g>
    <g transform="matrix(4.16667,0,0,4.16667,1358.34,335.893)">
        <path d="M0,79.674L0,0L16.63,0L16.63,29.471C18.898,26.56 21.36,24.256 24.013,22.587C26.66,20.932 29.899,20.09 33.737,20.09C39.987,20.09 44.859,22.016 48.355,25.876C51.858,29.735 53.613,35.029 53.613,41.777L53.613,79.674L37.033,79.674L37.033,47.057C37.033,43.183 36.149,40.229 34.394,38.182C32.646,36.127 30.17,35.128 26.967,35.128C23.735,35.128 21.203,36.127 19.376,38.182C17.543,40.229 16.63,43.183 16.63,47.057L16.63,79.674L0,79.674Z" style="fill:rgb(37,44,54);fill-rule:nonzero;"/>
    </g>
    <g transform="matrix(4.16667,0,0,4.16667,0,76.7458)">
        <path d="M394.753,83.349L411.311,83.349L411.311,141.87L394.753,141.87L394.753,83.349ZM394.253,62.196L411.746,62.196L411.746,76.914L394.253,76.914L394.253,62.196Z" style="fill:rgb(37,44,54);fill-rule:nonzero;"/>
    </g>
    <g transform="matrix(4.16667,0,0,4.16667,1861.03,361.837)">
        <path d="M0,74.395C-5.472,74.395 -9.674,73.082 -12.635,70.436C-15.581,67.789 -17.051,63.259 -17.051,56.881L-17.051,29.165L-24.035,29.165L-24.035,14.925L-17.051,14.925L-17.051,0L-0.435,0L-0.435,14.925L13.319,14.925L13.319,29.165L-0.435,29.165L-0.435,54.163C-0.435,56.075 0,57.494 0.849,58.429C1.705,59.335 3.061,59.806 4.901,59.806C7.876,59.806 10.623,59.107 13.112,57.73L13.112,71.035C9.31,73.296 4.937,74.395 0,74.395" style="fill:rgb(37,44,54);fill-rule:nonzero;"/>
    </g>
    <g transform="matrix(4.16667,0,0,4.16667,2016.25,566.112)">
        <path d="M0,-9.41L24.991,-9.41C24.499,-13.227 23.172,-16.237 21.017,-18.477C18.877,-20.725 16.095,-21.838 12.684,-21.838C9.31,-21.838 6.521,-20.725 4.316,-18.506C2.112,-16.28 0.678,-13.255 0,-9.41M14.283,25.747C5.436,25.747 -1.869,22.929 -7.619,17.272C-13.376,11.629 -16.244,4.373 -16.244,-4.516L-16.244,-4.73C-16.244,-10.273 -15.032,-15.36 -12.606,-19.969C-10.173,-24.584 -6.728,-28.28 -2.29,-31.019C2.154,-33.78 7.141,-35.157 12.684,-35.157C17.407,-35.157 21.616,-34.28 25.34,-32.539C29.043,-30.812 32.032,-28.444 34.294,-25.462C36.541,-22.48 38.253,-19.12 39.402,-15.36C40.565,-11.614 41.135,-7.626 41.135,-3.403C41.135,-2.54 41.071,-1.092 40.921,0.97L0.214,0.97C1.034,4.708 2.682,7.548 5.194,9.495C7.705,11.45 10.822,12.428 14.546,12.428C17.307,12.428 19.79,11.95 21.98,11.015C24.17,10.066 26.418,8.54 28.715,6.406L38.196,14.832C32.346,22.109 24.37,25.747 14.283,25.747" style="fill:rgb(37,44,54);fill-rule:nonzero;"/>
    </g>
    <g transform="matrix(4.16667,0,0,4.16667,2359.51,345.004)">
        <path d="M0,78.547C-5.893,78.547 -11.65,77.527 -17.272,75.451C-22.879,73.403 -27.923,70.371 -32.403,66.355L-22.487,54.455C-14.96,60.64 -7.355,63.737 0.321,63.737C3.767,63.737 6.463,63.094 8.425,61.825C10.373,60.533 11.35,58.778 11.35,56.545L11.35,56.324C11.35,54.847 10.958,53.592 10.18,52.6C9.396,51.601 7.897,50.61 5.672,49.632C3.453,48.662 0.214,47.642 -4.045,46.586C-6.464,45.973 -8.547,45.402 -10.309,44.838C-12.071,44.296 -13.89,43.64 -15.774,42.876C-17.657,42.113 -19.241,41.314 -20.511,40.508C-21.788,39.687 -23.036,38.71 -24.228,37.569C-25.412,36.441 -26.361,35.186 -27.067,33.816C-27.787,32.453 -28.344,30.877 -28.743,29.093C-29.164,27.324 -29.357,25.362 -29.357,23.243L-29.357,23.022C-29.357,16.138 -26.874,10.58 -21.873,6.342C-16.887,2.119 -10.466,0 -2.611,0C8.254,0 17.707,3.232 25.74,9.703L17.001,22.38C9.709,17.35 3.11,14.811 -2.825,14.811C-5.95,14.811 -8.383,15.438 -10.102,16.68C-11.814,17.935 -12.685,19.526 -12.685,21.474L-12.685,21.695C-12.685,24.135 -11.622,26.018 -9.488,27.281C-7.355,28.565 -2.904,30.056 3.838,31.754C7.919,32.846 11.379,33.973 14.204,35.2C17.029,36.427 19.526,37.932 21.688,39.702C23.857,41.485 25.447,43.604 26.489,46.065C27.509,48.548 28.03,51.416 28.03,54.676L28.03,54.89C28.03,62.317 25.462,68.11 20.332,72.29C15.196,76.457 8.425,78.547 0,78.547" style="fill:rgb(254,193,20);fill-rule:nonzero;"/>
    </g>
    <g transform="matrix(4.16667,0,0,4.16667,2650.38,479.376)">
        <path d="M0,32.224C4.58,32.224 8.261,30.704 11.029,27.623C13.797,24.548 15.189,20.774 15.189,16.301L15.189,16.087C15.189,11.642 13.733,7.854 10.844,4.679C7.947,1.526 4.266,-0.058 -0.207,-0.058C-4.787,-0.058 -8.468,1.469 -11.251,4.551C-14.019,7.618 -15.396,11.407 -15.396,15.865L-15.396,16.087C-15.396,20.517 -13.961,24.327 -11.058,27.487C-8.169,30.647 -4.48,32.224 0,32.224M-0.207,46.564C-6.143,46.564 -11.529,45.222 -16.366,42.519C-21.196,39.815 -24.969,36.155 -27.695,31.539C-30.406,26.916 -31.761,21.83 -31.761,16.301L-31.761,16.087C-31.761,11.935 -30.955,7.982 -29.336,4.244C-27.723,0.527 -25.519,-2.705 -22.729,-5.437C-19.94,-8.184 -16.58,-10.345 -12.635,-11.943C-8.689,-13.534 -4.48,-14.34 0,-14.34C5.935,-14.34 11.322,-13.006 16.137,-10.317C20.974,-7.642 24.748,-3.975 27.466,0.634C30.184,5.25 31.554,10.337 31.554,15.865L31.554,16.087C31.554,21.637 30.177,26.724 27.452,31.375C24.713,36.027 20.903,39.722 16.037,42.469C11.172,45.208 5.757,46.564 -0.207,46.564" style="fill:rgb(254,193,20);fill-rule:nonzero;"/>
    </g>
    <g transform="matrix(4.16667,0,0,4.16667,2912.6,424.016)">
        <path d="M0,59.584C-6.257,59.584 -11.129,57.658 -14.632,53.798C-18.128,49.953 -19.876,44.645 -19.876,37.903L-19.876,0L-3.31,0L-3.31,32.681C-3.31,36.548 -2.426,39.509 -0.663,41.528C1.084,43.546 3.581,44.567 6.763,44.567C9.995,44.567 12.535,43.546 14.368,41.499C16.194,39.451 17.1,36.512 17.1,32.681L17.1,0L33.737,0L33.737,58.528L17.1,58.528L17.1,50.21C14.832,53.12 12.371,55.418 9.724,57.087C7.077,58.764 3.838,59.584 0,59.584" style="fill:rgb(254,193,20);fill-rule:nonzero;"/>
    </g>
    <g transform="matrix(4.16667,0,0,4.16667,3114.67,417.993)">
        <path d="M0,59.97L0,1.449L16.615,1.449L16.615,13.234C20.318,4.274 26.532,0 35.278,0.386L35.278,17.707L34.372,17.707C28.715,17.707 24.342,19.42 21.26,22.88C18.163,26.318 16.615,31.476 16.615,38.332L16.615,59.97L0,59.97Z" style="fill:rgb(254,193,20);fill-rule:nonzero;"/>
    </g>
    <g transform="matrix(4.16667,0,0,4.16667,3412.83,419.619)">
        <path d="M0,60.904C-5.757,60.904 -10.965,59.556 -15.631,56.838C-20.311,54.119 -23.935,50.438 -26.532,45.83C-29.129,41.214 -30.427,36.141 -30.427,30.641L-30.427,30.434C-30.427,24.884 -29.129,19.811 -26.532,15.188C-23.935,10.573 -20.282,6.884 -15.56,4.138C-10.837,1.377 -5.55,0 0.271,0C5.565,0 10.052,0.835 13.762,2.483C17.45,4.138 20.739,6.578 23.614,9.809L13.426,20.732C11.379,18.57 9.331,16.943 7.305,15.873C5.272,14.825 2.882,14.282 0.114,14.282C-3.974,14.282 -7.355,15.845 -10.038,18.934C-12.72,22.059 -14.069,25.804 -14.069,30.206L-14.069,30.434C-14.069,35.014 -12.692,38.845 -9.959,41.941C-7.227,45.031 -3.631,46.564 0.799,46.564C3.424,46.564 5.779,46.065 7.84,45.031C9.902,43.989 12.035,42.455 14.233,40.393L23.935,50.203C20.774,53.684 17.35,56.331 13.669,58.157C9.995,59.984 5.443,60.904 0,60.904" style="fill:rgb(254,193,20);fill-rule:nonzero;"/>
    </g>
    <g transform="matrix(4.16667,0,0,4.16667,3606.48,566.112)">
        <path d="M0,-9.41L24.998,-9.41C24.491,-13.227 23.172,-16.237 21.017,-18.477C18.87,-20.725 16.095,-21.838 12.684,-21.838C9.303,-21.838 6.513,-20.725 4.309,-18.506C2.112,-16.28 0.678,-13.255 0,-9.41M14.275,25.747C5.436,25.747 -1.862,22.929 -7.619,17.272C-13.377,11.629 -16.252,4.373 -16.252,-4.516L-16.252,-4.73C-16.252,-10.273 -15.032,-15.36 -12.613,-19.969C-10.173,-24.584 -6.735,-28.28 -2.29,-31.019C2.147,-33.78 7.134,-35.157 12.684,-35.157C17.4,-35.157 21.623,-34.28 25.333,-32.539C29.036,-30.812 32.032,-28.444 34.294,-25.462C36.541,-22.48 38.253,-19.12 39.402,-15.36C40.572,-11.614 41.143,-7.626 41.143,-3.403C41.143,-2.54 41.064,-1.092 40.914,0.97L0.207,0.97C1.027,4.708 2.682,7.548 5.194,9.495C7.698,11.45 10.822,12.428 14.546,12.428C17.322,12.428 19.79,11.95 21.973,11.015C24.163,10.066 26.411,8.54 28.708,6.406L38.203,14.832C32.339,22.109 24.37,25.747 14.275,25.747" style="fill:rgb(254,193,20);fill-rule:nonzero;"/>
    </g>
    <g transform="matrix(4.16667,0,0,4.16667,431.595,689.348)">
        <path d="M0,-3.651C-15.895,-3.651 -28.654,-16.72 -27.838,-32.816C-27.582,-37.87 -25.94,-42.596 -23.317,-46.247L-57.644,-46.247L-58.248,-46.247L-70.342,-46.247C-72.06,-46.247 -73.238,-45.348 -73.238,-43.63L-73.238,-18.773C-73.238,-17.054 -72.06,-15.821 -70.342,-15.821L-57.875,-15.821C-56.533,-15.821 -55.345,-14.88 -54.925,-13.606C-53.946,-10.634 -52.739,-7.681 -51.325,-4.944C-50.705,-3.744 -50.926,-2.266 -51.878,-1.308L-60.757,7.645C-61.964,8.86 -61.962,10.828 -60.752,12.04L-42.99,29.841C-41.772,31.061 -39.796,31.06 -38.581,29.838L-29.667,20.873C-28.713,19.913 -27.249,19.685 -26.043,20.301C-23.432,21.636 -20.901,22.78 -18.042,23.704C-16.758,24.119 -16.037,25.311 -16.037,26.66L-16.037,39.687C-16.037,41.406 -14.34,42.596 -12.621,42.596L-0.317,42.596L-0.216,-3.651L0,-3.651Z" style="fill:rgb(37,44,54);fill-rule:nonzero;"/>
    </g>
    <g transform="matrix(4.16667,0,0,4.16667,430.695,689.348)">
        <path d="M0,-3.651C15.821,-3.651 28.654,-16.72 27.838,-32.816C27.582,-37.87 25.94,-42.596 23.317,-46.247L70.341,-46.247C72.06,-46.247 73.021,-45.348 73.021,-43.63L73.021,-18.773C73.021,-17.054 72.06,-15.821 70.341,-15.821L57.875,-15.821C56.533,-15.821 55.345,-14.88 54.925,-13.606C53.946,-10.634 52.739,-7.681 51.325,-4.944C50.705,-3.744 50.926,-2.266 51.878,-1.308L60.757,7.645C61.964,8.86 61.962,10.828 60.752,12.04L42.99,29.841C41.772,31.061 39.796,31.06 38.581,29.838L29.667,20.873C28.713,19.913 27.249,19.685 26.043,20.301C23.432,21.636 20.793,22.78 17.934,23.704C16.65,24.119 15.821,25.311 15.821,26.66L15.821,39.687C15.821,41.406 14.34,42.596 12.621,42.596L0,42.596L0,-3.651Z" style="fill:rgb(68,78,94);fill-rule:nonzero;"/>
    </g>
    <g transform="matrix(4.16667,0,0,4.16667,437.267,674.675)">
        <path d="M0,-0.028C-0.395,-0.012 -0.79,0 -1.182,0C-0.447,0 -0.365,-0.008 0,-0.028" style="fill:white;fill-rule:nonzero;"/>
    </g>
    <g transform="matrix(4.16667,0,0,4.16667,556.617,813.851)">
        <path d="M0,-8.952C-0.608,-9.564 -1.424,-9.875 -2.247,-9.863C-1.441,-9.849 -0.644,-9.539 -0.06,-8.952L8.875,0.004C9.485,0.618 10.292,0.923 11.097,0.92C10.303,0.917 9.509,0.612 8.905,0.004L0,-8.952Z" style="fill:rgb(230,230,230);fill-rule:nonzero;"/>
    </g>
    <g transform="matrix(4.16667,0,0,4.16667,548.641,606.73)">
        <path d="M0,-10.003C-0.722,4.249 -12.354,15.69 -26.606,16.412C-26.653,16.415 -26.69,16.347 -26.73,16.349C-26.637,16.345 -26.546,16.312 -26.454,16.307C-12.202,15.585 -0.621,4.267 0.101,-9.985C0.414,-16.156 -1.272,-22.767 -4.361,-26.418L-4.563,-26.418C-1.424,-22.767 0.313,-16.175 0,-10.003" style="fill:rgb(230,230,230);fill-rule:nonzero;"/>
    </g>
    <g transform="matrix(4.16667,0,0,4.16667,535.613,647.033)">
        <path d="M0,-20.459C0,-6.664 -11.183,4.512 -24.978,4.512C-25.046,4.512 -25.112,4.495 -25.18,4.494L-25.18,15.627C-25.112,15.627 -25.046,15.632 -24.978,15.632C-5.037,15.632 11.127,-0.519 11.127,-20.459C11.127,-26.065 9.85,-31.223 7.57,-36.091L-5.523,-36.091C-2.074,-32.44 0,-26.386 0,-20.459" style="fill:rgb(37,44,54);fill-rule:nonzero;"/>
    </g>
    <g transform="matrix(4.16667,0,0,4.16667,324.931,647.033)">
        <path d="M0,-20.459C0,-6.664 11.284,4.512 25.079,4.512C25.148,4.512 25.383,4.495 25.383,4.495L25.383,15.627C25.383,15.627 25.147,15.632 25.079,15.632C5.139,15.632 -11.077,-0.519 -11.077,-20.459C-11.077,-26.065 -9.85,-31.223 -7.57,-36.091L5.523,-36.091C2.074,-32.44 0,-26.386 0,-20.459" style="fill:rgb(68,78,94);fill-rule:nonzero;"/>
    </g>
</svg>
