<?xml version="1.0" encoding="UTF-8"?>
<svg width="361px" height="431px" viewBox="0 0 361 431" version="1.1" xmlns="http://www.w3.org/2000/svg" xmlns:xlink="http://www.w3.org/1999/xlink">
    <!-- Generator: Sketch 51.1 (57501) - http://www.bohemiancoding.com/sketch -->
    <title>with-texticon</title>
    <desc>Created with Sketch.</desc>
    <defs>
        <rect id="path-1" x="0.323583181" y="0" width="360.511883" height="361" rx="76"></rect>
    </defs>
    <g id="Page-1" stroke="none" stroke-width="1" fill="none" fill-rule="evenodd">
        <g id="Workshops.DE---Logo-mit-Domain" transform="translate(-132.000000, -84.000000)">
            <g id="with-text" transform="translate(132.000000, 84.000000)">
                <path d="M63.229,390.689 C63.229,391.003668 62.9340029,391.161 62.344,391.161 C61.9113312,391.161 61.5573347,391.141334 61.282,391.102 L60.81,391.102 C59.9839959,391.102 59.1973371,392.262322 58.45,394.583 C58.0173312,396.077674 57.6043353,397.572326 57.211,399.067 L55.382,404.967 C54.71333,407.012344 53.7300065,410.276978 52.432,414.761 C52.0779982,416.09834 51.7436682,416.767 51.429,416.767 C51.1536653,416.767 50.8095021,416.275338 50.3965,415.292 C49.9834979,414.308662 48.9313418,411.496357 47.24,406.855 C46.8073312,405.635661 46.1583377,403.865678 45.293,401.545 C44.702997,400.010992 44.2506682,398.732672 43.936,397.71 C42.4019923,402.036688 40.4156789,408.15296 37.977,416.059 C37.8196659,416.531002 37.5836682,416.767 37.269,416.767 C36.9543318,416.767 36.6790012,416.472003 36.443,415.882 C36.3643329,415.606665 36.1283353,414.938005 35.735,413.876 L34.319,410.1 C33.9256647,409.077328 33.1586724,406.776351 32.018,403.197 C30.8773276,399.617649 30.2086677,397.49367 30.012,396.825 C28.9106612,393.678318 28.1043359,391.869002 27.593,391.397 C27.2389982,391.239666 26.599838,391.161 25.6755,391.161 C24.751162,391.161 24.289,390.984002 24.289,390.63 C24.289,390.354665 24.5053312,390.217 24.938,390.217 L27.475,390.217 C28.7730065,390.256334 30.1889923,390.276 31.723,390.276 C32.3523365,390.276 33.00133,390.256334 33.67,390.217 L35.617,390.217 C36.1676694,390.217 36.443,390.374332 36.443,390.689 C36.443,391.043002 36.2463353,391.22 35.853,391.22 L34.378,391.161 C33.4339953,391.121666 32.962,391.318331 32.962,391.751 C32.962,392.105002 33.3356629,393.343989 34.083,395.468 C35.3810065,399.165352 36.9149911,403.806639 38.685,409.392 C40.3763418,403.885306 41.9103264,399.145687 43.287,395.173 L44.231,392.341 C44.6636688,390.846326 45.0766647,390.099 45.47,390.099 C45.8633353,390.099 46.2763312,390.787326 46.709,392.164 C47.4170035,394.484678 48.9509882,398.9293 51.311,405.498 C51.6256682,406.363338 52.077997,407.661325 52.668,409.392 L57.978,391.574 C57.978,391.259332 57.7420024,391.102 57.27,391.102 C57.1126659,391.102 56.5423383,391.121666 55.559,391.161 C55.1263312,391.161 54.91,391.003668 54.91,390.689 C54.91,390.374332 55.1853306,390.217 55.736,390.217 L62.521,390.217 C62.9930024,390.217 63.229,390.374332 63.229,390.689 Z M87.891,403.256 C87.891,407.071352 86.7306783,410.267154 84.41,412.8435 C82.0893217,415.419846 79.1983506,416.708 75.737,416.708 C72.1576488,416.708 69.1683453,415.419846 66.769,412.8435 C64.3696547,410.267154 63.17,407.071352 63.17,403.256 C63.17,399.322647 64.340155,396.058013 66.6805,393.462 C69.020845,390.865987 71.9413158,389.568 75.442,389.568 C78.9820177,389.568 81.9418214,390.87582 84.3215,393.4915 C86.7011786,396.10718 87.891,399.361981 87.891,403.256 Z M82.522,403.197 C82.522,398.870312 81.85334,395.507345 80.516,393.108 C79.5326618,391.337991 77.8806783,390.453 75.56,390.453 C73.3573223,390.453 71.6365062,391.583822 70.3975,393.8455 C69.1584938,396.107178 68.539,399.24398 68.539,403.256 C68.539,407.228687 69.1978267,410.326156 70.5155,412.5485 C71.8331733,414.770844 73.6719882,415.882 76.032,415.882 C77.8413424,415.882 79.1786623,415.193674 80.044,413.817 C81.6960083,411.220987 82.522,407.681022 82.522,403.197 Z M109.544,393.58 C109.544,394.484671 109.268669,395.231997 108.718,395.822 C108.167331,396.412003 107.459338,396.707 106.594,396.707 C105.885996,396.707 105.296002,396.500502 104.824,396.0875 C104.351998,395.674498 104.116,395.153336 104.116,394.524 C104.116,393.973331 104.292998,393.501335 104.647,393.108 C105.001002,392.714665 105.178,392.439334 105.178,392.282 C105.178,391.691997 104.745338,391.397 103.88,391.397 C102.778661,391.397 101.834671,392.085326 101.048,393.462 C100.143329,395.074675 99.691,398.063978 99.691,402.43 L99.691,414.112 C99.691,414.584002 99.858165,414.878999 100.1925,414.997 C100.526835,415.115001 101.539658,415.193666 103.231,415.233 C103.663669,415.311667 103.88,415.468999 103.88,415.705 C103.88,415.980335 103.624336,416.118 103.113,416.118 C102.208329,416.118 101.362671,416.098334 100.576,416.059 C99.7893294,416.019666 98.2946777,416 96.092,416 C94.9513276,416 94.1253359,416.019666 93.614,416.059 C93.1026641,416.098334 92.4536706,416.118 91.667,416.118 C91.0376635,416.118 90.723,415.980335 90.723,415.705 C90.723,415.429665 90.9786641,415.292 91.49,415.292 L92.316,415.292 C93.65334,415.292 94.4399988,415.134668 94.676,414.82 C94.7546671,414.662666 94.794,413.935006 94.794,412.637 L94.794,396.412 C94.794,394.248656 94.4695032,392.999835 93.8205,392.6655 C93.1714968,392.331165 92.1390071,392.144334 90.723,392.105 C90.2509976,392.105 90.015,391.967335 90.015,391.692 C90.015,391.416665 90.2116647,391.279 90.605,391.279 L91.018,391.279 C91.608003,391.279 92.197997,391.3085 92.788,391.3675 C93.3780029,391.4265 93.6336671,391.456 93.555,391.456 C95.0103406,391.456 96.6229912,391.043004 98.393,390.217 L99.16,389.863 L99.632,389.686 C99.7893341,390.630005 99.868,391.573995 99.868,392.518 L99.868,393.698 C101.126673,390.944653 102.896655,389.568 105.178,389.568 C106.436673,389.568 107.478996,389.951496 108.305,390.7185 C109.131004,391.485504 109.544,392.439328 109.544,393.58 Z M139.634,415.587 C139.634,415.862335 138.906341,416 137.451,416 C136.310328,416 135.248338,415.980334 134.265,415.941 C132.25899,415.862333 130.882337,415.823 130.135,415.823 C129.623664,415.823 128.846839,415.862333 127.8045,415.941 C126.762161,416.019667 125.985336,416.059 125.474,416.059 C125.119998,416.059 124.943,415.921335 124.943,415.646 C124.943,415.331332 125.316663,415.174 126.064,415.174 C127.952009,415.174 128.896,414.859336 128.896,414.23 C128.896,413.679331 125.592033,409.706704 118.984,402.312 L119.043,414.348 C119.082334,414.938003 119.632995,415.213334 120.695,415.174 L122.288,415.115 C122.799336,415.115 123.055,415.272332 123.055,415.587 C123.055,415.941002 122.622338,416.118 121.757,416.118 C121.835667,416.118 121.737335,416.098334 121.462,416.059 L120.046,416.059 C119.101995,416.019666 117.823675,416 116.211,416 L111.609,416 C110.664995,416 110.193,415.842668 110.193,415.528 C110.193,415.331332 110.281499,415.213334 110.4585,415.174 C110.635501,415.134666 111.313994,415.095334 112.494,415.056 C113.438005,415.016666 113.929666,414.800335 113.969,414.407 C114.047667,414.131665 114.087,413.109009 114.087,411.339 L114.087,382.488 C114.087,379.380651 114.067334,377.768001 114.028,377.65 C113.949333,377.374665 113.379005,377.237 112.317,377.237 L111.727,377.237 C111.451665,377.276334 111.137002,377.296 110.783,377.296 C110.350331,377.296 110.134,377.138668 110.134,376.824 C110.134,376.509332 110.586329,376.352 111.491,376.352 C113.379009,376.312666 115.345656,375.742339 117.391,374.641 C117.863002,374.365665 118.177666,374.228 118.335,374.228 C118.767669,374.228 118.984,375.860317 118.984,379.125 L118.984,400.896 C125.356032,395.192638 128.542,392.046003 128.542,391.456 C128.542,391.219999 127.775008,391.102 126.241,391.102 L125.887,391.102 C125.650999,391.141334 125.356002,391.161 125.002,391.161 L124.412,391.161 C123.703996,391.161 123.35,391.003668 123.35,390.689 C123.35,390.334998 123.959661,390.158 125.179,390.158 L127.598,390.158 L129.781,390.217 L133.439,390.217 C134.855007,390.217 135.680999,390.236666 135.917,390.276 C136.153001,390.315334 136.271,390.452999 136.271,390.689 C136.271,390.964335 135.346676,391.121666 133.498,391.161 C132.16066,391.200334 131.354335,391.298666 131.079,391.456 C130.606998,391.731335 130.154669,392.085331 129.722,392.518 L122.347,399.657 C127.814361,405.635697 131.688655,410.021319 133.97,412.814 C134.914005,413.954672 135.661331,414.642999 136.212,414.879 C136.644669,415.075668 137.608326,415.154334 139.103,415.115 C139.457002,415.115 139.634,415.272332 139.634,415.587 Z M157.098,408.507 C157.098,410.788345 156.262175,412.725492 154.5905,414.3185 C152.918825,415.911508 150.922678,416.708 148.602,416.708 C147.26466,416.708 145.632343,416.236005 143.705,415.292 C143.193664,415.016665 142.741335,414.879 142.348,414.879 C141.797331,414.879 141.384335,415.252663 141.109,416 C140.951666,416.472002 140.735335,416.708 140.46,416.708 C140.184665,416.708 140.047,416.550668 140.047,416.236 C140.047,416.039332 140.066666,415.803335 140.106,415.528 C140.224001,414.741329 140.283,413.581008 140.283,412.047 C140.283,411.928999 140.263334,411.457004 140.224,410.631 C140.184666,409.804996 140.165,409.254335 140.165,408.979 L140.165,408.33 C140.165,407.897331 140.302665,407.681 140.578,407.681 C140.892668,407.681 141.069666,407.897331 141.109,408.33 C141.345001,410.139342 141.856329,411.555328 142.643,412.578 C144.216341,414.623344 146.320653,415.646 148.956,415.646 C150.372007,415.646 151.512662,415.233004 152.378,414.407 C153.243338,413.580996 153.676,412.479674 153.676,411.103 C153.676,409.568992 153.184338,408.349671 152.201,407.445 C151.650331,406.933664 151.148836,406.569834 150.6965,406.3535 C150.244164,406.137166 148.916678,405.616004 146.714,404.79 C142.347978,403.137992 140.165,400.660017 140.165,397.356 C140.165,395.153322 140.912326,393.304674 142.407,391.81 C143.901674,390.315326 145.750322,389.568 147.953,389.568 C148.739671,389.568 149.919659,389.803998 151.493,390.276 C151.886335,390.394001 152.240332,390.453 152.555,390.453 C153.381004,390.453 153.892332,390.059671 154.089,389.273 C154.207001,388.879665 154.383999,388.683 154.62,388.683 C154.895335,388.683 155.033,388.840332 155.033,389.155 C155.033,389.194334 155.013334,389.312332 154.974,389.509 L154.915,391.987 C154.875666,392.931005 154.973999,394.445323 155.21,396.53 L155.21,396.648 C155.21,396.962668 155.052668,397.12 154.738,397.12 C154.501999,397.12 154.207002,396.530006 153.853,395.35 C153.420331,393.933993 152.663172,392.793338 151.5815,391.928 C150.499828,391.062662 149.251007,390.63 147.835,390.63 C146.49766,390.63 145.396338,391.042996 144.531,391.869 C143.665662,392.695004 143.233,393.737327 143.233,394.996 C143.233,396.962677 144.550653,398.457328 147.186,399.48 C151.276687,401.092675 153.872661,402.429995 154.974,403.492 C156.390007,404.868674 157.098,406.540324 157.098,408.507 Z M186.598,415.646 C186.598,415.960668 186.26367,416.118 185.595,416.118 C185.280332,416.118 184.985335,416.098334 184.71,416.059 C183.333326,416.098334 180.265357,416.118 175.506,416.118 L174.857,416.118 C174.345664,416.118 174.09,415.960668 174.09,415.646 C174.09,415.370665 174.837326,415.233 176.332,415.233 C177.236671,415.233 177.757833,415.124834 177.8955,414.9085 C178.033167,414.692166 178.102,413.954673 178.102,412.696 L178.102,400.719 C178.102,397.139649 177.944668,394.917338 177.63,394.052 C176.96133,392.242658 175.486345,391.338 173.205,391.338 C171.316991,391.338 169.783006,392.183658 168.603,393.875 C168.209665,394.425669 168.013,395.644991 168.013,397.533 L168.013,412.578 C168.013,413.640005 168.032666,414.249666 168.072,414.407 C168.111334,414.800335 168.268665,415.0265 168.544,415.0855 C168.819335,415.1445 169.664993,415.193666 171.081,415.233 C171.553002,415.233 171.789,415.390332 171.789,415.705 C171.789,415.980335 171.592335,416.118 171.199,416.118 L170.609,416.059 L165.948,416 C162.683317,415.960666 160.874002,415.999999 160.52,416.118 L159.93,416.118 C159.497331,416.118 159.281,415.980335 159.281,415.705 C159.281,415.390332 159.497331,415.233 159.93,415.233 L160.815,415.233 L161.7,415.174 C162.604671,415.213334 163.076666,414.938003 163.116,414.348 L163.116,387.857 C163.116,381.563635 163.017668,378.161336 162.821,377.65 C162.584999,377.256665 161.621342,377.040334 159.93,377.001 C158.985995,377.001 158.514,376.863335 158.514,376.588 C158.514,376.351999 158.612332,376.214334 158.809,376.175 C159.005668,376.135666 159.674328,376.096334 160.815,376.057 C162.82101,376.017666 164.748324,375.545671 166.597,374.641 C166.754334,374.562333 167.029665,374.464001 167.423,374.346 C167.698335,374.818002 167.836,376.332321 167.836,378.889 L167.836,393.344 C169.566675,390.826654 171.926652,389.568 174.916,389.568 C178.062682,389.568 180.30466,390.433325 181.642,392.164 C182.31067,393.029338 182.723666,394.248659 182.881,395.822 C182.959667,396.372669 182.999,397.690323 182.999,399.775 L182.999,414.643 C183.038334,415.036335 184.06099,415.233 186.067,415.233 C186.421002,415.311667 186.598,415.449332 186.598,415.646 Z M213.325,403.256 C213.325,407.071352 212.164678,410.267154 209.844,412.8435 C207.523322,415.419846 204.632351,416.708 201.171,416.708 C197.591649,416.708 194.602345,415.419846 192.203,412.8435 C189.803655,410.267154 188.604,407.071352 188.604,403.256 C188.604,399.322647 189.774155,396.058013 192.1145,393.462 C194.454845,390.865987 197.375316,389.568 200.876,389.568 C204.416018,389.568 207.375821,390.87582 209.7555,393.4915 C212.135179,396.10718 213.325,399.361981 213.325,403.256 Z M207.956,403.197 C207.956,398.870312 207.28734,395.507345 205.95,393.108 C204.966662,391.337991 203.314678,390.453 200.994,390.453 C198.791322,390.453 197.070506,391.583822 195.8315,393.8455 C194.592494,396.107178 193.973,399.24398 193.973,403.256 C193.973,407.228687 194.631827,410.326156 195.9495,412.5485 C197.267173,414.770844 199.105988,415.882 201.466,415.882 C203.275342,415.882 204.612662,415.193674 205.478,413.817 C207.130008,411.220987 207.956,407.681022 207.956,403.197 Z M242.117,402.902 C242.117,406.835353 241.005844,410.119653 238.7835,412.755 C236.561156,415.390347 233.798017,416.708 230.494,416.708 C227.897987,416.708 225.892007,415.764009 224.476,413.876 L224.476,427.623 C224.476,428.488338 224.5055,428.999666 224.5645,429.157 C224.6235,429.314334 224.810332,429.451999 225.125,429.57 C225.715003,429.688001 226.855658,429.747 228.547,429.747 C229.019002,429.747 229.255,429.923998 229.255,430.278 C229.255,430.553335 228.999336,430.691 228.488,430.691 L226.01,430.691 C225.419997,430.651666 224.908669,430.632 224.476,430.632 C224.239999,430.632 223.591005,430.651666 222.529,430.691 L216.924,430.691 C215.783328,430.691 215.213,430.553335 215.213,430.278 C215.213,429.923998 215.448998,429.747 215.921,429.747 L217.691,429.747 C218.831672,429.747 219.441333,429.491336 219.52,428.98 C219.559334,428.743999 219.579,426.934684 219.579,423.552 L219.579,394.17 C219.579,393.068661 219.048005,392.557333 217.986,392.636 C216.412659,392.557333 215.586667,392.518 215.508,392.518 C215.153998,392.518 214.977,392.380335 214.977,392.105 C214.977,391.750998 215.409662,391.574 216.275,391.574 C218.438344,391.613334 220.404991,391.102005 222.175,390.04 C222.686336,389.725332 223.079665,389.568 223.355,389.568 C223.669668,389.568 223.876166,389.715499 223.9745,390.0105 C224.072834,390.305501 224.141666,391.200326 224.181,392.695 C225.636341,390.610323 227.720986,389.568 230.435,389.568 C233.857017,389.568 236.659489,390.816821 238.8425,393.3145 C241.025511,395.812179 242.117,399.007981 242.117,402.902 Z M236.866,402.961 C236.866,399.892985 236.394005,397.277344 235.45,395.114 C234.191327,392.124652 232.244347,390.63 229.609,390.63 C228.232326,390.63 227.052338,391.111829 226.069,392.0755 C225.085662,393.039171 224.554667,394.209326 224.476,395.586 C224.397333,397.316675 224.416999,400.954972 224.535,406.501 C224.574334,409.293681 224.633333,410.975164 224.712,411.5455 C224.790667,412.115836 225.046331,412.695997 225.479,413.286 C226.619672,414.898675 228.094658,415.705 229.904,415.705 C231.949344,415.705 233.483328,414.839675 234.506,413.109 C236.079341,410.473653 236.866,407.091021 236.866,402.961 Z M263.77,408.507 C263.77,410.788345 262.934175,412.725492 261.2625,414.3185 C259.590825,415.911508 257.594678,416.708 255.274,416.708 C253.93666,416.708 252.304343,416.236005 250.377,415.292 C249.865664,415.016665 249.413335,414.879 249.02,414.879 C248.469331,414.879 248.056335,415.252663 247.781,416 C247.623666,416.472002 247.407335,416.708 247.132,416.708 C246.856665,416.708 246.719,416.550668 246.719,416.236 C246.719,416.039332 246.738666,415.803335 246.778,415.528 C246.896001,414.741329 246.955,413.581008 246.955,412.047 C246.955,411.928999 246.935334,411.457004 246.896,410.631 C246.856666,409.804996 246.837,409.254335 246.837,408.979 L246.837,408.33 C246.837,407.897331 246.974665,407.681 247.25,407.681 C247.564668,407.681 247.741666,407.897331 247.781,408.33 C248.017001,410.139342 248.528329,411.555328 249.315,412.578 C250.888341,414.623344 252.992653,415.646 255.628,415.646 C257.044007,415.646 258.184662,415.233004 259.05,414.407 C259.915338,413.580996 260.348,412.479674 260.348,411.103 C260.348,409.568992 259.856338,408.349671 258.873,407.445 C258.322331,406.933664 257.820836,406.569834 257.3685,406.3535 C256.916164,406.137166 255.588678,405.616004 253.386,404.79 C249.019978,403.137992 246.837,400.660017 246.837,397.356 C246.837,395.153322 247.584326,393.304674 249.079,391.81 C250.573674,390.315326 252.422322,389.568 254.625,389.568 C255.411671,389.568 256.591659,389.803998 258.165,390.276 C258.558335,390.394001 258.912332,390.453 259.227,390.453 C260.053004,390.453 260.564332,390.059671 260.761,389.273 C260.879001,388.879665 261.055999,388.683 261.292,388.683 C261.567335,388.683 261.705,388.840332 261.705,389.155 C261.705,389.194334 261.685334,389.312332 261.646,389.509 L261.587,391.987 C261.547666,392.931005 261.645999,394.445323 261.882,396.53 L261.882,396.648 C261.882,396.962668 261.724668,397.12 261.41,397.12 C261.173999,397.12 260.879002,396.530006 260.525,395.35 C260.092331,393.933993 259.335172,392.793338 258.2535,391.928 C257.171828,391.062662 255.923007,390.63 254.507,390.63 C253.16966,390.63 252.068338,391.042996 251.203,391.869 C250.337662,392.695004 249.905,393.737327 249.905,394.996 C249.905,396.962677 251.222653,398.457328 253.858,399.48 C257.948687,401.092675 260.544661,402.429995 261.646,403.492 C263.062007,404.868674 263.77,406.540324 263.77,408.507 Z M276.042,413.227 C276.042,414.092338 275.73717,414.82983 275.1275,415.4395 C274.51783,416.04917 273.780338,416.354 272.915,416.354 C272.010329,416.354 271.25317,416.04917 270.6435,415.4395 C270.03383,414.82983 269.729,414.072671 269.729,413.168 C269.729,412.302662 270.03383,411.56517 270.6435,410.9555 C271.25317,410.34583 272.010329,410.041 272.915,410.041 C273.780338,410.041 274.51783,410.34583 275.1275,410.9555 C275.73717,411.56517 276.042,412.322329 276.042,413.227 Z M308.787,414.82 C308.787,415.095335 308.511669,415.233 307.961,415.233 L307.666,415.233 C307.351332,415.233 307.017002,415.213334 306.663,415.174 L306.191,415.174 C304.263657,415.174 302.63134,415.567329 301.294,416.354 C300.743331,416.668668 300.409001,416.826 300.291,416.826 C299.936998,416.826 299.76,416.590002 299.76,416.118 L299.819,414.289 C298.127658,415.901675 296.121678,416.708 293.801,416.708 C290.496983,416.708 287.773177,415.439513 285.6295,412.9025 C283.485823,410.365487 282.414,407.130353 282.414,403.197 C282.414,399.145646 283.485823,395.861346 285.6295,393.344 C287.773177,390.826654 290.575649,389.568 294.037,389.568 C296.71168,389.568 298.71766,390.531657 300.055,392.459 L300.055,383.255 C300.055,380.265652 299.917335,378.417004 299.642,377.709 C299.405999,377.118997 299.052002,376.843666 298.58,376.883 C297.439328,377.001001 296.751001,377.06 296.515,377.06 C296.003664,377.06 295.748,376.883002 295.748,376.529 C295.748,376.174998 295.964331,375.998 296.397,375.998 L298.521,376.057 C299.701006,376.096334 301.510321,375.545672 303.949,374.405 C304.106334,374.326333 304.243999,374.287 304.362,374.287 C304.755335,374.287 304.952,374.758995 304.952,375.703 L304.952,376.942 C304.912666,377.571336 304.893,378.121998 304.893,378.594 L304.893,398.949 C304.893,408.271047 304.991332,413.26633 305.188,413.935 C305.266667,414.210335 306.190991,414.348 307.961,414.348 C308.511669,414.348 308.787,414.505332 308.787,414.82 Z M300.055,400.011 C300.055,396.234981 299.642004,393.816005 298.816,392.754 C297.753995,391.41666 296.397008,390.748 294.745,390.748 C292.620989,390.748 290.929673,391.849322 289.671,394.052 C288.412327,396.254678 287.783,399.204648 287.783,402.902 C287.783,406.442018 288.333661,409.470654 289.435,411.988 C289.907002,413.050005 290.605162,413.925163 291.5295,414.6135 C292.453838,415.301837 293.407662,415.646 294.391,415.646 C295.610339,415.646 296.711662,415.28217 297.695,414.5545 C298.678338,413.82683 299.317499,412.951672 299.6125,411.929 C299.907501,410.906328 300.055,406.933701 300.055,400.011 Z M332.505,409.569 C332.505,409.962335 332.20017,410.660495 331.5905,411.6635 C330.98083,412.666505 330.361336,413.482664 329.732,414.112 C328.040658,415.842675 325.779014,416.708 322.947,416.708 C319.406982,416.708 316.447179,415.429679 314.0675,412.873 C311.687821,410.316321 310.498,407.150019 310.498,403.374 C310.498,399.440647 311.628822,396.156347 313.8905,393.521 C316.152178,390.885653 318.974316,389.568 322.357,389.568 C325.149681,389.568 327.489991,390.384159 329.378,392.0165 C331.266009,393.648841 332.268999,395.743321 332.387,398.3 C331.128327,398.496668 329.456677,398.575334 327.372,398.536 L323.242,398.477 C322.966665,398.477 320.606689,398.535999 316.162,398.654 C315.965332,399.952006 315.867,401.190994 315.867,402.371 C315.867,406.343687 316.624159,409.401823 318.1385,411.5455 C319.652841,413.689177 321.786653,414.761 324.54,414.761 C326.113341,414.761 327.371995,414.407004 328.316,413.699 C329.260005,412.990996 330.282661,411.63401 331.384,409.628 C331.541334,409.313332 331.757665,409.156 332.033,409.156 C332.347668,409.156 332.505,409.293665 332.505,409.569 Z M327.372,397.533 C327.214666,392.812976 325.523349,390.453 322.298,390.453 C319.111984,390.453 317.125671,392.812976 316.339,397.533 L327.372,397.533 Z" id="path-workshops.de" fill="#000000"></path>
                <g id="workshops-de-logo" transform="translate(26.000000, 361.000000)"></g>
                <mask id="mask-2" fill="white">
                    <use xlink:href="#path-1"></use>
                </mask>
                <use id="Mask-Copy" fill="#5FA1EE" xlink:href="#path-1"></use>
                <path d="M-12.8792987,-45.5166222 C-12.8792987,46.6427924 49.2915946,264.917758 97.0049952,271.265806 C144.718396,277.613854 165.30172,133.314235 198.05105,127.001308 C230.800379,120.688381 227.062503,276.254348 297.704401,243.707602 C339.982236,224.228993 419.394477,51.0581457 431.811037,-19.4520876" id="Line" stroke="#FFFFFF" stroke-width="59" stroke-linecap="square" mask="url(#mask-2)"></path>
            </g>
        </g>
    </g>
</svg>