<svg width="1843" height="331" viewBox="0 0 1843 331" fill="none" xmlns="http://www.w3.org/2000/svg">
<path fill-rule="evenodd" clip-rule="evenodd" d="M863.01 206.323V236.113H836.523V70.6133H863.01V174.327L906.05 121.367H935.847L896.117 167.707L940.261 236.113H910.464L880.667 186.463L863.01 206.323ZM667.674 239.423C674.512 239.196 681.248 237.7 687.538 235.01C694.16 231.7 700.781 228.39 705.196 223.977C715.854 211.741 721.733 196.068 721.75 179.843C721.75 168.81 720.646 161.087 717.335 153.363C714.025 145.64 710.714 139.02 706.299 134.607C700.781 129.09 695.263 124.677 687.538 122.47C680.878 119.802 673.753 118.485 666.578 118.598C659.404 118.71 652.324 120.249 645.75 123.124C639.176 125.999 633.241 130.154 628.289 135.345C623.337 140.537 619.469 146.662 616.908 153.363C613.598 161.087 612.494 168.81 612.494 178.74C612.494 188.67 613.598 196.393 616.908 204.117C619.633 211.131 623.764 217.514 629.048 222.873C633.931 228.229 639.905 232.477 646.567 235.332C653.23 238.186 660.427 239.582 667.674 239.423ZM494.41 236.113L507.653 183.153C510.184 171.817 512.392 160.412 514.274 148.95H515.378C517.972 159.979 520.547 171.012 523.103 182.05L536.346 236.113H568.35L595.94 121.367H570.557L557.314 180.947C554.801 191.916 552.593 202.954 550.693 214.047C548.182 202.998 545.607 191.965 542.968 180.947L528.621 121.367H503.238L488.892 180.947C485.864 191.87 483.287 202.912 481.166 214.047C478.56 203.097 476.351 192.056 474.545 180.947L460.198 121.367H433.712L463.509 236.113H494.41ZM647.809 206.323C652.223 212.943 658.845 217.357 667.674 217.357C671.674 217.491 675.636 216.536 679.135 214.592C682.634 212.649 685.539 209.79 687.538 206.323C691.953 199.703 694.16 189.773 694.16 178.74C694.16 167.707 691.953 156.673 687.538 151.157C685.539 147.69 682.634 144.831 679.135 142.888C675.636 140.944 671.674 139.989 667.674 140.123C663.673 139.989 659.711 140.944 656.212 142.888C652.713 144.831 649.808 147.69 647.809 151.157C642.291 157.777 640.084 166.603 640.084 178.74C640.084 189.773 642.291 199.703 647.809 206.323ZM775.826 236.113V165.5C779.137 156.673 783.551 151.157 789.069 147.847C791.81 145.589 794.994 143.931 798.416 142.981C801.837 142.031 805.421 141.809 808.934 142.33L814.451 143.433L819.969 121.367C816.659 119.16 812.244 118.057 806.726 118.057C800.105 118.057 794.587 120.263 789.069 124.677C782.447 127.987 778.033 133.503 773.619 141.227L771.411 121.367H749.34V236.113H775.826ZM989.923 239.423C997.648 239.423 1004.27 238.32 1009.79 236.113C1015.31 233.907 1020.82 231.7 1024.13 228.39C1027.7 225.207 1030.53 221.29 1032.43 216.91C1034.34 212.529 1035.27 207.789 1035.17 203.013C1035.17 197.497 1035.17 193.083 1031.86 189.773C1030.76 185.36 1027.44 182.05 1024.13 179.843L1013.1 173.223C1006.67 170.175 1000.03 167.593 993.234 165.5L985.508 161.087C983.301 161.087 981.094 158.88 979.99 156.673C978.639 155.145 977.859 153.195 977.783 151.157C977.783 147.847 979.99 144.537 982.198 142.33C985.508 140.123 988.819 139.02 995.441 139.02C999.855 139.02 1004.27 139.02 1007.58 141.227L1020.82 148.95L1031.86 132.4C1028.55 127.987 1023.03 124.677 1016.41 121.367C1009.79 119.16 1002.06 118.057 994.337 118.057C981.094 118.057 972.265 121.367 963.437 127.987C956.815 134.607 952.401 142.33 952.401 152.26C952.401 157.777 953.504 162.19 955.711 165.5L963.437 174.327C973.066 180.72 983.444 185.908 994.337 189.773L1002.06 194.187C1004.27 194.187 1006.48 196.393 1007.58 198.6L1009.79 204.117C1009.79 208.53 1007.58 211.84 1005.37 215.15C1002.06 217.357 997.648 218.46 991.026 218.46L974.472 215.15L959.022 205.22L946.883 222.873C959.476 232.92 974.931 238.714 991.026 239.423H989.923ZM1085.94 155.57V236.113H1059.45V70.6133H1085.94V135.71L1101.39 123.573C1106.9 120.263 1113.52 118.057 1122.35 118.057C1133.39 118.057 1143.32 122.47 1148.84 129.09C1154.36 137.917 1157.67 148.95 1157.67 164.397V236.113H1130.08V167.707C1130.08 157.777 1128.98 151.157 1125.66 146.743C1123.46 143.433 1119.04 141.227 1112.42 141.227C1106.9 141.227 1102.49 142.33 1099.18 144.537L1085.94 155.57ZM1237.13 239.423C1244.34 239.336 1251.46 237.837 1258.1 235.01L1274.65 223.977C1280.17 218.46 1284.58 211.84 1286.79 204.117C1293.41 187.847 1293.41 169.633 1286.79 153.363C1284.58 145.64 1280.17 139.02 1275.75 134.607C1269.38 128.331 1261.55 123.734 1252.97 121.226C1244.38 118.718 1235.31 118.378 1226.56 120.237C1217.81 122.095 1209.66 126.094 1202.84 131.876C1196.02 137.657 1190.73 145.04 1187.47 153.363C1181.07 169.676 1181.07 187.804 1187.47 204.117C1189.86 211.039 1193.61 217.416 1198.5 222.873C1203.38 228.229 1209.36 232.477 1216.02 235.332C1222.68 238.186 1229.88 239.582 1237.13 239.423ZM1217.26 206.323C1221.68 212.943 1228.3 217.357 1237.13 217.357C1241.13 217.491 1245.09 216.536 1248.59 214.592C1252.09 212.649 1254.99 209.79 1256.99 206.323C1261.41 199.703 1263.61 189.773 1263.61 178.74C1263.61 167.707 1261.41 156.673 1256.99 151.157C1254.99 147.69 1252.09 144.831 1248.59 142.888C1245.09 140.944 1241.13 139.989 1237.13 140.123C1233.13 139.989 1229.16 140.944 1225.67 142.888C1222.17 144.831 1219.26 147.69 1217.26 151.157C1212.85 157.777 1209.54 166.603 1209.54 178.74C1209.54 189.773 1212.85 199.703 1217.26 206.323ZM1345.28 281.35V226.183C1349.69 230.597 1354.11 233.907 1359.63 236.113C1364.04 238.32 1369.56 239.423 1373.97 239.423C1380.51 239.171 1386.92 237.57 1392.81 234.722C1398.7 231.874 1403.93 227.84 1408.18 222.873C1412.6 217.357 1417.01 211.84 1419.22 203.013C1424.55 186.569 1424.94 168.921 1420.32 152.26C1418.47 145.893 1415.48 139.913 1411.5 134.607C1407.73 129.369 1402.76 125.125 1396.99 122.241C1391.22 119.358 1384.84 117.922 1378.39 118.057C1371.77 118.057 1365.14 119.16 1359.63 122.47L1343.07 133.503L1340.87 121.367H1318.79V281.35H1345.28ZM1357.42 215.15L1368.46 216.253C1376.18 216.253 1382.8 212.943 1388.32 206.323C1392.73 199.703 1396.04 189.773 1396.04 176.533C1396.04 165.5 1393.84 156.673 1389.42 150.053C1386.11 143.433 1378.39 140.123 1370.66 140.123C1362.94 140.123 1354.11 144.537 1345.28 153.363V207.427L1357.42 214.047V215.15ZM1482.12 239.423C1489.85 239.423 1496.47 238.32 1501.99 236.113C1507.51 233.907 1513.03 231.7 1516.34 228.39C1519.9 225.207 1522.73 221.29 1524.63 216.91C1526.54 212.529 1527.47 207.789 1527.37 203.013C1527.37 197.497 1527.37 193.083 1524.06 189.773C1522.96 185.36 1519.65 182.05 1516.34 179.843L1505.3 173.223C1498.87 170.175 1492.23 167.593 1485.44 165.5L1477.71 161.087C1475.5 161.087 1473.3 158.88 1472.19 156.673C1470.84 155.145 1470.06 153.195 1469.99 151.157C1469.99 147.847 1472.19 144.537 1474.4 142.33C1477.71 140.123 1481.02 139.02 1487.64 139.02C1492.06 139.02 1496.47 139.02 1499.78 141.227L1513.03 148.95L1524.06 132.4C1520.75 127.987 1515.23 124.677 1508.61 121.367C1501.99 119.16 1494.26 118.057 1486.54 118.057C1474.4 118.057 1464.47 121.367 1455.64 127.987C1449.02 134.607 1444.6 142.33 1444.6 152.26C1444.6 157.777 1445.71 162.19 1447.91 165.5L1455.64 174.327C1465.27 180.711 1475.65 185.898 1486.54 189.773L1494.26 194.187C1496.47 194.187 1498.68 196.393 1499.78 198.6L1501.99 204.117C1501.99 208.53 1500.89 211.84 1497.58 215.15C1494.26 217.357 1489.85 218.46 1483.23 218.46L1466.67 215.15L1451.22 205.22L1439.08 222.873C1451.68 232.92 1467.13 238.714 1483.23 239.423H1482.12ZM1579.24 233.907C1577.69 235.761 1575.75 237.253 1573.55 238.277C1571.36 239.3 1568.97 239.831 1566.55 239.831C1564.13 239.831 1561.74 239.3 1559.55 238.277C1557.35 237.253 1555.41 235.761 1553.86 233.907C1550.55 230.597 1549.44 226.183 1549.44 220.667C1549.44 215.15 1550.55 210.737 1553.86 207.427C1557.17 204.117 1561.58 201.91 1567.1 201.91C1571.52 201.91 1575.93 204.117 1578.14 207.427C1582.55 210.737 1583.66 215.15 1583.66 220.667C1583.66 226.183 1582.55 230.597 1579.24 233.907ZM1656.49 239.423C1662.01 239.423 1667.53 237.217 1674.15 233.907C1679.67 231.7 1685.19 228.39 1688.5 222.873H1689.6L1691.81 236.113H1713.88V70.6133H1686.29V112.54L1687.39 131.297C1683.41 127.446 1678.96 124.11 1674.15 121.367C1668.62 118.799 1662.59 117.469 1656.49 117.469C1650.39 117.469 1644.37 118.799 1638.84 121.367C1633.32 124.677 1627.8 129.09 1623.39 134.607C1618.97 139.02 1615.66 145.64 1612.35 153.363C1610.14 161.087 1609.04 168.81 1609.04 178.74C1609.04 197.497 1613.45 211.84 1621.18 222.873C1630.01 233.907 1642.15 239.423 1656.49 239.423ZM1643.25 206.323C1647.66 212.943 1654.29 217.357 1663.11 217.357C1670.84 217.357 1679.67 211.84 1687.39 204.117V150.053L1675.25 142.33C1671.73 140.97 1668 140.224 1664.22 140.123C1655.39 140.123 1649.87 143.433 1644.35 151.157C1638.78 159.237 1636.06 168.943 1636.63 178.74C1636.63 190.877 1638.84 200.807 1643.25 207.427V206.323ZM1797.75 239.423C1804.37 239.423 1811 237.217 1818.72 235.01C1825.34 232.803 1830.86 230.597 1836.38 226.183L1827.55 209.633L1814.31 216.253L1801.06 218.46C1792.49 218.631 1784.18 215.466 1777.89 209.633C1771.27 204.117 1767.96 196.393 1766.85 186.463H1839.69V179.843C1840.76 170.227 1840.01 160.496 1837.48 151.157C1836.38 144.537 1833.07 137.917 1828.65 133.503C1825.34 129.09 1819.82 124.677 1814.31 122.47C1807.89 119.577 1800.93 118.08 1793.89 118.08C1786.85 118.08 1779.89 119.577 1773.47 122.47C1766.85 124.677 1762.44 129.09 1756.92 133.503C1751.4 139.02 1748.09 145.64 1745.88 153.363C1741.47 161.087 1740.37 168.81 1740.37 178.74C1740.37 188.67 1741.47 196.393 1744.78 204.117C1747.37 211.027 1751.36 217.333 1756.48 222.646C1761.61 227.959 1767.76 232.167 1774.58 235.01C1782.3 237.217 1788.92 239.423 1796.65 239.423H1797.75ZM1766.85 167.707H1817.62C1817.62 158.88 1815.41 152.26 1812.1 145.64C1807.68 141.227 1801.06 139.02 1794.44 139.02C1786.72 139.02 1781.2 141.227 1775.68 146.743C1771.27 151.157 1767.96 157.777 1766.85 167.707Z" fill="black"/>
<mask id="mask0" mask-type="alpha" maskUnits="userSpaceOnUse" x="0" y="0" width="331" height="331">
<path d="M261.221 0H69.7786C31.2409 0 0 31.1987 0 69.6842V261.316C0 299.801 31.2409 331 69.7786 331H261.221C299.759 331 331 299.801 331 261.316V69.6842C331 31.1987 299.759 0 261.221 0Z" fill="white"/>
</mask>
<g mask="url(#mask0)">
<path d="M261.221 0H69.7786C31.2409 0 0 31.1987 0 69.6842V261.316C0 299.801 31.2409 331 69.7786 331H261.221C299.759 331 331 299.801 331 261.316V69.6842C331 31.1987 299.759 0 261.221 0Z" fill="#5FA1EE"/>
<path fill-rule="evenodd" clip-rule="evenodd" d="M14.9626 -68.7827V-41.7342C14.9626 -3.516 28.3163 64.5867 47.6789 124.719C57.2876 154.56 67.9108 180.952 78.2535 199.731C83.4599 209.184 88.0523 215.703 91.7121 219.643C91.8073 219.746 91.9006 219.845 91.9918 219.941C92.9235 218.933 94.0984 217.516 95.5207 215.539C101.928 206.636 108.314 193.097 115.347 176.432C116.91 172.731 118.52 168.832 120.166 164.846C125.337 152.325 130.863 138.944 136.378 128.115C140.079 120.846 144.535 113.143 149.931 106.691C154.986 100.648 163.629 92.3487 176.414 89.8875C192.794 86.7344 204.998 95.079 211.738 102.693C217.8 109.541 221.771 118.047 224.494 124.739C227.401 131.884 230.023 139.933 232.411 147.424C232.836 148.755 233.255 150.074 233.67 151.384C235.699 157.776 237.651 163.925 239.788 169.984C245.283 185.561 250.217 194.932 254.579 199.207C255.468 200.078 256.007 200.407 256.232 200.513C256.632 200.529 258.289 200.455 261.671 198.903C261.67 198.903 261.67 198.903 261.67 198.903C261.669 198.901 262.323 198.561 263.639 197.497C265.072 196.337 266.911 194.625 269.136 192.228C273.62 187.395 278.843 180.672 284.616 172.152C296.144 155.138 308.633 132.794 320.554 108.467C344.711 59.1672 364.456 6.02445 369.49 -22.5267L374.188 -49.1653L427.537 -39.7834L422.84 -13.1448C416.474 22.9547 394.063 81.5273 369.21 132.245C356.626 157.927 342.897 182.667 329.48 202.468C322.781 212.355 315.85 221.472 308.873 228.994C302.244 236.139 293.989 243.596 284.37 248.021C272.553 253.458 259.97 255.994 247.24 253.864C234.447 251.723 224.31 245.339 216.634 237.814C202.457 223.918 194.209 203.587 188.696 187.958C186.245 181.012 183.987 173.894 181.957 167.496C181.561 166.246 181.173 165.024 180.794 163.836C180.595 163.211 180.398 162.596 180.204 161.99C177.255 168.531 174.26 175.779 170.994 183.681C169.18 188.07 167.283 192.66 165.264 197.444C158.339 213.852 149.907 232.661 139.51 247.109C129.877 260.496 111.971 279.093 85.1944 275.535C70.4288 273.573 59.3301 264.328 51.9957 256.431C44.1487 247.982 37.0945 237.25 30.7891 225.802C18.1081 202.777 6.24704 172.763 -3.89062 141.28C-24.0206 78.7639 -39.2076 4.54826 -39.2076 -41.7342V-68.7827H14.9626ZM192.302 140.52C192.302 140.527 192.234 140.597 192.095 140.711C192.232 140.571 192.301 140.514 192.302 140.52ZM256.193 200.511C256.195 200.511 256.197 200.511 256.198 200.512C256.114 200.506 256.116 200.498 256.193 200.511ZM256.251 200.522C256.32 200.537 256.355 200.554 256.355 200.558C256.354 200.561 256.32 200.554 256.251 200.522ZM89.2843 222.266C89.2847 222.249 89.3993 222.174 89.6267 222.092C89.3975 222.241 89.2838 222.282 89.2843 222.266Z" fill="white"/>
</g>
</svg>
