<svg width="198" height="48" fill="none" xmlns="http://www.w3.org/2000/svg"><g clip-path="url(#clip0_85_178)" fill-rule="evenodd" clip-rule="evenodd"><path d="M14.077 32.369c-.528-.65-1.278-1.171-2.229-1.55-.939-.373-2.061-.696-3.334-.96-1.464-.283-2.488-.633-3.046-1.041-.547-.398-.813-.901-.813-1.536 0-.726.287-1.33.853-1.794.574-.471 1.384-.71 2.405-.71 1.992 0 3.141.828 3.514 2.53l.028.128 3.08-.818-.018-.111c-.221-1.42-.921-2.58-2.083-3.448-1.158-.864-2.654-1.303-4.448-1.303-1.332 0-2.532.253-3.564.75-1.035.5-1.863 1.186-2.461 2.04-.6.856-.904 1.849-.904 2.95 0 1.152.263 2.09.78 2.793.515.7 1.253 1.259 2.193 1.66.93.4 2.047.724 3.319.963 1.351.26 2.363.566 3.008.906.621.328.924.816.924 1.49 0 .709-.289 1.259-.884 1.68-.599.428-1.483.644-2.627.644-1.431 0-2.52-.27-3.238-.804-.713-.528-1.157-1.336-1.319-2.401l-.021-.135L0 35.07l.013.11c.195 1.732.951 3.094 2.246 4.046 1.288.948 3.142 1.429 5.511 1.429 1.401 0 2.654-.24 3.723-.713 1.07-.474 1.917-1.143 2.517-1.987.6-.845.904-1.82.904-2.901-.025-1.127-.306-2.031-.837-2.685zm18.417-8.565c-1.028-1.36-2.54-2.048-4.492-2.048-1.653 0-3.12.5-4.362 1.486-1.08.857-1.957 2.047-2.612 3.542l.192-4.74h-3.711V40.33h3.67v-.124c.024-3.81.3-6.852.824-9.044.52-2.175 1.23-3.73 2.11-4.621.87-.883 1.889-1.331 3.026-1.331.87 0 1.57.26 2.078.77.749.756 1.122 2.089 1.108 3.965l-.073 10.385h3.67l.073-10.708c.023-2.513-.481-4.471-1.501-5.818zM44.56 37.308c-1.25 0-2.26-.48-2.997-1.428-.747-.955-1.126-2.322-1.126-4.062 0-2.026.494-3.678 1.467-4.91.967-1.222 2.272-1.842 3.88-1.842 1.347 0 2.424.446 3.2 1.325.78.886 1.175 2.118 1.175 3.662 0 1.416-.251 2.689-.745 3.783-.493 1.09-1.17 1.952-2.011 2.56a4.761 4.761 0 0 1-2.843.912zm6.483-15.228l-.39 2.242c-.44-.718-1.07-1.314-1.873-1.775-.915-.525-1.972-.791-3.14-.791-1.743 0-3.31.437-4.657 1.298-1.345.86-2.414 2.083-3.177 3.632-.761 1.548-1.147 3.347-1.147 5.348 0 1.665.282 3.159.838 4.44.559 1.289 1.39 2.318 2.475 3.06 1.083.744 2.433 1.12 4.012 1.12 1.41 0 2.68-.37 3.777-1.1.96-.641 1.77-1.497 2.414-2.553l-.13 3.329h3.785V22.08h-2.787zm15.801 2.985c1.248 0 2.256.48 2.997 1.428.747.96 1.126 2.314 1.126 4.028 0 2.025-.494 3.683-1.468 4.927-.965 1.234-2.27 1.86-3.879 1.86-1.348 0-2.425-.447-3.2-1.326-.78-.883-1.175-2.127-1.175-3.697 0-1.415.251-2.682.745-3.765.493-1.079 1.17-1.934 2.011-2.542a4.76 4.76 0 0 1 2.843-.913zm7.063.834c-.56-1.289-1.393-2.312-2.476-3.042-1.084-.73-2.433-1.102-4.01-1.102-1.434 0-2.717.365-3.813 1.083-.96.63-1.772 1.491-2.415 2.563l.13-3.357h-3.749V47.53h3.707V40.2l-.058-1.497a5.571 5.571 0 0 0 1.786 1.344c.83.403 1.77.607 2.791.607 1.72 0 3.274-.443 4.622-1.316 1.345-.873 2.414-2.095 3.175-3.63.762-1.538 1.148-3.343 1.148-5.368 0-1.664-.282-3.158-.838-4.44zm18.169 4.713h-8.883l4.528-11.165 4.355 11.165zm-2.653-16.014l-.032-.078h-3.263L75.333 40.156l-.073.174h3.98l2.592-6.372h11.53l2.453 6.292.032.08h3.979L89.424 14.598zm18.785 22.71c-1.25 0-2.259-.48-2.997-1.428-.747-.955-1.126-2.322-1.126-4.062 0-2.026.494-3.678 1.467-4.91.967-1.222 2.272-1.842 3.88-1.842 1.347 0 2.424.446 3.201 1.325.779.886 1.174 2.118 1.174 3.662 0 1.416-.251 2.689-.745 3.783-.493 1.09-1.169 1.952-2.011 2.56a4.761 4.761 0 0 1-2.843.912zm5.563-23.868v8.734l.058 1.47a5.61 5.61 0 0 0-1.788-1.3c-.83-.39-1.756-.588-2.753-.588-1.743 0-3.31.437-4.657 1.298-1.345.86-2.414 2.083-3.177 3.632-.761 1.548-1.147 3.347-1.147 5.348 0 1.665.282 3.159.838 4.44.559 1.289 1.391 2.318 2.475 3.06 1.083.744 2.433 1.12 4.012 1.12 1.41 0 2.681-.37 3.777-1.1.961-.641 1.771-1.497 2.414-2.553l-.129 3.329h3.784V13.44h-3.707zm14.488 23.868c-1.25 0-2.259-.48-2.997-1.428-.747-.955-1.126-2.322-1.126-4.062 0-2.026.494-3.678 1.467-4.91.967-1.222 2.272-1.842 3.88-1.842 1.347 0 2.424.446 3.201 1.325.779.886 1.174 2.118 1.174 3.662 0 1.416-.251 2.689-.745 3.783-.493 1.09-1.169 1.952-2.011 2.56a4.761 4.761 0 0 1-2.843.912zm5.563-23.868v8.734l.058 1.47a5.61 5.61 0 0 0-1.788-1.3c-.83-.39-1.756-.588-2.753-.588-1.743 0-3.31.437-4.657 1.298-1.345.86-2.414 2.083-3.177 3.632-.761 1.548-1.147 3.347-1.147 5.348 0 1.665.282 3.159.838 4.44.559 1.289 1.391 2.318 2.475 3.06 1.083.744 2.433 1.12 4.012 1.12 1.41 0 2.681-.37 3.777-1.1.961-.641 1.771-1.497 2.414-2.553l-.129 3.329h3.784V13.44h-3.707zm19.765 8.604l-.001.124c-.023 3.667-.289 6.6-.789 8.72-.495 2.103-1.193 3.622-2.072 4.513-.872.884-1.89 1.33-3.026 1.33-1.101 0-1.908-.38-2.397-1.13-.5-.767-.754-1.86-.754-3.242l.108-10.19.001-.125h-3.67l-.109 10.635c-.023 2.347.476 4.203 1.484 5.514 1.017 1.323 2.522 1.994 4.473 1.994 1.58 0 3.011-.47 4.25-1.393 1.086-.81 1.976-1.994 2.651-3.528l-.114 2.668c-.071 2.31-.569 4.01-1.48 5.05-.909 1.036-2.463 1.56-4.622 1.56-.95 0-1.884-.108-2.781-.321a11.823 11.823 0 0 1-2.564-.926l-.135-.067-.932 3.26.083.05c.777.462 1.754.806 2.903 1.025 1.14.215 2.244.325 3.281.325 3.165 0 5.611-.873 7.273-2.594 1.659-1.721 2.501-4.354 2.501-7.827V22.044h-3.562z" fill="#004C37"/><path d="M181.399 3.491a4.121 4.121 0 1 1-7.725 2.876 4.121 4.121 0 0 1 7.725-2.876z" fill="#FEFEFE"/><path d="M173.372 5.401a4.121 4.121 0 1 1-7.725 2.876 4.121 4.121 0 0 1 7.725-2.876z" fill="#FEFEFE"/><path d="M180.032 4.36a1.962 1.962 0 1 1-3.677 1.37 1.962 1.962 0 0 1 3.677-1.37zm-8.027 1.936a1.962 1.962 0 1 1-3.677 1.369 1.962 1.962 0 0 1 3.677-1.369z" fill="#004C37"/><path d="M180.75 5.748l-5.74 1.326a3.32 3.32 0 0 1-.58-.99 3.276 3.276 0 0 1 .092-2.534 3.285 3.285 0 0 1 1.858-1.727 3.285 3.285 0 0 1 2.535.09 3.294 3.294 0 0 1 1.728 1.86c.24.64.274 1.326.107 1.975zm-10.084 4.199a3.317 3.317 0 0 1-4.262-1.951 3.317 3.317 0 0 1 4.485-4.172 3.296 3.296 0 0 1 1.728 1.858 3.319 3.319 0 0 1-1.951 4.265zm24.916-7.625l-13.136 3.034a4.912 4.912 0 0 0-.293-2.145 4.9 4.9 0 0 0-2.566-2.762 4.895 4.895 0 0 0-3.769-.136 4.893 4.893 0 0 0-2.917 2.955 4.936 4.936 0 0 0-5.109-1.046 4.934 4.934 0 0 0-2.898 6.337c.12.322.274.622.45.903l-3.44 3.88 4.657 12.197 27.86 5.804v-5.804l-2.437-1.083.075-2.276c.014-.43-.551-.682-.861-.385l-1.648 1.579-1.494-.664.075-2.284c.014-.43-.551-.681-.861-.384l-1.654 1.583-1.487-.661.075-2.291c.014-.43-.551-.682-.862-.384l-1.659 1.588-8.157-3.625 10.991-1.047 1.073 2.048c.199.38.815.32.938-.09l.665-2.213 1.607-.153 1.071 2.047c.2.38.815.322.939-.09l.665-2.211 1.607-.154 1.071 2.046c.199.38.815.322.939-.09l.664-2.21 2.148-.205-2.322-11.608z" fill="#87BD25"/></g><defs><clipPath id="clip0_85_178"><path fill="#fff" d="M0 0H198V48H0z"/></clipPath></defs></svg>