<svg width="160" height="40" xmlns="http://www.w3.org/2000/svg"><g fill="none" fill-rule="evenodd"><path d="M106.33 18.353c0 1.715.015 3.43-.01 5.144-.005.45.098.628.584.605.855-.041 1.715.01 2.57-.02 2.385-.088 3.964-1.367 4.562-3.672a7.766 7.766 0 0 0 0-3.96c-.598-2.306-2.176-3.585-4.56-3.672-.856-.031-1.716.02-2.571-.02-.484-.024-.591.15-.584.602.024 1.664.01 3.329.01 4.993zm-3.809.028c0-2.57.02-5.139-.013-7.708-.009-.71.19-.99.939-.974 2.14.044 4.282-.012 6.423.035 4.636.1 8.103 3.572 8.25 8.217.147 4.585-2.276 7.937-6.479 8.948a7.634 7.634 0 0 1-1.792.236c-2.166 0-4.333-.008-6.499.02-.624.01-.843-.218-.838-.839.022-2.644.01-5.29.01-7.935zm21.857 5.698c1.134 0 2.195.047 3.25-.01 2.222-.12 3.773-1.347 4.368-3.43a7.833 7.833 0 0 0 .002-4.403c-.492-1.694-1.555-2.878-3.309-3.292-1.407-.333-2.846-.144-4.311-.17v11.305zm-3.847-5.648c0-2.62.011-5.24-.009-7.86-.004-.594.159-.877.809-.868 2.14.028 4.283-.015 6.423.026 4.81.092 8.29 3.594 8.381 8.4.102 5.317-3.37 8.932-8.68 9.009-1.99.028-3.98-.018-5.97.022-.718.014-.978-.205-.968-.946.036-2.594.014-5.189.014-7.783zm-28.187-4.14l-2.189 5.88h4.38l-2.19-5.88zM92.4 9.76c1.767 0 1.762.002 2.405 1.634 1.942 4.928 3.888 9.854 5.831 14.781.345.876.212 1.068-.728 1.077-3.054.03-2.743.085-3.733-2.6-.585-1.588-.578-1.591-2.26-1.591-1.41 0-2.821.02-4.232-.012-.448-.01-.667.126-.804.553-.278.86-.609 1.701-.914 2.552-.26.726-.778 1.089-1.545 1.096-.554.005-1.108.004-1.662.001-.902-.004-1.042-.202-.716-1.03 1.735-4.416 3.473-8.831 5.21-13.246.332-.841.703-1.669.986-2.525.18-.544.454-.774 1.029-.7.372.05.755.01 1.133.01zM74.863 21.102c0 .706.01 1.412-.005 2.118-.006.3.078.525.303.732 1.098 1.01 3.082.73 3.697-.616.744-1.63.736-3.335.06-4.992-.375-.92-1.234-1.207-2.362-.933-1.079.261-1.692.94-1.693 1.875v1.816zm.004 5.621v2c0 2.36 0 2.36-2.393 2.358-.151 0-.303-.007-.454.001-.478.026-.683-.194-.683-.675.006-5.068.005-10.136.001-15.205 0-.31.082-.602.408-.621.702-.042 1.42-.122 2.108.047.54.133.628.66.737 1.216.892-.646 1.777-1.181 2.86-1.326 2.09-.28 3.905.606 4.766 2.531 1.056 2.365 1.11 4.794.075 7.181-1.378 3.177-4.87 3.832-7.063 2.599-.08-.046-.182-.055-.362-.106zm69.033-9.452c1.16-2.164 2.313-4.282 3.429-6.42.418-.802.976-1.234 1.917-1.149.6.054 1.208.005 1.813.012.827.008.955.232.532.95a2636.923 2636.923 0 0 1-5.492 9.285c-.214.36-.32.71-.316 1.132.019 1.714-.015 3.428.02 5.142.013.673-.184.98-.9.933a18.846 18.846 0 0 0-2.116-.002c-.597.028-.797-.217-.788-.801.025-1.688-.006-3.378.017-5.066a2.565 2.565 0 0 0-.378-1.42 1505.74 1505.74 0 0 1-5.386-9.085c-.143-.244-.42-.462-.238-.815.206-.398.57-.238.871-.249.58-.021 1.162.03 1.739-.014.843-.064 1.365.31 1.749 1.034 1.154 2.175 2.337 4.334 3.528 6.533m-78.709 4.863c-1.145.1-2.168.141-3.113.607-.487.24-.685.622-.605 1.17.078.544.487.683.911.744.948.137 1.785-.156 2.507-.775.545-.469.159-1.082.3-1.746zm.402 3.807c-1.543 1.247-3.186 1.616-4.99 1.209-1.43-.323-2.268-1.25-2.519-2.68-.24-1.367.217-2.493 1.349-3.3 1.424-1.015 3.08-1.31 4.777-1.44.296-.024.595-.004.92-.004.015-.198.03-.318.032-.438.012-1.725-.951-2.425-2.618-1.908-.486.15-.909.425-1.352.663-1.117.602-2.517-.192-2.615-1.467-.018-.232.153-.3.278-.403 1.844-1.51 3.952-2.091 6.283-1.62 2.01.407 3.387 2.002 3.452 4.048.083 2.619.035 5.243.048 7.864.001.345-.102.63-.474.648a9.81 9.81 0 0 1-1.584-.035c-.574-.066-.795-.548-.987-1.137zM47.942 15.67c1.039-.803 2.097-1.262 3.34-1.266 2.577-.009 4.35 1.556 4.44 4.137.093 2.645.03 5.295.046 7.943.003.488-.211.679-.687.667a27.29 27.29 0 0 0-2.043.003c-.595.03-.799-.209-.793-.797.022-2.244.014-4.489.007-6.733-.003-.835.048-1.75-.858-2.178-.964-.455-1.857-.11-2.682.48-.363.259-.498.563-.494 1.016.022 2.446-.005 4.893.021 7.339.008.654-.206.92-.874.875-.653-.044-1.311-.02-1.967-.006-.469.011-.698-.173-.697-.663.006-3.758.005-7.515 0-11.273 0-.277.058-.582.325-.609.747-.074 1.511-.16 2.246.057.43.127.555.549.67 1.007m-5.67.528c-.058.1-.115.21-.18.316-.993 1.62-.993 1.618-2.772.926-.595-.231-1.202-.372-1.844-.217-.456.11-.888.257-.959.812-.07.553.357.75.746.909.604.246 1.233.425 1.85.64.308.107.616.218.916.346 1.224.526 2.159 1.304 2.273 2.743.126 1.58-.405 2.875-1.753 3.764-2.03 1.34-5.689 1.078-7.54-.502-.25-.215-.358-.385-.129-.683.183-.237.313-.515.475-.77.502-.79 1.099-.954 1.913-.491.572.325 1.145.63 1.813.696a2.51 2.51 0 0 0 1.258-.186c.366-.158.605-.425.633-.86.028-.425-.212-.672-.544-.82-.48-.215-.982-.377-1.475-.56-.565-.21-1.144-.387-1.693-.63-1.305-.58-2.081-1.571-2.148-3.023-.064-1.379.458-2.507 1.603-3.31 2.174-1.523 5.744-1.103 7.557.9" fill="#9DA600"/><path d="M7.936 13.375a1.128 1.128 0 0 0-1.121-1.167 1.129 1.129 0 0 0-1.146 1.065 1.128 1.128 0 0 0 1.082 1.204 1.127 1.127 0 0 0 1.185-1.102zm.756-.716a3.031 3.031 0 0 1-3.023 3.029 3.031 3.031 0 0 1-3.029-3.023 3.031 3.031 0 0 1 3.023-3.029 3.03 3.03 0 0 1 3.03 3.023zm4.611-2.721a1.13 1.13 0 0 0 1.141-1.148 1.126 1.126 0 0 0-1.09-1.121 1.127 1.127 0 0 0-1.18 1.109 1.13 1.13 0 0 0 1.129 1.16zM15.2 7.991a3.03 3.03 0 0 1-3.047 3.005A3.03 3.03 0 0 1 9.148 7.95a3.03 3.03 0 0 1 3.047-3.005A3.03 3.03 0 0 1 15.2 7.991z" fill="#FFFDFC"/><path d="M5.67 15.688a3.031 3.031 0 0 1-3.03-3.023 3.031 3.031 0 0 1 3.023-3.029 3.031 3.031 0 0 1 3.03 3.023 3.031 3.031 0 0 1-3.024 3.029zm6.525-10.744A3.03 3.03 0 0 1 15.2 7.991a3.03 3.03 0 0 1-3.047 3.005A3.03 3.03 0 0 1 9.148 7.95a3.03 3.03 0 0 1 3.047-3.006zm13.972 23.852c-.443-.787.09-1.978-1.21-2.375-1.06-.325-1.791.52-2.804.53-.25-.529-.516-1.095-.786-1.66-.358-.745-.999-1.014-1.796-.752-.714.234-1.427.473-2.192.727-.126-.545-.24-1.03-.35-1.516-.248-1.098-.861-1.434-1.9-1.04-.463.175-.927.347-1.33.499-.47-.595.042-1.375-.598-1.865-.669-.512-1.261-.069-1.98.216.257-.95-.25-1.23-.899-1.475-.608-.23-1.237-.446-1.815-.855.585-.36 1.219-.4 1.752-.664.615-.304.237-1.22.9-1.608.667.41 1.174 1.292 2.253.744.891-.454.916-1.465 1.61-2.067.386.289.792.582 1.186.891.186.146.35.23.613.181 1.469-.277 1.514-.318 1.582-1.784.008-.165-.062-.357.166-.529.584.272 1.223.508 1.797.852.742.444 1.385.045 2.007-.194.507-.195.125-.767.23-1.155.047-.178-.101-.394.187-.627.281.317.547.65.846.95.55.553 1.949.185 2.194-.57.192-.595.374-1.193.648-2.07.532.61.915 1.113 1.363 1.548.644.625 1.153-.137 1.897-.093L20.033 2.094l-3.195 2.823c-.14-.114-.237-.19-.332-.27-3.428-2.884-8.27-1.452-9.545 2.853-.16.538-.44.484-.822.486-3.398.02-6.05 2.782-5.897 6.147.07 1.522.71 2.808 1.777 3.952L.151 19.764l17.645 19.902 12.24-10.88c-1.355-1.285-2.61-.226-3.869.01z" fill="#9DA600"/><path d="M6.815 12.208a1.129 1.129 0 0 0-1.146 1.065 1.128 1.128 0 0 0 1.082 1.204 1.127 1.127 0 0 0 1.185-1.102 1.127 1.127 0 0 0-1.121-1.167m6.488-2.27a1.13 1.13 0 0 0 1.141-1.148 1.126 1.126 0 0 0-1.09-1.121 1.127 1.127 0 0 0-1.18 1.109 1.13 1.13 0 0 0 1.129 1.16" fill="#000206"/></g></svg>