<?xml version="1.0" encoding="utf-8"?>
<!-- Generator: Adobe Illustrator 22.1.0, SVG Export Plug-In . SVG Version: 6.00 Build 0)  -->
<svg version="1.1" id="Ebene_1" xmlns="http://www.w3.org/2000/svg" xmlns:xlink="http://www.w3.org/1999/xlink" x="0px" y="0px"
	 viewBox="0 0 307.9 388" style="enable-background:new 0 0 307.9 388;" xml:space="preserve">
<style type="text/css">
	.st0{fill:#EDEDED;}
	.st1{fill:#CD0F41;}
	.st2{fill:#78232D;}
	.st3{fill:#AA142D;}
	.st4{fill:#E60050;}
	.st5{fill:#CA142B;}
	.st6{fill:#AB1921;}
	.st7{fill:#79161C;}
	.st8{fill:#E4004D;}
	.st9{fill:#991C20;}
	.st10{fill:#6C1719;}
	.st11{fill:#FFFFFF;}
</style>
<g>
	<path d="M89.4,347.8v10.1c0,0.2-0.1,0.3-0.3,0.3h-0.5c-0.2,0-0.3-0.1-0.3-0.3v-10.1c0-0.2,0.1-0.3,0.3-0.3h0.5
		C89.3,347.5,89.4,347.6,89.4,347.8z"/>
	<path d="M92.8,357.8v-10.1c0-0.2,0.1-0.3,0.3-0.3h1c0.2,0,0.3,0.1,0.3,0.2l4.4,9.5h0c-0.1-1.3,0-2.7-0.1-4v-5.4
		c0-0.2,0.1-0.3,0.3-0.3h0.5c0.2,0,0.3,0.1,0.3,0.3v10.1c0,0.2-0.1,0.3-0.3,0.3h-1.1c-0.2,0-0.3-0.1-0.3-0.2l-4.3-9.3h0
		c0,1.2,0,2.5,0.1,3.8v5.4c0,0.2-0.1,0.3-0.3,0.3h-0.5C92.9,358.1,92.8,358,92.8,357.8z"/>
	<path d="M102,357.2c-0.1-0.1-0.1-0.3,0-0.4l0.2-0.3c0.1-0.2,0.2-0.2,0.4,0c0.7,0.6,1.7,1,2.6,1c1.6,0,2.5-0.8,2.6-2.1
		c0-1.6-1.2-1.9-2.6-2.4c-1.4-0.5-2.9-1-2.9-2.8c0-1.6,1.3-2.8,3.2-2.8c1,0,2.1,0.3,2.8,0.9c0.2,0.1,0.2,0.2,0.1,0.4l-0.2,0.3
		c-0.1,0.2-0.2,0.2-0.4,0.1c-0.6-0.4-1.5-0.7-2.2-0.7c-1.3,0-2.2,0.7-2.2,1.8c0,1.2,1,1.6,2.4,2.1c1.5,0.5,3.2,1,3.2,3.2
		c0,1.9-1.4,3.1-3.6,3.1C104,358.4,102.8,357.9,102,357.2z"/>
	<path d="M112.3,347.8v10.1c0,0.2-0.1,0.3-0.3,0.3h-0.5c-0.2,0-0.3-0.1-0.3-0.3v-10.1c0-0.2,0.1-0.3,0.3-0.3h0.5
		C112.2,347.5,112.3,347.6,112.3,347.8z"/>
	<path d="M115.9,358.1c-0.2,0-0.3-0.1-0.3-0.3v-10.1c0-0.2,0.1-0.3,0.3-0.3h2.2c3,0,4.6,1.8,4.6,5.3s-1.6,5.3-4.6,5.3H115.9z
		 M121.6,352.8c0-2.9-1.2-4.4-3.4-4.4h-1.5v8.8h1.5C120.4,357.2,121.6,355.7,121.6,352.8z"/>
	<path d="M125.3,357.8v-10.1c0-0.2,0.1-0.3,0.3-0.3h4.8c0.2,0,0.3,0.1,0.3,0.3v0.3c0,0.2-0.1,0.3-0.3,0.3h-4v3.8h3.4
		c0.2,0,0.3,0.1,0.3,0.3v0.3c0,0.2-0.1,0.3-0.3,0.3h-3.4v4.3h4.2c0.2,0,0.3,0.1,0.3,0.3v0.3c0,0.2-0.1,0.3-0.3,0.3h-4.9
		C125.5,358.1,125.3,358,125.3,357.8z"/>
	<path d="M144.1,358.1h-0.6c-0.2,0-0.3-0.1-0.4-0.2l-2.9-4.9h-1.6v4.8c0,0.2-0.1,0.3-0.3,0.3h-0.5c-0.2,0-0.3-0.1-0.3-0.3v-10.1
		c0-0.2,0.1-0.3,0.3-0.3h0.5c0.2,0,0.3,0.1,0.3,0.3v4.4h1.6l2.7-4.5c0.1-0.1,0.2-0.2,0.3-0.2h0.5c0.2,0,0.3,0.1,0.2,0.3l-2.9,4.7
		l3.1,5.2C144.4,358,144.3,358.1,144.1,358.1z"/>
	<path d="M146.1,357.8v-10.1c0-0.2,0.1-0.3,0.3-0.3h1c0.2,0,0.3,0.1,0.3,0.2l4.4,9.5h0c-0.1-1.3,0-2.7-0.1-4v-5.4
		c0-0.2,0.1-0.3,0.3-0.3h0.5c0.2,0,0.3,0.1,0.3,0.3v10.1c0,0.2-0.1,0.3-0.3,0.3h-1.1c-0.2,0-0.3-0.1-0.3-0.2l-4.3-9.3h0
		c0,1.2,0,2.5,0.1,3.8v5.4c0,0.2-0.1,0.3-0.3,0.3h-0.5C146.2,358.1,146.1,358,146.1,357.8z"/>
	<path d="M164.4,352.8c0,3.3-1.7,5.6-4.3,5.6c-2.6,0-4.3-2.2-4.3-5.6c0-3.3,1.7-5.6,4.3-5.6C162.7,347.3,164.4,349.5,164.4,352.8z
		 M163.3,352.8c0-2.9-1.2-4.6-3.2-4.6c-2,0-3.2,1.8-3.2,4.6s1.2,4.6,3.2,4.6C162.1,357.5,163.3,355.7,163.3,352.8z"/>
	<path d="M167.9,357.9l-2.2-10.1c0-0.2,0.1-0.3,0.3-0.3h0.4c0.2,0,0.3,0.1,0.3,0.2l1.5,7.2l0.4,2h0l2.2-9.2c0-0.2,0.1-0.2,0.3-0.2
		h0.7c0.2,0,0.3,0.1,0.3,0.2l2.2,9.2h0l0.4-2l1.5-7.2c0-0.2,0.1-0.2,0.3-0.2h0.4c0.2,0,0.3,0.1,0.3,0.3l-2.2,10.1
		c0,0.2-0.2,0.2-0.3,0.2h-0.8c-0.2,0-0.3-0.1-0.3-0.2l-2.1-9.1h0l-2.1,9.1c0,0.2-0.2,0.2-0.3,0.2h-0.8
		C168,358.1,167.9,358,167.9,357.9z"/>
	<path d="M184.7,357.5v0.4c0,0.2-0.1,0.3-0.3,0.3h-4.8c-0.2,0-0.3-0.1-0.3-0.3v-10.1c0-0.2,0.1-0.3,0.3-0.3h0.5
		c0.2,0,0.3,0.1,0.3,0.3v9.4h4C184.6,357.2,184.7,357.3,184.7,357.5z"/>
	<path d="M186.8,357.8v-10.1c0-0.2,0.1-0.3,0.3-0.3h4.8c0.2,0,0.3,0.1,0.3,0.3v0.3c0,0.2-0.1,0.3-0.3,0.3h-4v3.8h3.4
		c0.2,0,0.3,0.1,0.3,0.3v0.3c0,0.2-0.1,0.3-0.3,0.3h-3.4v4.3h4.2c0.2,0,0.3,0.1,0.3,0.3v0.3c0,0.2-0.1,0.3-0.3,0.3H187
		C186.9,358.1,186.8,358,186.8,357.8z"/>
	<path d="M195.1,358.1c-0.2,0-0.3-0.1-0.3-0.3v-10.1c0-0.2,0.1-0.3,0.3-0.3h2.2c3,0,4.6,1.8,4.6,5.3s-1.6,5.3-4.6,5.3H195.1z
		 M200.7,352.8c0-2.9-1.2-4.4-3.4-4.4h-1.5v8.8h1.5C199.5,357.2,200.7,355.7,200.7,352.8z"/>
	<path d="M211.3,352.6v4.5c0,0.2,0,0.3-0.2,0.3c-0.7,0.5-1.9,0.9-3,0.9c-2.8,0-4.4-2-4.4-5.6c0-3.3,1.8-5.6,4.5-5.6
		c0.9,0,1.9,0.3,2.6,0.8c0.1,0.1,0.2,0.2,0.1,0.4l-0.2,0.3c-0.1,0.2-0.2,0.2-0.4,0.1c-0.6-0.4-1.3-0.6-2-0.6c-2.1,0-3.4,1.8-3.4,4.6
		c0,3.1,1.1,4.6,3.3,4.6c0.8,0,1.6-0.2,2.2-0.6v-3.7h-1.8c-0.2,0-0.3-0.1-0.3-0.3v-0.3c0-0.2,0.1-0.3,0.3-0.3h2.5
		C211.3,352.3,211.3,352.4,211.3,352.6z"/>
	<path d="M214,357.8v-10.1c0-0.2,0.1-0.3,0.3-0.3h4.8c0.2,0,0.3,0.1,0.3,0.3v0.3c0,0.2-0.1,0.3-0.3,0.3h-4v3.8h3.4
		c0.2,0,0.3,0.1,0.3,0.3v0.3c0,0.2-0.1,0.3-0.3,0.3h-3.4v4.3h4.2c0.2,0,0.3,0.1,0.3,0.3v0.3c0,0.2-0.1,0.3-0.3,0.3h-4.9
		C214.1,358.1,214,358,214,357.8z"/>
</g>
<g>
	<path d="M90.8,287.9l5.6-17.2c0.1-0.4,0.4-0.6,0.8-0.6H99c0.4,0,0.7,0.2,0.8,0.6l5.6,17.2c0.1,0.5-0.1,0.7-0.6,0.7h-1.3
		c-0.4,0-0.6-0.2-0.7-0.6l-1.2-4.1h-7l-1.2,4.1c-0.1,0.4-0.4,0.6-0.7,0.6h-1.2C90.9,288.6,90.6,288.3,90.8,287.9z M100.9,281.9
		l-2.8-9.6H98l-2.8,9.6H100.9z"/>
	<path d="M110.8,287.9v-17.2c0-0.4,0.2-0.7,0.7-0.7h2.6c0.4,0,0.6,0.2,0.8,0.5l6.5,15.8h0.1c-0.1-2.6-0.1-5.4-0.2-8v-7.7
		c0-0.4,0.2-0.7,0.7-0.7h1.2c0.4,0,0.7,0.2,0.7,0.7v17.2c0,0.4-0.2,0.7-0.7,0.7h-2.7c-0.4,0-0.6-0.2-0.8-0.5l-6.3-15.3h-0.1
		c0.1,2.4,0.1,5.1,0.2,7.5v7.7c0,0.4-0.2,0.7-0.7,0.7h-1.2C111,288.6,110.8,288.4,110.8,287.9z"/>
	<path d="M144.2,278.9v7.8c0,0.3-0.1,0.6-0.4,0.8c-1.3,0.9-3.5,1.6-5.6,1.6c-5,0-7.7-3.3-7.7-9.7c0-5.8,3.2-9.7,8.1-9.7
		c1.6,0,3.2,0.5,4.5,1.3c0.3,0.2,0.4,0.6,0.2,0.9l-0.5,0.7c-0.2,0.3-0.5,0.4-0.9,0.2c-0.9-0.6-2.1-0.9-3.1-0.9
		c-3.5,0-5.6,2.8-5.6,7.5c0,5.1,1.6,7.5,5,7.5c1.2,0,2.5-0.3,3.5-0.9v-5.8H139c-0.4,0-0.7-0.2-0.7-0.7v-0.7c0-0.4,0.2-0.7,0.7-0.7
		h4.6C143.9,278.2,144.2,278.4,144.2,278.9z"/>
	<path d="M163.6,270.7v12.1c0,3.8-2.4,6.2-6.4,6.2c-3.9,0-6.4-2.5-6.4-6.2v-12.1c0-0.4,0.2-0.7,0.7-0.7h1.2c0.4,0,0.7,0.2,0.7,0.7
		v11.9c0,2.6,1.3,4.2,3.8,4.2c2.5,0,3.8-1.5,3.8-4.2v-11.9c0-0.4,0.2-0.7,0.7-0.7h1.2C163.4,270.1,163.6,270.3,163.6,270.7z"/>
	<path d="M181.2,287.1v0.9c0,0.4-0.2,0.7-0.7,0.7H172c-0.4,0-0.7-0.2-0.7-0.7v-17.2c0-0.4,0.2-0.7,0.7-0.7h1.2
		c0.4,0,0.7,0.2,0.7,0.7v15.7h6.7C181,286.4,181.2,286.6,181.2,287.1z"/>
	<path d="M184.7,287.9l5.6-17.2c0.1-0.4,0.4-0.6,0.8-0.6h1.8c0.4,0,0.7,0.2,0.8,0.6l5.6,17.2c0.1,0.5-0.1,0.7-0.6,0.7h-1.3
		c-0.4,0-0.6-0.2-0.7-0.6l-1.2-4.1h-7l-1.2,4.1c-0.1,0.4-0.4,0.6-0.7,0.6h-1.2C184.8,288.6,184.6,288.3,184.7,287.9z M194.8,281.9
		l-2.8-9.6h-0.1l-2.8,9.6H194.8z"/>
	<path d="M216.6,288.6h-1.4c-0.3,0-0.6-0.1-0.8-0.5l-4.1-7.1c-0.2,0-0.5,0-0.7,0h-2.3v6.9c0,0.4-0.2,0.7-0.7,0.7h-1.2
		c-0.4,0-0.7-0.2-0.7-0.7v-17.2c0-0.4,0.2-0.7,0.7-0.7h4.1c4.5,0,7.2,2,7.2,5.4c0,2.7-1.6,4.3-3.9,5.1l4.2,7.2
		C217.3,288.3,217.1,288.6,216.6,288.6z M209.5,279c2.9,0,4.5-1.3,4.5-3.6c0-2.2-1.4-3.4-4.2-3.4h-2.5v7H209.5z"/>
</g>
<g>
	<g>
		<path d="M28.5,332.7l8.4-29.3c0.2-0.7,0.7-1.1,1.4-1.1h7.6c0.7,0,1.2,0.4,1.4,1.1l8.4,29.3c0.2,0.9-0.2,1.4-1,1.4h-5.2
			c-0.7,0-1.2-0.3-1.4-1.1l-1.4-5.7h-9.2l-1.4,5.7c-0.2,0.8-0.7,1.1-1.4,1.1h-5.1C28.7,334.1,28.2,333.5,28.5,332.7z M45.6,321.9
			l-3.4-14.2h-0.1l-3.4,14.2H45.6z"/>
		<path d="M82.3,334.1H77c-0.6,0-1.1-0.3-1.5-0.9L69,321.5h-2.5v11.3c0,0.8-0.5,1.3-1.3,1.3h-5c-0.8,0-1.3-0.5-1.3-1.3v-29.2
			c0-0.8,0.5-1.3,1.3-1.3h8.1c9.1,0,14.1,3.2,14.1,9.7c0,4.5-2.4,7.5-6.1,8.8l6.9,11.8C83.6,333.5,83.3,334.1,82.3,334.1z
			 M66.4,316.8h3c3.6,0,5.5-1.7,5.5-4.7c0-2.8-1.8-4.5-5.2-4.5h-3.2V316.8z"/>
		<path d="M106.4,327.9l2,2.8c0.4,0.6,0.4,1.3-0.3,1.8c-2.2,1.5-5.2,2.4-8.2,2.4c-8.9,0-14.4-6.4-14.4-16.7
			c0-10.3,5.5-16.7,14.3-16.7c3,0,6,0.9,8.1,2.3c0.7,0.5,0.7,1.1,0.3,1.8l-2,2.8c-0.5,0.7-1,0.7-1.7,0.3c-1.3-0.7-2.8-1.1-4.3-1.1
			c-4.3,0-6.8,3.7-6.8,10.7c0,7,2.5,10.7,6.8,10.7c1.6,0,3.2-0.5,4.6-1.2C105.4,327.2,105.9,327.2,106.4,327.9z"/>
		<path d="M137,303.6v29.2c0,0.8-0.5,1.3-1.2,1.3h-5c-0.8,0-1.2-0.5-1.2-1.3v-12.5h-9.5v12.5c0,0.8-0.5,1.3-1.3,1.3h-5
			c-0.8,0-1.3-0.5-1.3-1.3v-29.2c0-0.8,0.5-1.3,1.3-1.3h5c0.8,0,1.3,0.5,1.3,1.3v11h9.5v-11c0-0.8,0.5-1.3,1.2-1.3h5
			C136.5,302.3,137,302.8,137,303.6z"/>
		<path d="M151.2,303.6v29.2c0,0.8-0.5,1.3-1.3,1.3h-5c-0.8,0-1.3-0.5-1.3-1.3v-29.2c0-0.8,0.5-1.3,1.3-1.3h5
			C150.7,302.3,151.2,302.8,151.2,303.6z"/>
		<path d="M163.3,332.8v-24.6h-6.6c-0.8,0-1.3-0.5-1.3-1.3v-3.3c0-0.8,0.5-1.3,1.3-1.3h20.8c0.8,0,1.2,0.5,1.2,1.3v3.3
			c0,0.8-0.5,1.3-1.2,1.3h-6.6v24.6c0,0.8-0.5,1.3-1.3,1.3h-5C163.8,334.1,163.3,333.6,163.3,332.8z"/>
		<path d="M183,332.8v-29.2c0-0.8,0.5-1.3,1.3-1.3h16.4c0.8,0,1.2,0.5,1.2,1.3v3.2c0,0.8-0.5,1.2-1.2,1.2h-10.2v7.1h8.4
			c0.8,0,1.3,0.5,1.3,1.2v2.7c0,0.8-0.5,1.3-1.3,1.3h-8.4v7.9h10.4c0.8,0,1.2,0.5,1.2,1.3v3.2c0,0.8-0.5,1.3-1.2,1.3h-16.7
			C183.4,334.1,183,333.6,183,332.8z"/>
		<path d="M227,327.9l2,2.8c0.4,0.6,0.4,1.3-0.3,1.8c-2.2,1.5-5.2,2.4-8.2,2.4c-8.9,0-14.4-6.4-14.4-16.7c0-10.3,5.5-16.7,14.3-16.7
			c3,0,6,0.9,8.1,2.3c0.7,0.5,0.7,1.1,0.3,1.8l-2,2.8c-0.5,0.7-1,0.7-1.7,0.3c-1.3-0.7-2.8-1.1-4.3-1.1c-4.3,0-6.8,3.7-6.8,10.7
			c0,7,2.5,10.7,6.8,10.7c1.6,0,3.2-0.5,4.6-1.2C226,327.2,226.5,327.2,227,327.9z"/>
		<path d="M238.7,332.8v-24.6h-6.6c-0.8,0-1.3-0.5-1.3-1.3v-3.3c0-0.8,0.5-1.3,1.3-1.3h20.8c0.8,0,1.2,0.5,1.2,1.3v3.3
			c0,0.8-0.5,1.3-1.2,1.3h-6.6v24.6c0,0.8-0.5,1.3-1.3,1.3h-5C239.1,334.1,238.7,333.6,238.7,332.8z"/>
		<path d="M255.9,331.4c-0.6-0.5-0.7-1.1-0.2-1.8l1.9-2.8c0.5-0.6,1-0.8,1.7-0.3c2.2,1.5,5.2,2.5,7.6,2.5c3,0,4.7-1.3,4.8-3.5
			c0-3-2.2-3.7-6.1-5c-4.2-1.5-9.3-3.4-9.3-9.5c0-6,4.6-9.6,11.9-9.6c3.2,0,6.7,1,9.1,2.5c0.7,0.4,0.8,1,0.3,1.7l-1.9,2.7
			c-0.4,0.6-1,0.8-1.7,0.4c-1.7-1-3.9-1.5-5.6-1.5c-2.7,0-4.3,1.2-4.3,3c0,2.3,1.9,2.9,5.5,4.1c4.4,1.4,10,3.1,10,10.2
			c0,6.6-5.5,10.1-12.4,10.1C263.1,334.9,259,333.6,255.9,331.4z"/>
	</g>
</g>
<g>
	<polygon class="st0" points="153.9,39.6 153.9,61.3 153.9,61.3 153.9,160.7 153.9,160.7 153.9,235.9 153.9,235.9 231.4,193 
		245.3,72.2 	"/>
	<path class="st1" d="M231.4,193l7.5-65.3c-10.2-16.6-28.6-27.7-49.5-27.7c-32.1,0-58.2,26-58.2,58.2c0,32,25.9,58,57.9,58.2
		L231.4,193z"/>
	<path class="st2" d="M105.2,138.9c-13.5,0-25.5,6.5-33,16.5l4.3,37.6l45.3,25.1c14.6-6.4,24.8-20.9,24.8-37.8
		C146.5,157.4,128,138.9,105.2,138.9z"/>
	<path class="st3" d="M245.3,72.2l-78.5-28c-8.4,9.1-13.6,21.3-13.6,34.7c0,28.3,22.9,51.2,51.2,51.2c14,0,26.6-5.6,35.9-14.7
		L245.3,72.2z"/>
	<path class="st4" d="M133.8,46.7L62.5,72.2l9.6,83.5c11.1,9.5,25.5,15.2,41.3,15.2c35.2,0,63.7-28.5,63.7-63.7
		C177.1,79,159,55.2,133.8,46.7z"/>
	<path class="st5" d="M131.2,158.3c0,3.3,0.3,6.6,0.8,9.8c26.1-8,45.1-32.2,45.1-60.9c0-1.9-0.1-3.8-0.3-5.7
		C150.7,107.2,131.2,130.4,131.2,158.3z"/>
	<path class="st6" d="M156.7,60.4c-2.2,5.7-3.4,11.9-3.4,18.5c0,17.5,8.8,33,22.3,42.3c1-4.5,1.6-9.2,1.6-14
		C177.1,88.6,169.3,72,156.7,60.4z"/>
	<path class="st7" d="M72.1,155.6c11.1,9.5,25.5,15.2,41.3,15.2c10.7,0,20.7-2.6,29.5-7.3c-6.4-14.5-20.9-24.6-37.8-24.6
		c-13.5,0-25.5,6.5-33,16.5L72.1,155.6z"/>
	<path class="st8" d="M132,148.8c-0.5,3.1-0.8,6.2-0.8,9.4c0,3.3,0.3,6.6,0.8,9.8c3.8-1.2,7.4-2.7,10.9-4.5
		C140.4,157.8,136.7,152.8,132,148.8z"/>
	<path class="st8" d="M175.5,121.1c1-4.5,1.6-9.2,1.6-14c0-1.9-0.1-3.8-0.3-5.7c-5.4,1.2-10.4,3.1-15.1,5.6
		C165.4,112.6,170.1,117.4,175.5,121.1z"/>
	<path class="st9" d="M204.5,130.1c10.9,0,21.1-3.4,29.4-9.3c-10.7-12.7-26.6-20.7-44.5-20.7c-10,0-19.4,2.5-27.6,7
		C170.9,120.9,186.6,130.1,204.5,130.1z"/>
	<path class="st10" d="M143.9,194.6c1.6-4.5,2.6-9.3,2.6-14.3c0-12.6-5.6-23.8-14.5-31.4c-0.5,3.1-0.8,6.2-0.8,9.4
		C131.2,172,136,184.6,143.9,194.6z"/>
	<path class="st4" d="M153.9,246l-85.5-47.4l-0.1-1.1L53.1,65.6l100.9-36l100.9,36l-15.3,133.1L153.9,246z M72.6,195.9l81.4,45.1
		l81.4-45.1L250,68.6l-96-34.2l-96,34.2L72.6,195.9z"/>
	<path class="st11" d="M154,87.5L120.3,163l0,0h12.6l0,0l6.8-16.9h28.6L175,163l0,0h12.6l0,0L154,87.5L154,87.5L154,87.5L154,87.5
		L154,87.5z M163.8,135.7h-19.7L154,112L163.8,135.7z"/>
</g>
</svg>
