<?xml version="1.0" encoding="UTF-8" standalone="no"?><!DOCTYPE svg PUBLIC "-//W3C//DTD SVG 1.1//EN" "http://www.w3.org/Graphics/SVG/1.1/DTD/svg11.dtd"><svg width="400px" height="400px" version="1.1" xmlns="http://www.w3.org/2000/svg" xmlns:xlink="http://www.w3.org/1999/xlink" xml:space="preserve" xmlns:serif="http://www.serif.com/" style="fill-rule:evenodd;clip-rule:evenodd;stroke-linejoin:round;stroke-miterlimit:1.41421;"><g id="Layer1"><rect x="0" y="0" width="400" height="400" style="fill:#fff;"/></g><path d="M0,-25l25,25l-25,25l-25,-25l25,-25Z" style="fill:#f00;fill-opacity:0.0547016;fill-rule:nonzero;"/><path d="M25,-50l25,25l-25,25l-25,-25l25,-25Z" style="fill:#f00;fill-opacity:0.0246425;fill-rule:nonzero;"/><path d="M50,-25l25,25l-25,25l-25,-25l25,-25Z" style="fill:#f00;fill-opacity:0.0544495;fill-rule:nonzero;"/><path d="M75,-50l25,25l-25,25l-25,-25l25,-25Z" style="fill:#f00;fill-opacity:0.0535094;fill-rule:nonzero;"/><path d="M100,-25l25,25l-25,25l-25,-25l25,-25Z" style="fill:#f00;fill-opacity:0.0286265;fill-rule:nonzero;"/><path d="M125,-50l25,25l-25,25l-25,-25l25,-25Z" style="fill:#f00;fill-opacity:0.0665104;fill-rule:nonzero;"/><path d="M150,-25l25,25l-25,25l-25,-25l25,-25Z" style="fill:#f00;fill-opacity:0.0765489;fill-rule:nonzero;"/><path d="M175,-50l25,25l-25,25l-25,-25l25,-25Z" style="fill:#f00;fill-opacity:0.0219061;fill-rule:nonzero;"/><path d="M200,-25l25,25l-25,25l-25,-25l25,-25Z" style="fill:#f00;fill-opacity:0.0610479;fill-rule:nonzero;"/><path d="M225,-50l25,25l-25,25l-25,-25l25,-25Z" style="fill:#f00;fill-opacity:0.0489556;fill-rule:nonzero;"/><path d="M250,-25l25,25l-25,25l-25,-25l25,-25Z" style="fill:#f00;fill-opacity:0.0398763;fill-rule:nonzero;"/><path d="M275,-50l25,25l-25,25l-25,-25l25,-25Z" style="fill:#f00;fill-opacity:0.0606302;fill-rule:nonzero;"/><path d="M300,-25l25,25l-25,25l-25,-25l25,-25Z" style="fill:#f00;fill-opacity:0.0701527;fill-rule:nonzero;"/><path d="M325,-50l25,25l-25,25l-25,-25l25,-25Z" style="fill:#f00;fill-opacity:0.0655987;fill-rule:nonzero;"/><path d="M350,-25l25,25l-25,25l-25,-25l25,-25Z" style="fill:#f00;fill-opacity:0.089792;fill-rule:nonzero;"/><path d="M375,-50l25,25l-25,25l-25,-25l25,-25Z" style="fill:#f00;fill-opacity:0.0645287;fill-rule:nonzero;"/><path d="M400,-25l25,25l-25,25l-25,-25l25,-25Z" style="fill:#f00;fill-opacity:0.0371514;fill-rule:nonzero;"/><path d="M425,-50l25,25l-25,25l-25,-25l25,-25Z" style="fill:#f00;fill-opacity:0.0650165;fill-rule:nonzero;"/><path d="M0,-25l25,25l-25,25l-25,-25l25,-25Z" style="fill:#f00;fill-opacity:0.333333;fill-rule:nonzero;"/><path d="M25,0l25,25l-25,25l-25,-25l25,-25Z" style="fill:#f00;fill-opacity:0.0413043;fill-rule:nonzero;"/><path d="M50,-25l25,25l-25,25l-25,-25l25,-25Z" style="fill:#f00;fill-opacity:0.233333;fill-rule:nonzero;"/><path d="M75,0l25,25l-25,25l-25,-25l25,-25Z" style="fill:#f00;fill-opacity:0.0441203;fill-rule:nonzero;"/><path d="M100,-25l25,25l-25,25l-25,-25l25,-25Z" style="fill:#f00;fill-opacity:0.293333;fill-rule:nonzero;"/><path d="M125,0l25,25l-25,25l-25,-25l25,-25Z" style="fill:#f00;fill-opacity:0.0872405;fill-rule:nonzero;"/><path d="M150,-25l25,25l-25,25l-25,-25l25,-25Z" style="fill:#f00;fill-opacity:0.4;fill-rule:nonzero;"/><path d="M175,0l25,25l-25,25l-25,-25l25,-25Z" style="fill:#f00;fill-opacity:0.0153604;fill-rule:nonzero;"/><path d="M200,-25l25,25l-25,25l-25,-25l25,-25Z" style="fill:#f00;fill-opacity:0.333333;fill-rule:nonzero;"/><path d="M225,0l25,25l-25,25l-25,-25l25,-25Z" style="fill:#f00;fill-opacity:0.0388398;fill-rule:nonzero;"/><path d="M250,-25l25,25l-25,25l-25,-25l25,-25Z" style="fill:#f00;fill-opacity:0.266667;fill-rule:nonzero;"/><path d="M275,0l25,25l-25,25l-25,-25l25,-25Z" style="fill:#f00;fill-opacity:0.071048;fill-rule:nonzero;"/><path d="M300,-25l25,25l-25,25l-25,-25l25,-25Z" style="fill:#f00;fill-opacity:0.333333;fill-rule:nonzero;"/><path d="M325,0l25,25l-25,25l-25,-25l25,-25Z" style="fill:#f00;fill-opacity:0.0102282;fill-rule:nonzero;"/><path d="M350,-25l25,25l-25,25l-25,-25l25,-25Z" style="fill:#f00;fill-opacity:0.233333;fill-rule:nonzero;"/><path d="M375,0l25,25l-25,25l-25,-25l25,-25Z" style="fill:#f00;fill-opacity:0.0635456;fill-rule:nonzero;"/><path d="M400,-25l25,25l-25,25l-25,-25l25,-25Z" style="fill:#f00;fill-opacity:0.4;fill-rule:nonzero;"/><path d="M-25,0l25,25l-25,25l-25,-25l25,-25Z" style="fill:#f00;fill-opacity:0.0172306;fill-rule:nonzero;"/><path d="M0,25l25,25l-25,25l-25,-25l25,-25Z" style="fill:#f00;fill-opacity:0.0782517;fill-rule:nonzero;"/><path d="M25,0l25,25l-25,25l-25,-25l25,-25Z" style="fill:#f00;fill-opacity:0.333333;fill-rule:nonzero;"/><path d="M50,25l25,25l-25,25l-25,-25l25,-25Z" style="fill:#f00;fill-opacity:0.0613108;fill-rule:nonzero;"/><path d="M75,0l25,25l-25,25l-25,-25l25,-25Z" style="fill:#f00;fill-opacity:0.366667;fill-rule:nonzero;"/><path d="M100,25l25,25l-25,25l-25,-25l25,-25Z" style="fill:#f00;fill-opacity:0.0576519;fill-rule:nonzero;"/><path d="M125,0l25,25l-25,25l-25,-25l25,-25Z" style="fill:#f00;fill-opacity:0.266667;fill-rule:nonzero;"/><path d="M150,25l25,25l-25,25l-25,-25l25,-25Z" style="fill:#f00;fill-opacity:0.00855511;fill-rule:nonzero;"/><path d="M175,0l25,25l-25,25l-25,-25l25,-25Z" style="fill:#f00;fill-opacity:0.266667;fill-rule:nonzero;"/><path d="M200,25l25,25l-25,25l-25,-25l25,-25Z" style="fill:#f00;fill-opacity:0.0160281;fill-rule:nonzero;"/><path d="M225,0l25,25l-25,25l-25,-25l25,-25Z" style="fill:#f00;fill-opacity:0.433333;fill-rule:nonzero;"/><path d="M250,25l25,25l-25,25l-25,-25l25,-25Z" style="fill:#f00;fill-opacity:0.0623147;fill-rule:nonzero;"/><path d="M275,0l25,25l-25,25l-25,-25l25,-25Z" style="fill:#f00;fill-opacity:0.2;fill-rule:nonzero;"/><path d="M300,25l25,25l-25,25l-25,-25l25,-25Z" style="fill:#f00;fill-opacity:0.0319946;fill-rule:nonzero;"/><path d="M325,0l25,25l-25,25l-25,-25l25,-25Z" style="fill:#f00;fill-opacity:0.266667;fill-rule:nonzero;"/><path d="M350,25l25,25l-25,25l-25,-25l25,-25Z" style="fill:#f00;fill-opacity:0.0204578;fill-rule:nonzero;"/><path d="M375,0l25,25l-25,25l-25,-25l25,-25Z" style="fill:#f00;fill-opacity:0.266667;fill-rule:nonzero;"/><path d="M400,25l25,25l-25,25l-25,-25l25,-25Z" style="fill:#f00;fill-opacity:0.0783152;fill-rule:nonzero;"/><path d="M0,25l25,25l-25,25l-25,-25l25,-25Z" style="fill:#f00;fill-opacity:0.466667;fill-rule:nonzero;"/><path d="M25,50l25,25l-25,25l-25,-25l25,-25Z" style="fill:#f00;fill-opacity:0.0497303;fill-rule:nonzero;"/><path d="M50,25l25,25l-25,25l-25,-25l25,-25Z" style="fill:#f00;fill-opacity:0.2;fill-rule:nonzero;"/><path d="M75,50l25,25l-25,25l-25,-25l25,-25Z" style="fill:#f00;fill-opacity:0.0868872;fill-rule:nonzero;"/><path d="M100,25l25,25l-25,25l-25,-25l25,-25Z" style="fill:#f00;fill-opacity:0.333333;fill-rule:nonzero;"/><path d="M125,50l25,25l-25,25l-25,-25l25,-25Z" style="fill:#f00;fill-opacity:0.0770755;fill-rule:nonzero;"/><path d="M150,25l25,25l-25,25l-25,-25l25,-25Z" style="fill:#f00;fill-opacity:0.288667;fill-rule:nonzero;"/><path d="M175,50l25,25l-25,25l-25,-25l25,-25Z" style="fill:#f00;fill-opacity:0.0579161;fill-rule:nonzero;"/><path d="M200,25l25,25l-25,25l-25,-25l25,-25Z" style="fill:#f00;fill-opacity:0.233333;fill-rule:nonzero;"/><path d="M225,50l25,25l-25,25l-25,-25l25,-25Z" style="fill:#f00;fill-opacity:0.0881927;fill-rule:nonzero;"/><path d="M250,25l25,25l-25,25l-25,-25l25,-25Z" style="fill:#f00;fill-opacity:0.233333;fill-rule:nonzero;"/><path d="M275,50l25,25l-25,25l-25,-25l25,-25Z" style="fill:#f00;fill-opacity:0.017072;fill-rule:nonzero;"/><path d="M300,25l25,25l-25,25l-25,-25l25,-25Z" style="fill:#f00;fill-opacity:0.133333;fill-rule:nonzero;"/><path d="M325,50l25,25l-25,25l-25,-25l25,-25Z" style="fill:#f00;fill-opacity:0.0687236;fill-rule:nonzero;"/><path d="M350,25l25,25l-25,25l-25,-25l25,-25Z" style="fill:#f00;fill-opacity:0.366667;fill-rule:nonzero;"/><path d="M375,50l25,25l-25,25l-25,-25l25,-25Z" style="fill:#f00;fill-opacity:0.0665619;fill-rule:nonzero;"/><path d="M400,25l25,25l-25,25l-25,-25l25,-25Z" style="fill:#f00;fill-opacity:0.333333;fill-rule:nonzero;"/><path d="M-25,50l25,25l-25,25l-25,-25l25,-25Z" style="fill:#f00;fill-opacity:0.0259692;fill-rule:nonzero;"/><path d="M0,75l25,25l-25,25l-25,-25l25,-25Z" style="fill:#f00;fill-opacity:0.0172595;fill-rule:nonzero;"/><path d="M25,50l25,25l-25,25l-25,-25l25,-25Z" style="fill:#f00;fill-opacity:0.333333;fill-rule:nonzero;"/><path d="M50,75l25,25l-25,25l-25,-25l25,-25Z" style="fill:#f00;fill-opacity:0.0399079;fill-rule:nonzero;"/><path d="M75,50l25,25l-25,25l-25,-25l25,-25Z" style="fill:#f00;fill-opacity:0.266667;fill-rule:nonzero;"/><path d="M100,75l25,25l-25,25l-25,-25l25,-25Z" style="fill:#f00;fill-opacity:0.0133869;fill-rule:nonzero;"/><path d="M125,50l25,25l-25,25l-25,-25l25,-25Z" style="fill:#f00;fill-opacity:0.186667;fill-rule:nonzero;"/><path d="M150,75l25,25l-25,25l-25,-25l25,-25Z" style="fill:#f00;fill-opacity:0.0621765;fill-rule:nonzero;"/><path d="M175,50l25,25l-25,25l-25,-25l25,-25Z" style="fill:#f00;fill-opacity:0.466667;fill-rule:nonzero;"/><path d="M200,75l25,25l-25,25l-25,-25l25,-25Z" style="fill:#f00;fill-opacity:0.0352277;fill-rule:nonzero;"/><path d="M225,50l25,25l-25,25l-25,-25l25,-25Z" style="fill:#f00;fill-opacity:0.266667;fill-rule:nonzero;"/><path d="M250,75l25,25l-25,25l-25,-25l25,-25Z" style="fill:#f00;fill-opacity:0.0268472;fill-rule:nonzero;"/><path d="M275,50l25,25l-25,25l-25,-25l25,-25Z" style="fill:#f00;fill-opacity:0.293333;fill-rule:nonzero;"/><path d="M300,75l25,25l-25,25l-25,-25l25,-25Z" style="fill:#f00;fill-opacity:0.0607071;fill-rule:nonzero;"/><path d="M325,50l25,25l-25,25l-25,-25l25,-25Z" style="fill:#f00;fill-opacity:0.4;fill-rule:nonzero;"/><path d="M350,75l25,25l-25,25l-25,-25l25,-25Z" style="fill:#f00;fill-opacity:0.0186831;fill-rule:nonzero;"/><path d="M375,50l25,25l-25,25l-25,-25l25,-25Z" style="fill:#f00;fill-opacity:0.266667;fill-rule:nonzero;"/><path d="M400,75l25,25l-25,25l-25,-25l25,-25Z" style="fill:#f00;fill-opacity:0.0690079;fill-rule:nonzero;"/><path d="M0,75l25,25l-25,25l-25,-25l25,-25Z" style="fill:#f00;fill-opacity:0.233333;fill-rule:nonzero;"/><path d="M25,100l25,25l-25,25l-25,-25l25,-25Z" style="fill:#f00;fill-opacity:0.00851587;fill-rule:nonzero;"/><path d="M50,75l25,25l-25,25l-25,-25l25,-25Z" style="fill:#f00;fill-opacity:0.266667;fill-rule:nonzero;"/><path d="M75,100l25,25l-25,25l-25,-25l25,-25Z" style="fill:#f00;fill-opacity:0.0265609;fill-rule:nonzero;"/><path d="M100,75l25,25l-25,25l-25,-25l25,-25Z" style="fill:#f00;fill-opacity:0.4;fill-rule:nonzero;"/><path d="M125,100l25,25l-25,25l-25,-25l25,-25Z" style="fill:#f00;fill-opacity:0.0628583;fill-rule:nonzero;"/><path d="M150,75l25,25l-25,25l-25,-25l25,-25Z" style="fill:#f00;fill-opacity:0.3;fill-rule:nonzero;"/><path d="M175,100l25,25l-25,25l-25,-25l25,-25Z" style="fill:#f00;fill-opacity:0.0858504;fill-rule:nonzero;"/><path d="M200,75l25,25l-25,25l-25,-25l25,-25Z" style="fill:#f00;fill-opacity:0.366667;fill-rule:nonzero;"/><path d="M225,100l25,25l-25,25l-25,-25l25,-25Z" style="fill:#f00;fill-opacity:0.073632;fill-rule:nonzero;"/><path d="M250,75l25,25l-25,25l-25,-25l25,-25Z" style="fill:#f00;fill-opacity:0.3;fill-rule:nonzero;"/><path d="M275,100l25,25l-25,25l-25,-25l25,-25Z" style="fill:#f00;fill-opacity:0.0679753;fill-rule:nonzero;"/><path d="M300,75l25,25l-25,25l-25,-25l25,-25Z" style="fill:#f00;fill-opacity:0.266667;fill-rule:nonzero;"/><path d="M325,100l25,25l-25,25l-25,-25l25,-25Z" style="fill:#f00;fill-opacity:0.0187249;fill-rule:nonzero;"/><path d="M350,75l25,25l-25,25l-25,-25l25,-25Z" style="fill:#f00;fill-opacity:0.4;fill-rule:nonzero;"/><path d="M375,100l25,25l-25,25l-25,-25l25,-25Z" style="fill:#f00;fill-opacity:0.0223012;fill-rule:nonzero;"/><path d="M400,75l25,25l-25,25l-25,-25l25,-25Z" style="fill:#f00;fill-opacity:0.333333;fill-rule:nonzero;"/><path d="M-25,100l25,25l-25,25l-25,-25l25,-25Z" style="fill:#f00;fill-opacity:0.0292239;fill-rule:nonzero;"/><path d="M0,125l25,25l-25,25l-25,-25l25,-25Z" style="fill:#f00;fill-opacity:0.00675955;fill-rule:nonzero;"/><path d="M25,100l25,25l-25,25l-25,-25l25,-25Z" style="fill:#f00;fill-opacity:0.333333;fill-rule:nonzero;"/><path d="M50,125l25,25l-25,25l-25,-25l25,-25Z" style="fill:#f00;fill-opacity:0.0253546;fill-rule:nonzero;"/><path d="M75,100l25,25l-25,25l-25,-25l25,-25Z" style="fill:#f00;fill-opacity:0.373333;fill-rule:nonzero;"/><path d="M100,125l25,25l-25,25l-25,-25l25,-25Z" style="fill:#f00;fill-opacity:0.0461169;fill-rule:nonzero;"/><path d="M125,100l25,25l-25,25l-25,-25l25,-25Z" style="fill:#f00;fill-opacity:0.533333;fill-rule:nonzero;"/><path d="M150,125l25,25l-25,25l-25,-25l25,-25Z" style="fill:#f00;fill-opacity:0.0754602;fill-rule:nonzero;"/><path d="M175,100l25,25l-25,25l-25,-25l25,-25Z" style="fill:#f00;fill-opacity:0.333333;fill-rule:nonzero;"/><path d="M200,125l25,25l-25,25l-25,-25l25,-25Z" style="fill:#f00;fill-opacity:0.0441657;fill-rule:nonzero;"/><path d="M225,100l25,25l-25,25l-25,-25l25,-25Z" style="fill:#f00;fill-opacity:0.366667;fill-rule:nonzero;"/><path d="M250,125l25,25l-25,25l-25,-25l25,-25Z" style="fill:#f00;fill-opacity:0.0615836;fill-rule:nonzero;"/><path d="M275,100l25,25l-25,25l-25,-25l25,-25Z" style="fill:#f00;fill-opacity:0.304;fill-rule:nonzero;"/><path d="M300,125l25,25l-25,25l-25,-25l25,-25Z" style="fill:#f00;fill-opacity:0.0371593;fill-rule:nonzero;"/><path d="M325,100l25,25l-25,25l-25,-25l25,-25Z" style="fill:#f00;fill-opacity:0.266667;fill-rule:nonzero;"/><path d="M350,125l25,25l-25,25l-25,-25l25,-25Z" style="fill:#f00;fill-opacity:0.00245156;fill-rule:nonzero;"/><path d="M375,100l25,25l-25,25l-25,-25l25,-25Z" style="fill:#f00;fill-opacity:0.506667;fill-rule:nonzero;"/><path d="M400,125l25,25l-25,25l-25,-25l25,-25Z" style="fill:#f00;fill-opacity:0.0869954;fill-rule:nonzero;"/><path d="M0,125l25,25l-25,25l-25,-25l25,-25Z" style="fill:#f00;fill-opacity:0.533333;fill-rule:nonzero;"/><path d="M25,150l25,25l-25,25l-25,-25l25,-25Z" style="fill:#f00;fill-opacity:0.00134649;fill-rule:nonzero;"/><path d="M50,125l25,25l-25,25l-25,-25l25,-25Z" style="fill:#f00;fill-opacity:0.4;fill-rule:nonzero;"/><path d="M75,150l25,25l-25,25l-25,-25l25,-25Z" style="fill:#f00;fill-opacity:0.0370049;fill-rule:nonzero;"/><path d="M100,125l25,25l-25,25l-25,-25l25,-25Z" style="fill:#f00;fill-opacity:0.4;fill-rule:nonzero;"/><path d="M125,150l25,25l-25,25l-25,-25l25,-25Z" style="fill:#f00;fill-opacity:0.0426421;fill-rule:nonzero;"/><path d="M150,125l25,25l-25,25l-25,-25l25,-25Z" style="fill:#f00;fill-opacity:0.446667;fill-rule:nonzero;"/><path d="M175,150l25,25l-25,25l-25,-25l25,-25Z" style="fill:#f00;fill-opacity:0.00305307;fill-rule:nonzero;"/><path d="M200,125l25,25l-25,25l-25,-25l25,-25Z" style="fill:#f00;fill-opacity:0.333333;fill-rule:nonzero;"/><path d="M225,150l25,25l-25,25l-25,-25l25,-25Z" style="fill:#f00;fill-opacity:0.0750217;fill-rule:nonzero;"/><path d="M250,125l25,25l-25,25l-25,-25l25,-25Z" style="fill:#f00;fill-opacity:0.466667;fill-rule:nonzero;"/><path d="M275,150l25,25l-25,25l-25,-25l25,-25Z" style="fill:#f00;fill-opacity:0.0137144;fill-rule:nonzero;"/><path d="M300,125l25,25l-25,25l-25,-25l25,-25Z" style="fill:#f00;fill-opacity:0.466667;fill-rule:nonzero;"/><path d="M325,150l25,25l-25,25l-25,-25l25,-25Z" style="fill:#f00;fill-opacity:0.0634089;fill-rule:nonzero;"/><path d="M350,125l25,25l-25,25l-25,-25l25,-25Z" style="fill:#f00;fill-opacity:0.486667;fill-rule:nonzero;"/><path d="M375,150l25,25l-25,25l-25,-25l25,-25Z" style="fill:#f00;fill-opacity:0.0092321;fill-rule:nonzero;"/><path d="M400,125l25,25l-25,25l-25,-25l25,-25Z" style="fill:#f00;fill-opacity:0.4;fill-rule:nonzero;"/><path d="M-25,150l25,25l-25,25l-25,-25l25,-25Z" style="fill:#f00;fill-opacity:0.0776514;fill-rule:nonzero;"/><path d="M0,175l25,25l-25,25l-25,-25l25,-25Z" style="fill:#f00;fill-opacity:0.0143234;fill-rule:nonzero;"/><path d="M25,150l25,25l-25,25l-25,-25l25,-25Z" style="fill:#f00;fill-opacity:0.4;fill-rule:nonzero;"/><path d="M50,175l25,25l-25,25l-25,-25l25,-25Z" style="fill:#f00;fill-opacity:0.0244579;fill-rule:nonzero;"/><path d="M75,150l25,25l-25,25l-25,-25l25,-25Z" style="fill:#f00;fill-opacity:0.466667;fill-rule:nonzero;"/><path d="M100,175l25,25l-25,25l-25,-25l25,-25Z" style="fill:#f00;fill-opacity:0.0573226;fill-rule:nonzero;"/><path d="M125,150l25,25l-25,25l-25,-25l25,-25Z" style="fill:#f00;fill-opacity:0.133333;fill-rule:nonzero;"/><path d="M150,175l25,25l-25,25l-25,-25l25,-25Z" style="fill:#f00;fill-opacity:0.0111736;fill-rule:nonzero;"/><path d="M175,150l25,25l-25,25l-25,-25l25,-25Z" style="fill:#f00;fill-opacity:0.333333;fill-rule:nonzero;"/><path d="M200,175l25,25l-25,25l-25,-25l25,-25Z" style="fill:#f00;fill-opacity:0.0572217;fill-rule:nonzero;"/><path d="M225,150l25,25l-25,25l-25,-25l25,-25Z" style="fill:#f00;fill-opacity:0.3;fill-rule:nonzero;"/><path d="M250,175l25,25l-25,25l-25,-25l25,-25Z" style="fill:#f00;fill-opacity:0.0107065;fill-rule:nonzero;"/><path d="M275,150l25,25l-25,25l-25,-25l25,-25Z" style="fill:#f00;fill-opacity:0.0268809;fill-rule:nonzero;"/><path d="M300,175l25,25l-25,25l-25,-25l25,-25Z" style="fill:#f00;fill-opacity:0.0329662;fill-rule:nonzero;"/><path d="M325,150l25,25l-25,25l-25,-25l25,-25Z" style="fill:#f00;fill-opacity:0.4;fill-rule:nonzero;"/><path d="M350,175l25,25l-25,25l-25,-25l25,-25Z" style="fill:#f00;fill-opacity:0.0791775;fill-rule:nonzero;"/><path d="M375,150l25,25l-25,25l-25,-25l25,-25Z" style="fill:#f00;fill-opacity:0.333333;fill-rule:nonzero;"/><path d="M400,175l25,25l-25,25l-25,-25l25,-25Z" style="fill:#f00;fill-opacity:0.0608706;fill-rule:nonzero;"/><path d="M0,175l25,25l-25,25l-25,-25l25,-25Z" style="fill:#f00;fill-opacity:0.0409365;fill-rule:nonzero;"/><path d="M25,200l25,25l-25,25l-25,-25l25,-25Z" style="fill:#f00;fill-opacity:0.0621707;fill-rule:nonzero;"/><path d="M50,175l25,25l-25,25l-25,-25l25,-25Z" style="fill:#f00;fill-opacity:0.333333;fill-rule:nonzero;"/><path d="M75,200l25,25l-25,25l-25,-25l25,-25Z" style="fill:#f00;fill-opacity:0.0517799;fill-rule:nonzero;"/><path d="M100,175l25,25l-25,25l-25,-25l25,-25Z" style="fill:#f00;fill-opacity:0.0386768;fill-rule:nonzero;"/><path d="M125,200l25,25l-25,25l-25,-25l25,-25Z" style="fill:#f00;fill-opacity:0.00719583;fill-rule:nonzero;"/><path d="M150,175l25,25l-25,25l-25,-25l25,-25Z" style="fill:#f00;fill-opacity:0.008;fill-rule:nonzero;"/><path d="M175,200l25,25l-25,25l-25,-25l25,-25Z" style="fill:#f00;fill-opacity:0.0807431;fill-rule:nonzero;"/><path d="M200,175l25,25l-25,25l-25,-25l25,-25Z" style="fill:#f00;fill-opacity:0.333333;fill-rule:nonzero;"/><path d="M225,200l25,25l-25,25l-25,-25l25,-25Z" style="fill:#f00;fill-opacity:0.0711303;fill-rule:nonzero;"/><path d="M250,175l25,25l-25,25l-25,-25l25,-25Z" style="fill:#f00;fill-opacity:0.00794857;fill-rule:nonzero;"/><path d="M275,200l25,25l-25,25l-25,-25l25,-25Z" style="fill:#f00;fill-opacity:0.0611571;fill-rule:nonzero;"/><path d="M300,175l25,25l-25,25l-25,-25l25,-25Z" style="fill:#f00;fill-opacity:0.0702335;fill-rule:nonzero;"/><path d="M325,200l25,25l-25,25l-25,-25l25,-25Z" style="fill:#f00;fill-opacity:0.0343991;fill-rule:nonzero;"/><path d="M350,175l25,25l-25,25l-25,-25l25,-25Z" style="fill:#f00;fill-opacity:0.3;fill-rule:nonzero;"/><path d="M375,200l25,25l-25,25l-25,-25l25,-25Z" style="fill:#f00;fill-opacity:0.0647017;fill-rule:nonzero;"/><path d="M400,175l25,25l-25,25l-25,-25l25,-25Z" style="fill:#f00;fill-opacity:0.0630472;fill-rule:nonzero;"/><path d="M-25,200l25,25l-25,25l-25,-25l25,-25Z" style="fill:#f00;fill-opacity:0.0584655;fill-rule:nonzero;"/><path d="M0,225l25,25l-25,25l-25,-25l25,-25Z" style="fill:#f00;fill-opacity:0.0853589;fill-rule:nonzero;"/><path d="M25,200l25,25l-25,25l-25,-25l25,-25Z" style="fill:#f00;fill-opacity:0.0582443;fill-rule:nonzero;"/><path d="M50,225l25,25l-25,25l-25,-25l25,-25Z" style="fill:#f00;fill-opacity:0.0614219;fill-rule:nonzero;"/><path d="M75,200l25,25l-25,25l-25,-25l25,-25Z" style="fill:#f00;fill-opacity:0.0549615;fill-rule:nonzero;"/><path d="M100,225l25,25l-25,25l-25,-25l25,-25Z" style="fill:#f00;fill-opacity:0.0806015;fill-rule:nonzero;"/><path d="M125,200l25,25l-25,25l-25,-25l25,-25Z" style="fill:#f00;fill-opacity:0.0873193;fill-rule:nonzero;"/><path d="M150,225l25,25l-25,25l-25,-25l25,-25Z" style="fill:#f00;fill-opacity:0.0567101;fill-rule:nonzero;"/><path d="M175,200l25,25l-25,25l-25,-25l25,-25Z" style="fill:#f00;fill-opacity:0.0567706;fill-rule:nonzero;"/><path d="M200,225l25,25l-25,25l-25,-25l25,-25Z" style="fill:#f00;fill-opacity:0.0614024;fill-rule:nonzero;"/><path d="M225,200l25,25l-25,25l-25,-25l25,-25Z" style="fill:#f00;fill-opacity:0.0357788;fill-rule:nonzero;"/><path d="M250,225l25,25l-25,25l-25,-25l25,-25Z" style="fill:#f00;fill-opacity:0.0392326;fill-rule:nonzero;"/><path d="M275,200l25,25l-25,25l-25,-25l25,-25Z" style="fill:#f00;fill-opacity:0.0638211;fill-rule:nonzero;"/><path d="M300,225l25,25l-25,25l-25,-25l25,-25Z" style="fill:#f00;fill-opacity:0.0108283;fill-rule:nonzero;"/><path d="M325,200l25,25l-25,25l-25,-25l25,-25Z" style="fill:#f00;fill-opacity:0.0804505;fill-rule:nonzero;"/><path d="M350,225l25,25l-25,25l-25,-25l25,-25Z" style="fill:#f00;fill-opacity:0.0749936;fill-rule:nonzero;"/><path d="M375,200l25,25l-25,25l-25,-25l25,-25Z" style="fill:#f00;fill-opacity:0.0842214;fill-rule:nonzero;"/><path d="M400,225l25,25l-25,25l-25,-25l25,-25Z" style="fill:#f00;fill-opacity:0.00309869;fill-rule:nonzero;"/><path d="M0,225l25,25l-25,25l-25,-25l25,-25Z" style="fill:#f00;fill-opacity:0.0394998;fill-rule:nonzero;"/><path d="M25,250l25,25l-25,25l-25,-25l25,-25Z" style="fill:#f00;fill-opacity:0.00750674;fill-rule:nonzero;"/><path d="M50,225l25,25l-25,25l-25,-25l25,-25Z" style="fill:#f00;fill-opacity:0.00683238;fill-rule:nonzero;"/><path d="M75,250l25,25l-25,25l-25,-25l25,-25Z" style="fill:#f00;fill-opacity:0.0635772;fill-rule:nonzero;"/><path d="M100,225l25,25l-25,25l-25,-25l25,-25Z" style="fill:#f00;fill-opacity:0.00522601;fill-rule:nonzero;"/><path d="M125,250l25,25l-25,25l-25,-25l25,-25Z" style="fill:#f00;fill-opacity:0.0124565;fill-rule:nonzero;"/><path d="M150,225l25,25l-25,25l-25,-25l25,-25Z" style="fill:#f00;fill-opacity:0.063729;fill-rule:nonzero;"/><path d="M175,250l25,25l-25,25l-25,-25l25,-25Z" style="fill:#f00;fill-opacity:0.0509429;fill-rule:nonzero;"/><path d="M200,225l25,25l-25,25l-25,-25l25,-25Z" style="fill:#f00;fill-opacity:0.0877256;fill-rule:nonzero;"/><path d="M225,250l25,25l-25,25l-25,-25l25,-25Z" style="fill:#f00;fill-opacity:0.0142789;fill-rule:nonzero;"/><path d="M250,225l25,25l-25,25l-25,-25l25,-25Z" style="fill:#f00;fill-opacity:0.0738494;fill-rule:nonzero;"/><path d="M275,250l25,25l-25,25l-25,-25l25,-25Z" style="fill:#f00;fill-opacity:0.0151741;fill-rule:nonzero;"/><path d="M300,225l25,25l-25,25l-25,-25l25,-25Z" style="fill:#f00;fill-opacity:0.0255232;fill-rule:nonzero;"/><path d="M325,250l25,25l-25,25l-25,-25l25,-25Z" style="fill:#f00;fill-opacity:0.0178624;fill-rule:nonzero;"/><path d="M350,225l25,25l-25,25l-25,-25l25,-25Z" style="fill:#f00;fill-opacity:0.0869398;fill-rule:nonzero;"/><path d="M375,250l25,25l-25,25l-25,-25l25,-25Z" style="fill:#f00;fill-opacity:0.0633665;fill-rule:nonzero;"/><path d="M400,225l25,25l-25,25l-25,-25l25,-25Z" style="fill:#f00;fill-opacity:0.0663163;fill-rule:nonzero;"/><path d="M-25,250l25,25l-25,25l-25,-25l25,-25Z" style="fill:#f00;fill-opacity:0.0713408;fill-rule:nonzero;"/><path d="M0,275l25,25l-25,25l-25,-25l25,-25Z" style="fill:#f00;fill-opacity:0.0609203;fill-rule:nonzero;"/><path d="M25,250l25,25l-25,25l-25,-25l25,-25Z" style="fill:#f00;fill-opacity:0.030745;fill-rule:nonzero;"/><path d="M50,275l25,25l-25,25l-25,-25l25,-25Z" style="fill:#f00;fill-opacity:0.0732396;fill-rule:nonzero;"/><path d="M75,250l25,25l-25,25l-25,-25l25,-25Z" style="fill:#f00;fill-opacity:0.025294;fill-rule:nonzero;"/><path d="M100,275l25,25l-25,25l-25,-25l25,-25Z" style="fill:#f00;fill-opacity:0.00929648;fill-rule:nonzero;"/><path d="M125,250l25,25l-25,25l-25,-25l25,-25Z" style="fill:#f00;fill-opacity:0.0545283;fill-rule:nonzero;"/><path d="M150,275l25,25l-25,25l-25,-25l25,-25Z" style="fill:#f00;fill-opacity:0.0707506;fill-rule:nonzero;"/><path d="M175,250l25,25l-25,25l-25,-25l25,-25Z" style="fill:#f00;fill-opacity:0.0294006;fill-rule:nonzero;"/><path d="M200,275l25,25l-25,25l-25,-25l25,-25Z" style="fill:#f00;fill-opacity:0.0615306;fill-rule:nonzero;"/><path d="M225,250l25,25l-25,25l-25,-25l25,-25Z" style="fill:#f00;fill-opacity:0.0342614;fill-rule:nonzero;"/><path d="M250,275l25,25l-25,25l-25,-25l25,-25Z" style="fill:#f00;fill-opacity:0.0465836;fill-rule:nonzero;"/><path d="M275,250l25,25l-25,25l-25,-25l25,-25Z" style="fill:#f00;fill-opacity:0.0459032;fill-rule:nonzero;"/><path d="M300,275l25,25l-25,25l-25,-25l25,-25Z" style="fill:#f00;fill-opacity:0.0550777;fill-rule:nonzero;"/><path d="M325,250l25,25l-25,25l-25,-25l25,-25Z" style="fill:#f00;fill-opacity:0.0602654;fill-rule:nonzero;"/><path d="M350,275l25,25l-25,25l-25,-25l25,-25Z" style="fill:#f00;fill-opacity:0.0303666;fill-rule:nonzero;"/><path d="M375,250l25,25l-25,25l-25,-25l25,-25Z" style="fill:#f00;fill-opacity:0.0393335;fill-rule:nonzero;"/><path d="M400,275l25,25l-25,25l-25,-25l25,-25Z" style="fill:#f00;fill-opacity:0.017878;fill-rule:nonzero;"/><path d="M0,275l25,25l-25,25l-25,-25l25,-25Z" style="fill:#f00;fill-opacity:0.0436507;fill-rule:nonzero;"/><path d="M25,300l25,25l-25,25l-25,-25l25,-25Z" style="fill:#f00;fill-opacity:0.0184187;fill-rule:nonzero;"/><path d="M50,275l25,25l-25,25l-25,-25l25,-25Z" style="fill:#f00;fill-opacity:0.0879241;fill-rule:nonzero;"/><path d="M75,300l25,25l-25,25l-25,-25l25,-25Z" style="fill:#f00;fill-opacity:0.0131015;fill-rule:nonzero;"/><path d="M100,275l25,25l-25,25l-25,-25l25,-25Z" style="fill:#f00;fill-opacity:0.0596246;fill-rule:nonzero;"/><path d="M125,300l25,25l-25,25l-25,-25l25,-25Z" style="fill:#f00;fill-opacity:0.0511986;fill-rule:nonzero;"/><path d="M150,275l25,25l-25,25l-25,-25l25,-25Z" style="fill:#f00;fill-opacity:0.0814949;fill-rule:nonzero;"/><path d="M175,300l25,25l-25,25l-25,-25l25,-25Z" style="fill:#f00;fill-opacity:0.0409316;fill-rule:nonzero;"/><path d="M200,275l25,25l-25,25l-25,-25l25,-25Z" style="fill:#f00;fill-opacity:0.0477407;fill-rule:nonzero;"/><path d="M225,300l25,25l-25,25l-25,-25l25,-25Z" style="fill:#f00;fill-opacity:0.0477407;fill-rule:nonzero;"/><path d="M250,275l25,25l-25,25l-25,-25l25,-25Z" style="fill:#f00;fill-opacity:0.0696659;fill-rule:nonzero;"/><path d="M275,300l25,25l-25,25l-25,-25l25,-25Z" style="fill:#f00;fill-opacity:0.062227;fill-rule:nonzero;"/><path d="M300,275l25,25l-25,25l-25,-25l25,-25Z" style="fill:#f00;fill-opacity:0.0185817;fill-rule:nonzero;"/><path d="M325,300l25,25l-25,25l-25,-25l25,-25Z" style="fill:#f00;fill-opacity:0.0653437;fill-rule:nonzero;"/><path d="M350,275l25,25l-25,25l-25,-25l25,-25Z" style="fill:#f00;fill-opacity:0.0527292;fill-rule:nonzero;"/><path d="M375,300l25,25l-25,25l-25,-25l25,-25Z" style="fill:#f00;fill-opacity:0.0320448;fill-rule:nonzero;"/><path d="M400,275l25,25l-25,25l-25,-25l25,-25Z" style="fill:#f00;fill-opacity:0.0280777;fill-rule:nonzero;"/><path d="M-25,300l25,25l-25,25l-25,-25l25,-25Z" style="fill:#f00;fill-opacity:0.0180103;fill-rule:nonzero;"/><path d="M0,325l25,25l-25,25l-25,-25l25,-25Z" style="fill:#f00;fill-opacity:0.0694779;fill-rule:nonzero;"/><path d="M25,300l25,25l-25,25l-25,-25l25,-25Z" style="fill:#f00;fill-opacity:0.0616398;fill-rule:nonzero;"/><path d="M50,325l25,25l-25,25l-25,-25l25,-25Z" style="fill:#f00;fill-opacity:0.0885202;fill-rule:nonzero;"/><path d="M75,300l25,25l-25,25l-25,-25l25,-25Z" style="fill:#f00;fill-opacity:0.0202274;fill-rule:nonzero;"/><path d="M100,325l25,25l-25,25l-25,-25l25,-25Z" style="fill:#f00;fill-opacity:0.0628297;fill-rule:nonzero;"/><path d="M125,300l25,25l-25,25l-25,-25l25,-25Z" style="fill:#f00;fill-opacity:0.0272869;fill-rule:nonzero;"/><path d="M150,325l25,25l-25,25l-25,-25l25,-25Z" style="fill:#f00;fill-opacity:0.0275185;fill-rule:nonzero;"/><path d="M175,300l25,25l-25,25l-25,-25l25,-25Z" style="fill:#f00;fill-opacity:0.0242577;fill-rule:nonzero;"/><path d="M200,325l25,25l-25,25l-25,-25l25,-25Z" style="fill:#f00;fill-opacity:0.0267268;fill-rule:nonzero;"/><path d="M225,300l25,25l-25,25l-25,-25l25,-25Z" style="fill:#f00;fill-opacity:0.0298499;fill-rule:nonzero;"/><path d="M250,325l25,25l-25,25l-25,-25l25,-25Z" style="fill:#f00;fill-opacity:0.0145035;fill-rule:nonzero;"/><path d="M275,300l25,25l-25,25l-25,-25l25,-25Z" style="fill:#f00;fill-opacity:0.0460749;fill-rule:nonzero;"/><path d="M300,325l25,25l-25,25l-25,-25l25,-25Z" style="fill:#f00;fill-opacity:0.0665716;fill-rule:nonzero;"/><path d="M325,300l25,25l-25,25l-25,-25l25,-25Z" style="fill:#f00;fill-opacity:0.0602581;fill-rule:nonzero;"/><path d="M350,325l25,25l-25,25l-25,-25l25,-25Z" style="fill:#f00;fill-opacity:0.0069916;fill-rule:nonzero;"/><path d="M375,300l25,25l-25,25l-25,-25l25,-25Z" style="fill:#f00;fill-opacity:0.0483235;fill-rule:nonzero;"/><path d="M400,325l25,25l-25,25l-25,-25l25,-25Z" style="fill:#f00;fill-opacity:0.0413977;fill-rule:nonzero;"/><path d="M0,325l25,25l-25,25l-25,-25l25,-25Z" style="fill:#f00;fill-opacity:0.0640247;fill-rule:nonzero;"/><path d="M25,350l25,25l-25,25l-25,-25l25,-25Z" style="fill:#f00;fill-opacity:0.000240419;fill-rule:nonzero;"/><path d="M50,325l25,25l-25,25l-25,-25l25,-25Z" style="fill:#f00;fill-opacity:0.0428922;fill-rule:nonzero;"/><path d="M75,350l25,25l-25,25l-25,-25l25,-25Z" style="fill:#f00;fill-opacity:0.087182;fill-rule:nonzero;"/><path d="M100,325l25,25l-25,25l-25,-25l25,-25Z" style="fill:#f00;fill-opacity:0.0840997;fill-rule:nonzero;"/><path d="M125,350l25,25l-25,25l-25,-25l25,-25Z" style="fill:#f00;fill-opacity:0.00170176;fill-rule:nonzero;"/><path d="M150,325l25,25l-25,25l-25,-25l25,-25Z" style="fill:#f00;fill-opacity:0.0565748;fill-rule:nonzero;"/><path d="M175,350l25,25l-25,25l-25,-25l25,-25Z" style="fill:#f00;fill-opacity:0.0857457;fill-rule:nonzero;"/><path d="M200,325l25,25l-25,25l-25,-25l25,-25Z" style="fill:#f00;fill-opacity:0.0525539;fill-rule:nonzero;"/><path d="M225,350l25,25l-25,25l-25,-25l25,-25Z" style="fill:#f00;fill-opacity:0.0187968;fill-rule:nonzero;"/><path d="M250,325l25,25l-25,25l-25,-25l25,-25Z" style="fill:#f00;fill-opacity:0.0845125;fill-rule:nonzero;"/><path d="M275,350l25,25l-25,25l-25,-25l25,-25Z" style="fill:#f00;fill-opacity:0.0725109;fill-rule:nonzero;"/><path d="M300,325l25,25l-25,25l-25,-25l25,-25Z" style="fill:#f00;fill-opacity:0.0653279;fill-rule:nonzero;"/><path d="M325,350l25,25l-25,25l-25,-25l25,-25Z" style="fill:#f00;fill-opacity:0.0621335;fill-rule:nonzero;"/><path d="M350,325l25,25l-25,25l-25,-25l25,-25Z" style="fill:#f00;fill-opacity:0.0492621;fill-rule:nonzero;"/><path d="M375,350l25,25l-25,25l-25,-25l25,-25Z" style="fill:#f00;fill-opacity:0.0607669;fill-rule:nonzero;"/><path d="M400,325l25,25l-25,25l-25,-25l25,-25Z" style="fill:#f00;fill-opacity:0.0643291;fill-rule:nonzero;"/><path d="M-25,350l25,25l-25,25l-25,-25l25,-25Z" style="fill:#f00;fill-opacity:0.0540438;fill-rule:nonzero;"/><path d="M0,375l25,25l-25,25l-25,-25l25,-25Z" style="fill:#f00;fill-opacity:0.0819564;fill-rule:nonzero;"/><path d="M25,350l25,25l-25,25l-25,-25l25,-25Z" style="fill:#f00;fill-opacity:0.0897642;fill-rule:nonzero;"/><path d="M50,375l25,25l-25,25l-25,-25l25,-25Z" style="fill:#f00;fill-opacity:0.0509089;fill-rule:nonzero;"/><path d="M75,350l25,25l-25,25l-25,-25l25,-25Z" style="fill:#f00;fill-opacity:0.0649171;fill-rule:nonzero;"/><path d="M100,375l25,25l-25,25l-25,-25l25,-25Z" style="fill:#f00;fill-opacity:0.0453404;fill-rule:nonzero;"/><path d="M125,350l25,25l-25,25l-25,-25l25,-25Z" style="fill:#f00;fill-opacity:0.0654683;fill-rule:nonzero;"/><path d="M150,375l25,25l-25,25l-25,-25l25,-25Z" style="fill:#f00;fill-opacity:0.054667;fill-rule:nonzero;"/><path d="M175,350l25,25l-25,25l-25,-25l25,-25Z" style="fill:#f00;fill-opacity:0.0783528;fill-rule:nonzero;"/><path d="M200,375l25,25l-25,25l-25,-25l25,-25Z" style="fill:#f00;fill-opacity:0.0381999;fill-rule:nonzero;"/><path d="M225,350l25,25l-25,25l-25,-25l25,-25Z" style="fill:#f00;fill-opacity:0.0263466;fill-rule:nonzero;"/><path d="M250,375l25,25l-25,25l-25,-25l25,-25Z" style="fill:#f00;fill-opacity:0.0235596;fill-rule:nonzero;"/><path d="M275,350l25,25l-25,25l-25,-25l25,-25Z" style="fill:#f00;fill-opacity:0.0843026;fill-rule:nonzero;"/><path d="M300,375l25,25l-25,25l-25,-25l25,-25Z" style="fill:#f00;fill-opacity:0.0248562;fill-rule:nonzero;"/><path d="M325,350l25,25l-25,25l-25,-25l25,-25Z" style="fill:#f00;fill-opacity:0.00664758;fill-rule:nonzero;"/><path d="M350,375l25,25l-25,25l-25,-25l25,-25Z" style="fill:#f00;fill-opacity:0.0439412;fill-rule:nonzero;"/><path d="M375,350l25,25l-25,25l-25,-25l25,-25Z" style="fill:#f00;fill-opacity:0.0883567;fill-rule:nonzero;"/><path d="M400,375l25,25l-25,25l-25,-25l25,-25Z" style="fill:#f00;fill-opacity:0.00195864;fill-rule:nonzero;"/><path d="M0,375l25,25l-25,25l-25,-25l25,-25Z" style="fill:#f00;fill-opacity:0.0538661;fill-rule:nonzero;"/><path d="M50,375l25,25l-25,25l-25,-25l25,-25Z" style="fill:#f00;fill-opacity:0.0408215;fill-rule:nonzero;"/><path d="M100,375l25,25l-25,25l-25,-25l25,-25Z" style="fill:#f00;fill-opacity:0.0831609;fill-rule:nonzero;"/><path d="M150,375l25,25l-25,25l-25,-25l25,-25Z" style="fill:#f00;fill-opacity:0.0481793;fill-rule:nonzero;"/><path d="M200,375l25,25l-25,25l-25,-25l25,-25Z" style="fill:#f00;fill-opacity:0.0323756;fill-rule:nonzero;"/><path d="M250,375l25,25l-25,25l-25,-25l25,-25Z" style="fill:#f00;fill-opacity:0.0282307;fill-rule:nonzero;"/><path d="M300,375l25,25l-25,25l-25,-25l25,-25Z" style="fill:#f00;fill-opacity:0.0369448;fill-rule:nonzero;"/><path d="M350,375l25,25l-25,25l-25,-25l25,-25Z" style="fill:#f00;fill-opacity:0.0472597;fill-rule:nonzero;"/><path d="M400,375l25,25l-25,25l-25,-25l25,-25Z" style="fill:#f00;fill-opacity:0.0307759;fill-rule:nonzero;"/><path d="M-25,400l25,25l-25,25l-25,-25l25,-25Z" style="fill:#f00;fill-opacity:0.0173551;fill-rule:nonzero;"/><text x="175px" y="375px" style="font-family:'Arial-BoldMT', 'Arial', sans-serif;font-weight:700;font-size:175px;fill:#f88;">JS</text></svg>