<svg xmlns="http://www.w3.org/2000/svg" viewBox="0 0 170 120">

  <style>
    path { fill: #000; }
  </style>
  <g id="ma-tea" fill="none" fill-rule="nonzero">
    <path id="claim" d="M7.3 116.7c0-.5-.2-.8-1.8-1-1.8-.2-2.7-1-2.7-2.4 0-1.7 1.3-3 3.3-3.3 1.4-.3 2.6 0 3.5.9L8 112.4c-.4-.5-1-.6-1.5-.5-.7.1-1 .4-1 .8 0 .5.3.7 1.7 1 1.9.2 2.7.8 2.7 2.3 0 1.7-1.4 3.1-3.5 3.5-1.6.3-3 0-3.9-1l1.8-1.5c.5.4 1.2.7 2 .6.6-.1 1-.5 1-1zm7-5.7c1.3-.3 2.5.2 3.1 1.2l-1.8 1.2c-.3-.4-.7-.7-1.2-.6-.8.2-1.3 1-1.3 2s.5 1.6 1.3 1.4c.5 0 .9-.4 1.2-1l1.8.6c-.6 1.2-1.8 2.1-3.2 2.3-2.2.4-3.5-.8-3.5-3a4 4 0 0 1 3.5-4.1zm6.4 1.3v4.5l-2.4.5v-9.7l2.4-.4v3.5a4 4 0 0 1 2.2-1.3c1.3-.2 2.3.5 2.3 2.3v4.4l-2.5.4v-4.2c0-.7-.3-1-.8-.8-.4 0-.9.4-1.2.8zm5.9.4V109l2.4-.5v4c0 .8.5 1.1 1 1 .7-.1 1-.6 1-1.3v-4l2.5-.4v3.7c0 2.1-1.3 3.5-3.4 3.8-2.2.5-3.5-.4-3.5-2.6zm2-5.1c-.5.1-.9-.3-.9-.8s.4-1 1-1.1c.5-.1 1 .2 1 .7 0 .6-.5 1.1-1 1.2zm2.8-.5c-.5.1-1-.2-1-.8 0-.5.5-1 1-1.1.6-.1 1 .2 1 .8 0 .5-.4 1-1 1.1zm4 4.7v-2.5l-1.1.1v-1.8l1.1-.2v-2l2.5-.4v2l1.5-.3v1.8l-1.5.3v2.4c0 .7.2 1 1 .7h.5v1.7l-1.2.3c-2 .4-2.8-.3-2.8-2.1zm5.6-1v-2.6l-1.2.2v-1.8l1.2-.2v-2l2.4-.5v2l1.5-.2v1.8l-1.5.3v2.3c0 .8.2 1 1 .8h.5v1.7l-1.2.3c-2 .4-2.7-.2-2.7-2.2zm11.6-2.4l-4.6.9c.2.6.6 1 1.4.8.5 0 1-.4 1.3-.8l1.6.7c-.7 1-1.8 1.7-3 2-2.3.4-3.6-.9-3.6-3 0-2 1.3-3.8 3.4-4.2 2-.3 3.5 1 3.5 3v.6zM48 108l2.2-.4c0-.8-.4-1.1-1-1-.7.1-1.1.7-1.2 1.4zm5.8-6.6l2.5-.4v9.7l-2.5.4v-9.7zm6.4 4v4.6l-2.5.4v-6.9l2.5-.4v.8a4 4 0 0 1 2.1-1.4c1.4-.2 2.3.5 2.3 2.3v4.4l-2.4.4v-4.2c0-.6-.3-1-.8-.8-.5.1-1 .5-1.2.8zm7.2 3.5c-.7.1-1.2-.3-1.2-1s.5-1.4 1.2-1.5c.6 0 1.2.3 1.2 1 0 .8-.6 1.4-1.2 1.5zm8.4-8.9l-2.5.5v-2.1L81 97v2l-2.5.5v7.1l-2.5.4v-7zm10.2.3h-.5c-.7.2-1.4.6-1.8 1.3v4.2l-2.4.4v-6.9l2.4-.4v.8c.4-.7 1-1.2 1.9-1.3h.4v1.9zm2.1-2.7c-.8.1-1.4-.4-1.4-1.1 0-.8.6-1.5 1.4-1.7.8 0 1.4.4 1.4 1.2 0 .8-.6 1.5-1.4 1.6zm-1.2.8l2.5-.4v6.8l-2.5.4v-6.8zm6.4 1.2v4.5l-2.5.4v-6.8l2.5-.5v.8a4 4 0 0 1 2.1-1.3c1.4-.2 2.4.5 2.4 2.3v4.3l-2.5.4v-4.1c0-.7-.3-1-.8-.9-.4.1-1 .5-1.2.9zm8.3-6.6v5l1.8-2.5 2.7-.5-2.2 3 2.5 3.8-2.6.5-1.4-2.4-.8 1.1v1.7l-2.4.4v-9.7l2.4-.4zm11.9 4.8l-4.6.7c.2.7.6 1 1.4 1 .5-.2 1-.5 1.3-1l1.6.8c-.7 1-1.8 1.7-3 2-2.3.4-3.6-.9-3.6-3 0-2 1.3-3.8 3.4-4.2 2.1-.3 3.5 1 3.5 3v.7zm-4.6-.6l2.2-.4c0-.7-.5-1-1.1-1-.7.2-1 .7-1.1 1.4zm8.1-1.8v4.5l-2.4.4v-6.8l2.4-.4v.7a4 4 0 0 1 2.2-1.3c1.4-.2 2.3.5 2.3 2.3V99l-2.4.5v-4.2c0-.7-.3-1-.9-.9-.4.2-1 .5-1.2.9zm7.2 3.4c-.6.2-1.1-.3-1.1-1 0-.6.5-1.3 1.1-1.4.7-.1 1.2.3 1.2 1s-.5 1.3-1.2 1.4zM138.1 87l1.3 5.9 1.5-6.5 2.5-.4-2.4 9.7-3 .5-1.2-5.7-1.2 6.1-3 .6-2.4-8.9 2.6-.4 1.4 5.9 1.4-6.5 2.5-.3zm9.6 3.3c0-.6-.4-1-1.2-.9-.6.1-1 .4-1.4.8l-1.2-1c.8-.8 1.8-1.4 3-1.6 2.2-.4 3.2.6 3.2 2.4V94l-2.3.4V94c-.4.4-1 .8-1.8 1-1.3.2-2.4-.4-2.4-1.8s1.1-2.5 2.4-2.7c.8-.1 1.4 0 1.8.4v-.7h-.1zm0 1.9c-.2-.3-.7-.3-1.1-.3-.6.1-1 .4-1 1 0 .4.4.6 1 .5a2 2 0 0 0 1.1-.6V92zm7-6c1.4-.2 2.5.3 3.2 1.2l-1.9 1.2c-.3-.4-.6-.6-1.2-.5-.8.1-1.2.9-1.2 2 0 1 .4 1.5 1.2 1.4.6-.1 1-.5 1.2-1l1.9.6c-.6 1.2-1.8 2-3.2 2.3-2.2.4-3.5-.8-3.5-3a4 4 0 0 1 3.5-4.2zm6.5 1.4V92l-2.5.4v-9.7l2.5-.4V86a4 4 0 0 1 2.1-1.3c1.4-.2 2.3.5 2.3 2.3v4.3l-2.4.4v-4.1c0-.7-.3-1-.8-.9-.5.1-1 .5-1.2.9zm8.6-6.2v2.2l-.3 4.3-2 .4-.3-4.3v-2.2l2.6-.4zm-1.3 9.6c-.7 0-1.3-.3-1.3-1 0-.6.6-1.3 1.3-1.4.7-.1 1.2.3 1.2 1 0 .6-.5 1.2-1.2 1.4z"/>
    <!--<path id="matea" d="M5 46.5l6.1.5 5 19.7 8.5-18.5 6 .5-4 46.8-7.4-.7 2-22.7-5.6 12.4-2-.2-3.4-13.1-2 22.7-7.2-.7 4-46.7zm43.4-4.4l10.4 1 2.4 47.3-7.4-.7-.3-10.6-6.2-.5L45.2 89l-7.5-.7 10.7-46.2zm4.9 30l-.7-18.4-3.8 18 4.5.4zm38.5-32.9l-8.3-.7.6-6.9 24 2.1-.6 6.9-8.3-.7-3.5 39.8-7.4-.7 3.5-39.8zm27.4-12.4l19 1.7-.6 6.8-11.6-1-1.2 13.1 9.2.8-.6 6.9-9.2-.8-1 13 11.6 1-.6 6.9-19-1.7 4-46.7zm35.7-4.6l10.4.9 2.4 47.3-7.4-.6-.3-10.6-6.2-.6-2.1 10.4-7.4-.6 10.6-46.2zm4.9 30l-.7-18.4-3.8 18 4.5.4zm-81.2 5l-.7 8.2-8.1-.7.7-8.2 8.1.8z"/>-->
    <path id="top" d="M3 35.8L169.7 6.3V0L3 29.5z"/>

    <path class="letter" id="M" d="M5.05 46.5l6.07.48 5.06 19.77 8.4-18.57 6.07.54-4.05 46.74-7.38-.65 1.96-22.7-5.6 12.37-1.96-.18-3.4-13.14-1.96 22.7L1 93.18z"/>
    <path class="letter" id="A1" d="M48.4 42.15l10.35.95L61.2 90.4l-7.38-.66-.36-10.63-6.13-.53-2.14 10.39-7.44-.66 10.65-46.15zm4.88 29.97l-.72-18.39-3.81 18.03 4.53.36z"/>
    <path id="dot" d="M78.64 57.25l-8.16-.71-.71 8.18 8.15.71z"/>
    <path class="letter" id="T" d="M91.8 39.22l-8.28-.71.6-6.87 23.93 2.1-.6 6.86-8.27-.72-3.45 39.82-7.39-.66z"/>
    <path class="letter" id="E" d="M119.25 26.8l18.99 1.68-.6 6.86-11.67-1.01-1.13 13.07 9.17.84-.6 6.86-9.16-.83-1.14 13.01 11.67 1.02-.6 6.86-18.98-1.67z"/>
    <path class="letter" id="A2" d="M154.9 22.2l10.37.9 2.44 47.35-7.38-.66-.36-10.63-6.13-.53L151.69 69l-7.44-.65 10.66-46.15zm4.9 29.98l-.66-18.39-3.81 18.03 4.46.36z"/>
  </g>
</svg>